<?xml version="1.0" standalone="no"?>
<!DOCTYPE svg PUBLIC "-//W3C//DTD SVG 1.1//EN" "http://www.w3.org/Graphics/SVG/1.1/DTD/svg11.dtd" >
<svg xmlns="http://www.w3.org/2000/svg" xmlns:xlink="http://www.w3.org/1999/xlink" version="1.1">
<metadata>
Created by FontForge 20170924 at Thu May  8 08:39:05 2014
 By www-data
Copyright (c) 2013, 2014, Hubert and Fischer, Philipp Hubert (philipp@hubertfischer.com), Sebastian Fischer (sebastian@hubertfischer.com)
</metadata>
<defs>
<font id="RubikMonoOne-Regular" horiz-adv-x="850" >
  <font-face 
    font-family="Rubik Mono One"
    font-weight="400"
    font-stretch="normal"
    units-per-em="1000"
    panose-1="2 0 5 4 2 0 0 2 0 4"
    ascent="800"
    descent="-200"
    x-height="700"
    cap-height="700"
    bbox="-40 -211 865 860"
    underline-thickness="50"
    underline-position="-100"
    unicode-range="U+0020-FB4A"
  />
<missing-glyph 
 />
    <glyph glyph-name="spade" unicode="&#x27;S" 
d="M45 710h125q9 0 15.5 -6.5t6.5 -13t-1 -9.5l-95 -241q-12 -32 -46 -32h-68q-9 0 -15.5 6.5t-6.5 15.5v2l37 239q2 15 15.5 27t32.5 12zM795.5 375.5q69.5 -51.5 69.5 -154.5t-101 -167t-268 -64t-259.5 61.5t-92.5 151.5q0 22 23 22h205q21 0 34 -13q28 -27 97 -27
q95 0 95 29q0 18 -30 28.5t-119 20.5q-283 34 -283 217q0 103 91 166.5t243.5 63.5t246.5 -66.5t94 -140.5q0 -10 -6.5 -16t-17.5 -6h-215q-18 0 -31 12q-24 22 -72 22q-67 0 -67 -28q0 -15 26 -23.5t104 -17.5q164 -19 233.5 -70.5z" />
    <glyph glyph-name=".notdef" 
 />
    <glyph glyph-name=".null" horiz-adv-x="0" 
 />
    <glyph glyph-name="nonmarkingreturn" horiz-adv-x="333" 
 />
    <glyph glyph-name="NULL" horiz-adv-x="0" 
 />
    <glyph glyph-name="NULL" horiz-adv-x="0" 
 />
    <glyph glyph-name="space" unicode=" " 
 />
    <glyph glyph-name="exclam" unicode="!" 
d="M324 700h203q11 0 19 -8t8 -21l-1 -381q0 -10 -8 -17.5t-19 -7.5h-202q-12 0 -19.5 7.5t-7.5 20.5v376q0 14 7.5 22.5t19.5 8.5zM324 223h202q11 0 19 -8t8 -19v-169q0 -11 -8 -19t-19 -8h-202q-11 0 -19 8t-8 19v169q0 11 8 19t19 8z" />
    <glyph glyph-name="quotedbl" unicode="&#x22;" 
d="M221 710h185q9 0 15.5 -6.5t6.5 -13t-1 -9.5l-95 -241q-12 -32 -46 -32h-128q-9 0 -15.5 6.5t-6.5 15.5v2l37 239q2 15 15.5 27t32.5 12zM506 710h185q9 0 15.5 -6.5t6.5 -13t-1 -9.5l-95 -241q-12 -32 -46 -32h-128q-9 0 -15.5 6.5t-6.5 15.5v2l37 239q2 15 15.5 27
t32.5 12z" />
    <glyph glyph-name="numbersign" unicode="#" 
d="M385 402l-13 -82h91l13 82h-91zM729 567q11 0 18 -7.5t7 -17.5v-118q0 -10 -7 -17.5t-18 -7.5h-84l-11 -76h69q11 0 18 -7.5t7 -17.5v-128q0 -10 -7 -17.5t-18 -7.5h-95l-13 -85q-3 -21 -25 -21h-126q-9 0 -15.5 6.5t-6.5 15.5v2l13 82h-85l-13 -85q-3 -21 -25 -21h-126
q-9 0 -15.5 6.5t-6.5 15.5v2l13 82h-55q-10 0 -17.5 7.5t-7.5 17.5v128q0 10 7.5 17.5t17.5 7.5h81l11 76h-66q-10 0 -17.5 7.5t-7.5 17.5v118q0 10 7.5 17.5t17.5 7.5h91l11 67q4 21 24 21h126q9 0 15.5 -6.5t6.5 -15.5v-3l-10 -63h85l11 67q4 21 24 21h126q9 0 15.5 -6.5
t6.5 -15.5v-3l-10 -63h59z" />
    <glyph glyph-name="dollar" unicode="$" 
d="M716.5 375.5q69.5 -51.5 69.5 -146t-74 -155.5t-198 -78v-64q0 -11 -8 -19t-19 -8h-134q-11 0 -19 8t-8 19v64q-127 16 -194 73.5t-67 133.5q0 22 23 22h205q21 0 34 -13q28 -27 97 -27q95 0 95 29q0 18 -30 28.5t-119 20.5q-283 34 -283 217q0 85 64 144.5t175 77.5v71
q0 11 8 19t19 8h134q11 0 19 -8t8 -19v-71q113 -20 180.5 -79.5t67.5 -119.5q0 -10 -6.5 -16t-17.5 -6h-215q-17 0 -31 12q-24 22 -72 22q-67 0 -67 -28q0 -15 26 -23.5t104 -17.5q164 -19 233.5 -70.5z" />
    <glyph glyph-name="percent" unicode="%" 
d="M161 573v-94q0 -14 9.5 -24t23.5 -10t23.5 10t9.5 24v94q0 14 -9.5 23.5t-23.5 9.5t-23.5 -10t-9.5 -23zM370 572v-94q0 -68 -48 -103t-128 -35t-128.5 35t-48.5 104v92q0 69 49.5 104t127 35t127 -35.5t49.5 -102.5zM621 224v-94q0 -14 9.5 -24t23.5 -10t23.5 10t9.5 24
v94q0 14 -9.5 23.5t-23.5 9.5t-23.5 -10t-9.5 -23zM830 223v-94q0 -68 -48 -103t-128 -35t-128.5 35t-48.5 104v92q0 69 49.5 104t127 35t127 -35.5t49.5 -102.5zM632 700h84q24 0 24 -20q0 -6 -4 -11l-484 -650q-14 -19 -36 -19h-84q-24 0 -24 20q0 6 4 11l484 650
q14 19 36 19z" />
    <glyph glyph-name="ampersand" unicode="&#x26;" 
d="M211 657q66 54 184.5 54t180 -53t61.5 -128q0 -107 -124 -179l65 -67q19 17 46 72q4 10 20 10h162q8 0 13 -5t5 -13q0 -30 -41 -96t-77 -104l120 -117q6 -6 6 -13.5t-5.5 -12.5t-12.5 -5h-211q-13 0 -25 10l-27 24q-86 -48 -193 -48q-138 0 -212.5 55t-74.5 160
q0 117 130 190q-56 68 -56 140t66 126zM319 171.5q20 -16.5 51 -16.5t45 10l-89 90q-27 -13 -27 -40t20 -43.5zM399 558q-14 0 -24.5 -10.5t-10.5 -27.5t29 -44q42 19 42 49q0 33 -36 33z" />
    <glyph glyph-name="quotesingle" unicode="'" 
d="M365 711h185q9 0 15.5 -6.5t6.5 -13t-1 -9.5l-95 -241q-12 -32 -46 -32h-128q-9 0 -15.5 6.5t-6.5 15.5v2l37 239q2 15 15.5 27t32.5 12z" />
    <glyph glyph-name="parenleft" unicode="(" 
d="M462 446v-275q0 -62 35.5 -99.5t92.5 -44.5q7 -1 13 -7t6 -15v-142q0 -9 -6.5 -15.5t-15.5 -6.5q-142 0 -236 85t-94 244v277q0 159 94 244t236 85q9 0 15.5 -6.5t6.5 -15.5v-142q0 -9 -6 -15t-13 -7q-57 -7 -92.5 -44.5t-35.5 -99.5z" />
    <glyph glyph-name="parenright" unicode=")" 
d="M388 171v275q0 62 -35.5 99.5t-92.5 44.5q-7 1 -13 7t-6 15v142q0 9 6.5 15.5t15.5 6.5q142 0 236 -85t94 -244v-277q0 -159 -94 -244t-236 -85q-9 0 -15.5 6.5t-6.5 15.5v142q0 9 6 15t13 7q57 7 92.5 44.5t35.5 99.5z" />
    <glyph glyph-name="asterisk" unicode="*" 
d="M246 421q-7 5 -7 15t7 17l70 67l-86 8q-21 2 -21 22q0 2 1 7l27 98q4 16 21 16q5 0 11 -3l83 -33l-17 80q-1 4 -1 9t6.5 12t15.5 7h140q9 0 15.5 -6.5t6.5 -12.5t-1 -10l-17 -79l83 33q6 3 11 3q17 0 21 -16l26 -98q1 -5 1 -7q0 -20 -20 -22l-87 -8l70 -66q8 -8 8 -18
t-8 -16l-88 -63q-6 -5 -17 -5t-17 13l-57 89l-57 -89q-5 -13 -16.5 -13t-17.5 5z" />
    <glyph glyph-name="plus" unicode="+" 
d="M322 99v156h-159q-11 0 -19 8t-8 19v139q0 11 8 19t19 8h159v151q0 11 8 19t19 8h152q11 0 19 -8t8 -19v-151h159q11 0 19 -8t8 -19v-139q0 -11 -8 -19t-19 -8h-159v-156q0 -11 -8 -19t-19 -8h-152q-11 0 -19 8t-8 19z" />
    <glyph glyph-name="comma" unicode="," 
d="M365 210h185q9 0 15.5 -6.5t6.5 -13t-1 -9.5l-95 -241q-12 -32 -46 -32h-128q-9 0 -15.5 6.5t-6.5 15.5v2l37 239q2 15 15.5 27t32.5 12z" />
    <glyph glyph-name="hyphen" unicode="-" 
d="M234 430h383q11 0 19 -8t8 -19v-142q0 -11 -8 -19t-19 -8h-383q-11 0 -19 8t-8 19v142q0 11 8 19t19 8z" />
    <glyph glyph-name="period" unicode="." 
d="M320 238h210q11 0 19 -8t8 -19v-184q0 -11 -8 -19t-19 -8h-210q-11 0 -19 8t-8 19v184q0 11 8 19t19 8z" />
    <glyph glyph-name="slash" unicode="/" 
d="M543 786h143q9 0 15.5 -6.5t6.5 -13t-2 -11.5l-358 -809q-12 -30 -44 -30h-140q-9 0 -15.5 6.5t-6.5 13t2 11.5l355 809q11 30 44 30z" />
    <glyph glyph-name="zero" unicode="0" 
d="M360 451v-200q0 -28 19 -46.5t46 -18.5t46 19t19 46v200q0 28 -18.5 46.5t-46.5 18.5t-46.5 -19t-18.5 -46zM760 441v-182q0 -133 -92.5 -201t-243 -68t-242.5 68t-92 203v178q0 133 95 202t240 69t240 -69t95 -200z" />
    <glyph glyph-name="one" unicode="1" 
d="M588 673v-468h159q11 0 19 -8t8 -19v-151q0 -11 -8 -19t-19 -8h-604q-11 0 -19 8t-8 19v151q0 11 8 19t19 8h185v240l-101 -67q-9 -6 -18.5 -6t-19.5 14l-81 126q-4 8 -4 18.5t13 20.5l222 145q7 4 16 4h206q11 0 19 -8t8 -19z" />
    <glyph glyph-name="two" unicode="2" 
d="M733 205q11 0 19 -8t8 -19v-151q0 -11 -8 -19t-19 -8h-603q-11 0 -19 8t-8 19v123q0 38 26 54q170 107 254.5 171t84.5 99q0 12 -1.5 19.5t-10.5 14t-26.5 6.5t-29.5 -8t-16 -16t-8 -22.5t-5 -16.5q-4 -11 -28 -11h-203q-10 0 -17.5 7t-7.5 18q0 112 87.5 178.5
t234.5 66.5t222 -58t75 -165q0 -54 -35 -98q-19 -24 -36.5 -42.5t-50.5 -43.5q-79 -59 -142 -98h263z" />
    <glyph glyph-name="three" unicode="3" 
d="M775 219q0 -103 -97.5 -166t-249.5 -63q-205 0 -297 100q-48 53 -48 108q0 10 6.5 16t15.5 6h219q11 0 22 -10.5t16 -14.5q16 -11 60.5 -11t63.5 15t19 38q0 44 -77 44h-133q-11 0 -19 8t-8 19v81q0 29 21 40l147 76h-280q-11 0 -19 8t-8 19v141q0 11 8 19t19 8h546
q11 0 19 -8t8 -19v-127q0 -23 -21 -40l-124 -80q191 -45 191 -207z" />
    <glyph glyph-name="four" unicode="4" 
d="M672 315h87q12 0 20 -8t8 -19v-149q0 -11 -8 -19t-19 -8h-88v-85q0 -11 -8 -19t-19 -8h-201q-11 0 -19 8t-8 19v85h-324q-11 0 -19 8t-8 19v148q0 17 11 31l303 365q14 17 37 17h228q11 0 19 -8t8 -19v-358zM424 304v141l-115 -141h115z" />
    <glyph glyph-name="five" unicode="5" 
d="M347 220q27 -35 67 -35t60.5 16.5t20.5 45.5t-21 45t-51.5 16t-51.5 -12t-26 -12h-199q-9 0 -15.5 6.5t-6.5 13.5v7l39 347q2 19 15 30.5t32 11.5h475q11 0 19 -8t8 -19v-141q0 -11 -8 -19t-19 -8h-317l-8 -69q55 34 153 34t174 -66t76 -169.5t-94.5 -174t-249 -70.5
t-243.5 65t-89 159q0 9 6.5 15.5t15.5 6.5h202q23 0 36 -16z" />
    <glyph glyph-name="six" unicode="6" 
d="M498 495q8 1 25 1t47.5 -5.5t67 -23t65.5 -44.5t47 -71t18 -98q0 -116 -94.5 -190t-238.5 -74t-241 68.5t-97 185.5q0 101 99 225l167 211q14 20 39 20h201q9 0 15.5 -6.5t6.5 -14.5t-4 -14zM518 250q0 31 -24.5 48t-59.5 17t-59.5 -17t-24.5 -48t24.5 -48t59.5 -17
t59.5 17t24.5 48z" />
    <glyph glyph-name="seven" unicode="7" 
d="M146 700h577q12 0 19.5 -8t7.5 -19v-147q0 -28 -13 -51l-243 -452q-13 -23 -41 -23h-225q-9 0 -15.5 6.5t-6.5 13.5t2 11l258 464h-320q-11 0 -19 8t-8 19v151q0 11 8 19t19 8z" />
    <glyph glyph-name="eight" unicode="8" 
d="M186 648q84 62 238.5 62t237.5 -61t83 -145t-70 -134q96 -51 96 -148.5t-90.5 -164.5t-255.5 -67t-254.5 67.5t-89.5 165t89 147.5q-68 51 -68 133.5t84 144.5zM481 255q-23 16 -55.5 16t-56.5 -16.5t-24 -42.5t23.5 -40t56.5 -14t56.5 13.5t23.5 40.5q-1 27 -24 43z
M499 486q0 24 -22 39t-52 15t-51.5 -14.5t-21.5 -39t21.5 -39t51.5 -14.5t52 14.5t22 38.5z" />
    <glyph glyph-name="nine" unicode="9" 
d="M357 205q-8 -1 -25 -1t-47.5 5.5t-67 23t-65.5 44.5t-47 71t-18 98q0 116 94.5 190t238.5 74t241 -68.5t97 -185.5q0 -50 -19.5 -101.5t-78.5 -120.5l-183 -214q-17 -20 -39 -20h-210q-9 0 -15.5 6.5t-6.5 14.5t4 14zM505 451q0 31 -24.5 48t-59.5 17t-59.5 -17
t-24.5 -48t24.5 -48t59.5 -17t59.5 17t24.5 48z" />
    <glyph glyph-name="colon" unicode=":" 
d="M323 574h203q11 0 19 -8t8 -19v-179q0 -11 -8 -19t-19 -8h-203q-11 0 -19 8t-8 19v179q0 11 8 19t19 8zM323 233h203q11 0 19 -8t8 -19v-179q0 -11 -8 -19t-19 -8h-203q-11 0 -19 8t-8 19v179q0 11 8 19t19 8z" />
    <glyph glyph-name="semicolon" unicode=";" 
d="M324 573h203q11 0 19 -8t8 -19v-179q0 -11 -8 -19t-19 -8h-203q-11 0 -19 8t-8 19v179q0 11 8 19t19 8zM348 210h185q9 0 15.5 -6.5t6.5 -13t-1 -9.5l-95 -241q-12 -32 -46 -32h-128q-9 0 -15.5 6.5t-6.5 15.5v2l37 239q2 15 15.5 27t32.5 12z" />
    <glyph glyph-name="less" unicode="&#x3c;" 
d="M165 329v42q0 23 29 42l420 270q5 3 12.5 3t13.5 -6t6 -15v-162q0 -18 -8 -25t-10 -8q-13 -10 -14 -10l-175 -110l175 -110q4 0 14.5 -9.5t11.5 -12.5q6 -13 6 -21v-162q0 -9 -6 -15t-13.5 -6t-12.5 3l-420 270q-29 19 -29 42z" />
    <glyph glyph-name="equal" unicode="=" 
d="M213 553h425q11 0 19 -8t8 -19v-116q0 -11 -8 -19t-19 -8h-425q-11 0 -19 8t-8 19v116q0 11 8 19t19 8zM213 303h425q11 0 19 -8t8 -19v-116q0 -11 -8 -19t-19 -8h-425q-11 0 -19 8t-8 19v116q0 11 8 19t19 8z" />
    <glyph glyph-name="greater" unicode="&#x3e;" 
d="M686 371v-42q0 -23 -29 -42l-420 -270q-5 -3 -12.5 -3t-13.5 6t-6 15v162q0 18 8 25t10 8q13 10 14 10l175 110l-175 110q-4 0 -14.5 9.5t-12.5 12.5q-5 13 -5 21v162q0 9 6 15t13.5 6t12.5 -3l420 -270q29 -19 29 -42z" />
    <glyph glyph-name="question" unicode="?" 
d="M286 689q68 21 155.5 21t153 -20t97.5 -51q60 -58 60 -117q0 -40 -20.5 -75.5t-46 -57t-57 -48.5t-43 -44t-14.5 -21q-10 -11 -24 -11h-234q-7 0 -13 5.5t-6 11.5t1 9q10 31 39 61t58 49q75 49 75 76q0 37 -44 37q-25 0 -38 -9.5t-15.5 -21.5t-12.5 -21.5t-28 -9.5h-206
q-11 0 -18 9t-7 21v1q0 82 80 151q40 34 108 55zM328 223h203q11 0 19 -8t8 -19v-169q0 -11 -8 -19t-19 -8h-203q-11 0 -19 8t-8 19v169q0 11 8 19t19 8z" />
    <glyph glyph-name="at" unicode="@" 
d="M210 339q0 103 37 154t123 51q54 0 80 -17q9 -6 18 -14l9 -8v4q0 11 8 19t19 8h92q11 0 19 -8t8 -19v-212q0 -53 35 -53q23 0 30 13.5t7 39.5v119q0 113 -66 159t-188 46q-119 0 -199 -42q-41 -22 -64 -63.5t-23 -98.5v-139q0 -221 285 -221q83 0 117 6.5t53 21.5t28 15
h150q9 0 15 -6t6 -14t-5 -15q-51 -65 -130 -99.5t-232 -34.5q-214 0 -323 93.5t-109 250.5v142q0 147 109.5 238.5t320 91.5t305.5 -90t95 -243v-116q0 -75 -50 -122.5t-138 -47.5q-114 0 -148 56q-38 -49 -129 -49t-128 50.5t-37 153.5zM381.5 396.5q-8.5 -20.5 -8.5 -57
t8.5 -55t33.5 -18.5q47 0 47 75.5t-47 75.5q-25 0 -33.5 -20.5z" />
    <glyph glyph-name="A" unicode="A" 
d="M236 0h-189q-9 0 -15.5 6.5t-6.5 12.5t1 9l218 639q9 33 45 33h278q36 0 45 -33l218 -639q1 -3 1 -9t-6.5 -12.5t-15.5 -6.5h-189q-32 0 -45 34l-25 70h-244l-25 -70q-13 -34 -45 -34zM499 299l-71 208l-71 -208h142z" />
    <glyph glyph-name="B" unicode="B" 
d="M806 220q0 -220 -282 -220h-412q-11 0 -19 8t-8 19v646q0 11 8 19t19 8h402q142 0 209.5 -51.5t67.5 -155.5v-3q0 -48 -26 -82t-54 -43q39 -12 67 -52.5t28 -92.5zM345 270v-98h145q23 0 34.5 15.5t11.5 34.5v1q0 19 -12.5 33t-33.5 14h-145zM520 484q0 18 -10.5 31
t-30.5 13h-134v-91h134q20 0 30.5 14.5t10.5 32.5z" />
    <glyph glyph-name="C" unicode="C" 
d="M333 430v-160q0 -41 27.5 -63t72 -22t64.5 14t33.5 41t35.5 27h216q9 0 15.5 -6.5t6.5 -15.5q0 -93 -88 -170q-44 -38 -117 -61.5t-172 -23.5t-180.5 30.5t-132.5 100t-51 170.5v118q0 101 51 171q96 130 321 130q91 0 164 -23.5t117 -61.5q88 -77 88 -170
q0 -9 -6.5 -15.5t-15.5 -6.5h-216q-22 0 -35.5 27t-33.5 41t-64.5 14t-72 -22t-27.5 -63z" />
    <glyph glyph-name="D" unicode="D" 
d="M103 700h319q110 0 191 -29t131 -98t50 -172v-102q0 -160 -108 -233q-99 -66 -264 -66h-319q-11 0 -19 8t-8 19v646q0 11 8 19t19 8zM336 505v-310h91q47 0 74.5 22.5t27.5 63.5v138q0 41 -27.5 63.5t-74.5 22.5h-91z" />
    <glyph glyph-name="E" unicode="E" 
d="M350 195h399q11 0 19 -8t8 -19v-141q0 -11 -8 -19t-19 -8h-632q-11 0 -19 8t-8 19v646q0 11 8 19t19 8h622q11 0 19 -8t8 -19v-141q0 -11 -8 -19t-19 -8h-389v-63h334q11 0 19 -8t8 -19v-130q0 -11 -8 -19t-19 -8h-334v-63z" />
    <glyph glyph-name="F" unicode="F" 
d="M127 700h636q11 0 19 -8t8 -19v-152q0 -11 -8 -19t-19 -8h-393v-64h328q11 0 19 -8t8 -19v-151q0 -11 -8 -19t-19 -8h-328v-198q0 -11 -8 -19t-19 -8h-216q-11 0 -19 8t-8 19v646q0 11 8 19t19 8z" />
    <glyph glyph-name="G" unicode="G" 
d="M495 422h290q11 0 19 -8t8 -19v-106q0 -152 -103.5 -225.5t-273.5 -73.5t-273.5 73.5t-103.5 227.5v118q0 77 29.5 136t82.5 95q104 70 265 70q80 0 146.5 -18.5t106 -46t67.5 -59.5q49 -56 49 -99q0 -9 -6.5 -15.5t-15.5 -6.5h-226q-20 0 -29 11q-31 39 -84.5 39
t-84 -21t-30.5 -54v-170q0 -40 30 -62.5t84.5 -22.5t84 21.5t30.5 50.5h-62q-11 0 -19 8t-8 19v111q0 11 8 19t19 8z" />
    <glyph glyph-name="H" unicode="H" 
d="M552 700h206q11 0 19 -8t8 -19v-646q0 -11 -8 -19t-19 -8h-206q-11 0 -19 8t-8 19v213h-200v-213q0 -11 -8 -19t-19 -8h-206q-11 0 -19 7.5t-8 19.5v646q0 11 8 19t19 8h206q11 0 19 -8t8 -19v-205h200v205q0 11 8 19t19 8z" />
    <glyph glyph-name="I" unicode="I" 
d="M742 495h-181v-290h181q11 0 19 -8t8 -19v-151q0 -11 -8 -19t-19 -8h-634q-11 0 -19 8t-8 19v151q0 11 8 19t19 8h183v290h-183q-11 0 -19 8t-8 19v151q0 11 8 19t19 8h634q11 0 19 -8t8 -19v-151q0 -11 -8 -19t-19 -8z" />
    <glyph glyph-name="J" unicode="J" 
d="M768 673v-382q0 -152 -100 -226.5t-267 -74.5q-91 0 -165 23.5t-118 61.5q-91 79 -91 170q0 9 6.5 15.5t15.5 6.5h226q18 0 25 -22q19 -60 96 -60q47 0 74.5 22t27.5 63v225h-365q-11 0 -19 8t-8 19v151q0 11 8 19t19 8h608q11 0 19 -8t8 -19z" />
    <glyph glyph-name="K" unicode="K" 
d="M838 35q4 -6 4 -14t-6.5 -14.5t-15.5 -6.5h-258q-23 0 -36 16l-174 215v-204q0 -11 -8 -19t-19 -8h-206q-11 0 -19 8t-8 19v646q0 11 8 19t19 8h206q11 0 19 -8t8 -19v-188l158 198q15 17 37 17h241q9 0 15.5 -6.5t6.5 -15t-5 -14.5l-237 -289z" />
    <glyph glyph-name="L" unicode="L" 
d="M410 205h341q11 0 19 -8t8 -19v-151q0 -11 -8 -19t-19 -8h-584q-11 0 -19 8t-8 19v646q0 11 8 19t19 8h216q11 0 19 -8t8 -19v-468z" />
    <glyph glyph-name="M" unicode="M" 
d="M599 700h183q11 0 19 -8t8 -19v-646q0 -11 -8 -19t-19 -8h-181q-11 0 -19 8t-8 19v310l-73 -144q-6 -12 -18 -18.5t-24 -6.5h-68q-17 0 -28 9t-14 16l-73 144v-310q0 -11 -8 -19t-19 -8h-181q-11 0 -19 8t-8 19v646q0 11 8 19t19 8h183q28 0 43 -27l131 -240l131 240
q15 27 43 27z" />
    <glyph glyph-name="N" unicode="N" 
d="M552 700h186q11 0 19 -8t8 -19v-646q0 -11 -8 -19t-19 -8h-161q-24 0 -40 21l-218 278v-272q0 -11 -8 -19t-19 -8h-186q-11 0 -19 8t-8 19v646q0 11 8 19t19 8h162q24 0 39 -20l218 -301v294q0 11 8 19t19 8z" />
    <glyph glyph-name="O" unicode="O" 
d="M797 411v-122q0 -103 -50 -172t-131 -98t-191 -29t-191 29t-131 98t-50 174v118q0 151 103.5 226t268.5 75t268.5 -75t103.5 -224zM323 430v-160q0 -41 27.5 -63t74.5 -22t74.5 22.5t27.5 63.5v158q0 41 -27.5 63.5t-74.5 22.5t-74.5 -22t-27.5 -63z" />
    <glyph glyph-name="P" unicode="P" 
d="M153 700h374q142 0 225 -69t83 -177t-70 -171.5t-238 -63.5h-132v-192q0 -11 -8 -19t-19 -8h-215q-11 0 -19 8t-8 19v646q0 11 8 19t19 8zM396 514v-110h127q23 0 37.5 14t14.5 39t-14 41t-38 16h-127z" />
    <glyph glyph-name="Q" unicode="Q" 
d="M796 411v-122q0 -147 -97 -223l74 -100q7 -14 -0.5 -22.5t-16.5 -8.5h-191q-32 0 -49 25l-26 33q-32 -3 -66 -3q-110 0 -191 29t-131 98t-50 174v118q0 105 50 174t131 98t191 29t191 -29t131 -98t50 -172zM322 430v-160q0 -41 27.5 -63t74.5 -22t74.5 22.5t27.5 63.5
v158q0 41 -27.5 63.5t-74.5 22.5t-74.5 -22t-27.5 -63z" />
    <glyph glyph-name="R" unicode="R" 
d="M822 31q2 -4 2 -11t-6.5 -13.5t-15.5 -6.5h-227q-30 0 -42 25l-88 198h-84v-196q0 -11 -8 -19t-19 -8h-216q-11 0 -19 8t-8 19v646q0 11 8 19t19 8h389q137 0 217 -65t80 -177q0 -136 -105 -197zM361 514v-106h125q22 0 34 14.5t12 36.5t-11.5 38.5t-34.5 16.5h-125z" />
    <glyph glyph-name="S" unicode="S" 
d="M713.5 375.5q69.5 -51.5 69.5 -154.5t-101 -167t-268 -64t-259.5 61.5t-92.5 151.5q0 22 23 22h205q21 0 34 -13q28 -27 97 -27q95 0 95 29q0 18 -30 28.5t-119 20.5q-283 34 -283 217q0 103 91 166.5t243.5 63.5t246.5 -66.5t94 -140.5q0 -10 -6.5 -16t-17.5 -6h-215
q-18 0 -31 12q-24 22 -72 22q-67 0 -67 -28q0 -15 26 -23.5t104 -17.5q164 -19 233.5 -70.5z" />
    <glyph glyph-name="T" unicode="T" 
d="M80 700h690q11 0 19 -8t8 -19v-161q0 -11 -8 -19t-19 -8h-215v-458q0 -11 -8 -19t-19 -8h-206q-11 0 -19 8t-8 19v458h-215q-11 0 -19 8t-8 19v161q0 11 8 19t19 8z" />
    <glyph glyph-name="U" unicode="U" 
d="M425 -10q-168 0 -266.5 73t-98.5 228v382q0 11 8 19t19 8h209q11 0 19 -8t8 -19v-398q0 -41 27.5 -63t74.5 -22t74.5 22t27.5 63v398q0 11 8 19t19 8h209q11 0 19 -8t8 -19v-382q0 -155 -98.5 -228t-266.5 -73z" />
    <glyph glyph-name="V" unicode="V" 
d="M585 700h211q9 0 15.5 -6.5t6.5 -12.5t-1 -10l-230 -638q-11 -33 -45 -33h-233q-33 0 -44 30l-232 641q-1 4 -1 10t6.5 12.5t15.5 6.5h211q18 0 29.5 -10.5t15.5 -22.5l115 -383l115 383q9 33 45 33z" />
    <glyph glyph-name="W" unicode="W" 
d="M293 0h-140q-19 0 -31.5 11.5t-14.5 26.5l-87 637v3q0 9 6.5 15.5t15.5 6.5h172q20 0 32.5 -12t14.5 -30l32 -306l58 159q3 10 14.5 19.5t29.5 9.5h68q18 0 29.5 -9.5t14.5 -19.5l58 -159l32 306q2 18 14.5 30t32.5 12h172q9 0 15.5 -6.5t6.5 -15.5v-3l-87 -637
q-2 -15 -14.5 -26.5t-31.5 -11.5h-140q-18 0 -29.5 9t-14.5 18l-92 211l-92 -211q-3 -9 -14.5 -18t-29.5 -9z" />
    <glyph glyph-name="X" unicode="X" 
d="M796 33q3 -4 3 -12t-6.5 -14.5t-15.5 -6.5h-215q-27 0 -41 23l-97 149l-95 -149q-15 -23 -41 -23h-216q-9 0 -15.5 6.5t-6.5 14.5t3 12l221 338l-197 296q-3 4 -3 12t6.5 14.5t15.5 6.5h216q26 0 42 -25l78 -128l84 130q17 23 41 23h215q9 0 15.5 -6.5t6.5 -14.5t-3 -12
l-209 -309z" />
    <glyph glyph-name="Y" unicode="Y" 
d="M582 700h209q9 0 15.5 -6.5t6.5 -13.5t-3 -13l-252 -417v-223q0 -11 -8 -19t-19 -8h-213q-11 0 -19 8t-8 19v223l-251 417q-3 6 -3 13t6.5 13.5t15.5 6.5h211q28 0 41 -23l113 -198l116 196q15 25 42 25z" />
    <glyph glyph-name="Z" unicode="Z" 
d="M747 205q11 0 19 -8t8 -19v-151q0 -11 -8 -19t-19 -8h-642q-11 0 -19 8t-8 19v144q0 23 15 35l316 289h-283q-11 0 -19 8t-8 19v151q0 11 8 19t19 8h600q11 0 19 -8t8 -19v-143q0 -21 -13 -33l-312 -292h319z" />
    <glyph glyph-name="bracketleft" unicode="[" 
d="M256 775h367q11 0 19 -8t8 -19v-119q0 -11 -8 -19t-19 -8h-198v-588h198q11 0 19 -8t8 -19v-119q0 -11 -8 -19t-19 -8h-367q-11 0 -19 8t-8 19v880q0 11 8 19t19 8z" />
    <glyph glyph-name="backslash" unicode="\" 
d="M706 -53q2 -5 2 -11.5t-6.5 -13t-15.5 -6.5h-140q-32 0 -44 30l-358 809q-2 5 -2 11.5t6.5 13t15.5 6.5h143q33 0 44 -30z" />
    <glyph glyph-name="bracketright" unicode="]" 
d="M227 775h367q11 0 19 -8t8 -19v-880q0 -11 -8 -19t-19 -8h-367q-11 0 -19 8t-8 19v119q0 11 8 19t19 8h198v588h-198q-11 0 -19 8t-8 19v119q0 11 8 19t19 8z" />
    <glyph glyph-name="asciicircum" unicode="^" 
d="M328 731h-81q-16 0 -16 16q0 9 8 14l83 70q27 19 47 19h112q20 0 47 -19l83 -70q8 -5 8 -14q0 -16 -16 -16h-81q-18 0 -40 7l-57 22l-57 -22q-22 -7 -40 -7z" />
    <glyph glyph-name="underscore" unicode="_" 
d="M72 109h705q11 0 19 -8t8 -19v-136q0 -11 -8 -19t-19 -8h-705q-11 0 -19 8t-8 19v136q0 11 8 19t19 8z" />
    <glyph glyph-name="a" unicode="a" 
d="M236 0h-189q-9 0 -15.5 6.5t-6.5 12.5t1 9l218 639q9 33 45 33h278q36 0 45 -33l218 -639q1 -3 1 -9t-6.5 -12.5t-15.5 -6.5h-189q-32 0 -45 34l-25 70h-244l-25 -70q-13 -34 -45 -34zM499 299l-71 208l-71 -208h142z" />
    <glyph glyph-name="b" unicode="b" 
d="M806 220q0 -220 -282 -220h-412q-11 0 -19 8t-8 19v646q0 11 8 19t19 8h402q142 0 209.5 -51.5t67.5 -155.5v-3q0 -48 -26 -82t-54 -43q39 -12 67 -52.5t28 -92.5zM345 270v-98h145q23 0 34.5 15.5t11.5 34.5v1q0 19 -12.5 33t-33.5 14h-145zM520 484q0 18 -10.5 31
t-30.5 13h-134v-91h134q20 0 30.5 14.5t10.5 32.5z" />
    <glyph glyph-name="c" unicode="c" 
d="M333 430v-160q0 -41 27.5 -63t72 -22t64.5 14t33.5 41t35.5 27h216q9 0 15.5 -6.5t6.5 -15.5q0 -93 -88 -170q-44 -38 -117 -61.5t-172 -23.5t-180.5 30.5t-132.5 100t-51 170.5v118q0 101 51 171q96 130 321 130q91 0 164 -23.5t117 -61.5q88 -77 88 -170
q0 -9 -6.5 -15.5t-15.5 -6.5h-216q-22 0 -35.5 27t-33.5 41t-64.5 14t-72 -22t-27.5 -63z" />
    <glyph glyph-name="d" unicode="d" 
d="M103 700h319q110 0 191 -29t131 -98t50 -172v-102q0 -160 -108 -233q-99 -66 -264 -66h-319q-11 0 -19 8t-8 19v646q0 11 8 19t19 8zM336 505v-310h91q47 0 74.5 22.5t27.5 63.5v138q0 41 -27.5 63.5t-74.5 22.5h-91z" />
    <glyph glyph-name="e" unicode="e" 
d="M350 195h399q11 0 19 -8t8 -19v-141q0 -11 -8 -19t-19 -8h-632q-11 0 -19 8t-8 19v646q0 11 8 19t19 8h622q11 0 19 -8t8 -19v-141q0 -11 -8 -19t-19 -8h-389v-63h334q11 0 19 -8t8 -19v-130q0 -11 -8 -19t-19 -8h-334v-63z" />
    <glyph glyph-name="f" unicode="f" 
d="M127 700h636q11 0 19 -8t8 -19v-152q0 -11 -8 -19t-19 -8h-393v-64h328q11 0 19 -8t8 -19v-151q0 -11 -8 -19t-19 -8h-328v-198q0 -11 -8 -19t-19 -8h-216q-11 0 -19 8t-8 19v646q0 11 8 19t19 8z" />
    <glyph glyph-name="g" unicode="g" 
d="M495 422h290q11 0 19 -8t8 -19v-106q0 -152 -103.5 -225.5t-273.5 -73.5t-273.5 73.5t-103.5 227.5v118q0 77 29.5 136t82.5 95q104 70 265 70q80 0 146.5 -18.5t106 -46t67.5 -59.5q49 -56 49 -99q0 -9 -6.5 -15.5t-15.5 -6.5h-226q-20 0 -29 11q-31 39 -84.5 39
t-84 -21t-30.5 -54v-170q0 -40 30 -62.5t84.5 -22.5t84 21.5t30.5 50.5h-62q-11 0 -19 8t-8 19v111q0 11 8 19t19 8z" />
    <glyph glyph-name="h" unicode="h" 
d="M552 700h206q11 0 19 -8t8 -19v-646q0 -11 -8 -19t-19 -8h-206q-11 0 -19 8t-8 19v213h-200v-213q0 -11 -8 -19t-19 -8h-206q-11 0 -19 7.5t-8 19.5v646q0 11 8 19t19 8h206q11 0 19 -8t8 -19v-205h200v205q0 11 8 19t19 8z" />
    <glyph glyph-name="i" unicode="i" 
d="M742 495h-181v-290h181q11 0 19 -8t8 -19v-151q0 -11 -8 -19t-19 -8h-634q-11 0 -19 8t-8 19v151q0 11 8 19t19 8h183v290h-183q-11 0 -19 8t-8 19v151q0 11 8 19t19 8h634q11 0 19 -8t8 -19v-151q0 -11 -8 -19t-19 -8z" />
    <glyph glyph-name="j" unicode="j" 
d="M768 673v-382q0 -152 -100 -226.5t-267 -74.5q-91 0 -165 23.5t-118 61.5q-91 79 -91 170q0 9 6.5 15.5t15.5 6.5h226q18 0 25 -22q19 -60 96 -60q47 0 74.5 22t27.5 63v225h-365q-11 0 -19 8t-8 19v151q0 11 8 19t19 8h608q11 0 19 -8t8 -19z" />
    <glyph glyph-name="k" unicode="k" 
d="M838 35q4 -6 4 -14t-6.5 -14.5t-15.5 -6.5h-258q-23 0 -36 16l-174 215v-204q0 -11 -8 -19t-19 -8h-206q-11 0 -19 8t-8 19v646q0 11 8 19t19 8h206q11 0 19 -8t8 -19v-188l158 198q15 17 37 17h241q9 0 15.5 -6.5t6.5 -15t-5 -14.5l-237 -289z" />
    <glyph glyph-name="l" unicode="l" 
d="M410 205h341q11 0 19 -8t8 -19v-151q0 -11 -8 -19t-19 -8h-584q-11 0 -19 8t-8 19v646q0 11 8 19t19 8h216q11 0 19 -8t8 -19v-468z" />
    <glyph glyph-name="m" unicode="m" 
d="M599 700h183q11 0 19 -8t8 -19v-646q0 -11 -8 -19t-19 -8h-181q-11 0 -19 8t-8 19v310l-73 -144q-6 -12 -18 -18.5t-24 -6.5h-68q-17 0 -28 9t-14 16l-73 144v-310q0 -11 -8 -19t-19 -8h-181q-11 0 -19 8t-8 19v646q0 11 8 19t19 8h183q28 0 43 -27l131 -240l131 240
q15 27 43 27z" />
    <glyph glyph-name="n" unicode="n" 
d="M552 700h186q11 0 19 -8t8 -19v-646q0 -11 -8 -19t-19 -8h-161q-24 0 -40 21l-218 278v-272q0 -11 -8 -19t-19 -8h-186q-11 0 -19 8t-8 19v646q0 11 8 19t19 8h162q24 0 39 -20l218 -301v294q0 11 8 19t19 8z" />
    <glyph glyph-name="o" unicode="o" 
d="M797 411v-122q0 -103 -50 -172t-131 -98t-191 -29t-191 29t-131 98t-50 174v118q0 151 103.5 226t268.5 75t268.5 -75t103.5 -224zM323 430v-160q0 -41 27.5 -63t74.5 -22t74.5 22.5t27.5 63.5v158q0 41 -27.5 63.5t-74.5 22.5t-74.5 -22t-27.5 -63z" />
    <glyph glyph-name="p" unicode="p" 
d="M153 700h374q142 0 225 -69t83 -177t-70 -171.5t-238 -63.5h-132v-192q0 -11 -8 -19t-19 -8h-215q-11 0 -19 8t-8 19v646q0 11 8 19t19 8zM396 514v-110h127q23 0 37.5 14t14.5 39t-14 41t-38 16h-127z" />
    <glyph glyph-name="q" unicode="q" 
d="M796 411v-122q0 -147 -97 -223l74 -100q7 -14 -0.5 -22.5t-16.5 -8.5h-191q-32 0 -49 25l-26 33q-32 -3 -66 -3q-110 0 -191 29t-131 98t-50 174v118q0 105 50 174t131 98t191 29t191 -29t131 -98t50 -172zM322 430v-160q0 -41 27.5 -63t74.5 -22t74.5 22.5t27.5 63.5
v158q0 41 -27.5 63.5t-74.5 22.5t-74.5 -22t-27.5 -63z" />
    <glyph glyph-name="r" unicode="r" 
d="M822 31q2 -4 2 -11t-6.5 -13.5t-15.5 -6.5h-227q-30 0 -42 25l-88 198h-84v-196q0 -11 -8 -19t-19 -8h-216q-11 0 -19 8t-8 19v646q0 11 8 19t19 8h389q137 0 217 -65t80 -177q0 -136 -105 -197zM361 514v-106h125q22 0 34 14.5t12 36.5t-11.5 38.5t-34.5 16.5h-125z" />
    <glyph glyph-name="s" unicode="s" 
d="M713.5 375.5q69.5 -51.5 69.5 -154.5t-101 -167t-268 -64t-259.5 61.5t-92.5 151.5q0 22 23 22h205q21 0 34 -13q28 -27 97 -27q95 0 95 29q0 18 -30 28.5t-119 20.5q-283 34 -283 217q0 103 91 166.5t243.5 63.5t246.5 -66.5t94 -140.5q0 -10 -6.5 -16t-17.5 -6h-215
q-18 0 -31 12q-24 22 -72 22q-67 0 -67 -28q0 -15 26 -23.5t104 -17.5q164 -19 233.5 -70.5z" />
    <glyph glyph-name="t" unicode="t" 
d="M80 700h690q11 0 19 -8t8 -19v-161q0 -11 -8 -19t-19 -8h-215v-458q0 -11 -8 -19t-19 -8h-206q-11 0 -19 8t-8 19v458h-215q-11 0 -19 8t-8 19v161q0 11 8 19t19 8z" />
    <glyph glyph-name="u" unicode="u" 
d="M425 -10q-168 0 -266.5 73t-98.5 228v382q0 11 8 19t19 8h209q11 0 19 -8t8 -19v-398q0 -41 27.5 -63t74.5 -22t74.5 22t27.5 63v398q0 11 8 19t19 8h209q11 0 19 -8t8 -19v-382q0 -155 -98.5 -228t-266.5 -73z" />
    <glyph glyph-name="v" unicode="v" 
d="M585 700h211q9 0 15.5 -6.5t6.5 -12.5t-1 -10l-230 -638q-11 -33 -45 -33h-233q-33 0 -44 30l-232 641q-1 4 -1 10t6.5 12.5t15.5 6.5h211q18 0 29.5 -10.5t15.5 -22.5l115 -383l115 383q9 33 45 33z" />
    <glyph glyph-name="w" unicode="w" 
d="M293 0h-140q-19 0 -31.5 11.5t-14.5 26.5l-87 637v3q0 9 6.5 15.5t15.5 6.5h172q20 0 32.5 -12t14.5 -30l32 -306l58 159q3 10 14.5 19.5t29.5 9.5h68q18 0 29.5 -9.5t14.5 -19.5l58 -159l32 306q2 18 14.5 30t32.5 12h172q9 0 15.5 -6.5t6.5 -15.5v-3l-87 -637
q-2 -15 -14.5 -26.5t-31.5 -11.5h-140q-18 0 -29.5 9t-14.5 18l-92 211l-92 -211q-3 -9 -14.5 -18t-29.5 -9z" />
    <glyph glyph-name="x" unicode="x" 
d="M796 33q3 -4 3 -12t-6.5 -14.5t-15.5 -6.5h-215q-27 0 -41 23l-97 149l-95 -149q-15 -23 -41 -23h-216q-9 0 -15.5 6.5t-6.5 14.5t3 12l221 338l-197 296q-3 4 -3 12t6.5 14.5t15.5 6.5h216q26 0 42 -25l78 -128l84 130q17 23 41 23h215q9 0 15.5 -6.5t6.5 -14.5t-3 -12
l-209 -309z" />
    <glyph glyph-name="y" unicode="y" 
d="M582 700h209q9 0 15.5 -6.5t6.5 -13.5t-3 -13l-252 -417v-223q0 -11 -8 -19t-19 -8h-213q-11 0 -19 8t-8 19v223l-251 417q-3 6 -3 13t6.5 13.5t15.5 6.5h211q28 0 41 -23l113 -198l116 196q15 25 42 25z" />
    <glyph glyph-name="z" unicode="z" 
d="M747 205q11 0 19 -8t8 -19v-151q0 -11 -8 -19t-19 -8h-642q-11 0 -19 8t-8 19v144q0 23 15 35l316 289h-283q-11 0 -19 8t-8 19v151q0 11 8 19t19 8h600q11 0 19 -8t8 -19v-143q0 -21 -13 -33l-312 -292h319z" />
    <glyph glyph-name="braceleft" unicode="{" 
d="M212 273v72q0 29 29 42l17 7q44 18 44 97.5t25.5 134.5t70.5 87q87 63 219 63q9 0 15.5 -6.5t6.5 -15.5v-147q0 -9 -6 -15t-13 -7q-59 -7 -83.5 -29t-24.5 -83.5t-23.5 -107.5t-59.5 -56q35 -10 59 -58.5t24 -107.5t24.5 -81t83.5 -29q7 -1 13 -7t6 -15v-147
q0 -9 -6.5 -15.5t-15.5 -6.5q-132 0 -219 63q-45 32 -70.5 87t-25.5 134.5t-44 97.5l-17 7q-29 13 -29 42z" />
    <glyph glyph-name="bar" unicode="|" 
d="M353 850h144q11 0 19 -8t8 -19v-945q0 -11 -8 -19t-19 -8h-144q-11 0 -19 8t-8 19v945q0 11 8 19t19 8z" />
    <glyph glyph-name="braceright" unicode="}" 
d="M638 345v-72q0 -29 -29 -42l-17 -7q-44 -18 -44 -97.5t-25.5 -134.5t-70.5 -87q-87 -63 -219 -63q-9 0 -15.5 6.5t-6.5 15.5v147q0 9 6 15t13 7q59 7 83.5 29t24.5 81t24 107.5t59 58.5q-36 10 -59.5 56t-23.5 107.5t-24.5 83.5t-83.5 29q-7 1 -13 7t-6 15v147
q0 9 6.5 15.5t15.5 6.5q132 0 219 -63q45 -32 70.5 -87t25.5 -134.5t44 -97.5l17 -7q29 -13 29 -42z" />
    <glyph glyph-name="asciitilde" unicode="~" 
d="M214.5 373.5q34.5 23.5 85 23.5t128 -21t124.5 -21t76 26q10 8 21.5 8.5t16 -8t4.5 -28.5v-98q0 -33 -34.5 -56.5t-85 -23.5t-128 21t-124.5 21t-76 -26q-10 -8 -21.5 -8.5t-16 8t-4.5 28.5v98q0 33 34.5 56.5z" />
    <glyph glyph-name="exclamdown" unicode="&#xa1;" 
d="M527 -150h-203q-12 0 -19.5 8.5t-7.5 22.5v376q0 13 7.5 20.5t19.5 7.5h202q11 0 19 -7.5t8 -17.5l1 -381q0 -13 -8 -21t-19 -8zM526 327h-202q-11 0 -19 8t-8 19v169q0 11 8 19t19 8h202q11 0 19 -8t8 -19v-169q0 -11 -8 -19t-19 -8z" />
    <glyph glyph-name="cent" unicode="&#xa2;" 
d="M490 -100h-169q-11 0 -19 8t-8 19v77q-88 23 -138.5 83.5t-50.5 149.5v46q0 89 50.5 149t138.5 84v67q0 11 8 19t19 8h169q11 0 19 -8t8 -19v-67q94 -24 147.5 -81.5t53.5 -98.5q0 -11 -8 -19t-19 -8h-215q-19 0 -29 20q-14 30 -37 30q-40 0 -40 -64v-70q0 -34 9 -49
t28 -15t26 6.5t14.5 25t28.5 18.5h215q11 0 19 -8t8 -19q0 -38 -52.5 -97t-148.5 -84v-76q0 -11 -8 -19t-19 -8z" />
    <glyph glyph-name="sterling" unicode="&#xa3;" 
d="M353 24q-34 11 -66.5 11t-48.5 -26q-5 -9 -15 -9h-154q-8 0 -13.5 5.5t-5.5 12.5q0 59 28.5 108t78.5 76q0 18 -4 48h-75q-11 0 -19 8t-8 19v112q0 11 8 19t19 8h35q-1 9 -1 30q0 135 88.5 200t242.5 65t252 -64.5t98 -181.5q0 -9 -6.5 -15.5t-15.5 -6.5h-204
q-29 0 -41 29q-18 44 -80 44q-34 0 -54 -18t-20 -45.5t1 -36.5h113q11 0 19 -8t8 -19v-112q0 -11 -8 -19t-19 -8h-88q0 -33 -2 -51q49 -17 109.5 -17t79 8.5t30 23t22.5 14.5h141q19 0 19 -19q0 -101 -67.5 -160t-172.5 -59t-204 34z" />
    <glyph glyph-name="currency" unicode="&#xa4;" 
d="M255 623q10 0 18 -8l51 -52q46 21 99 21t101 -21l53 53q10 9 19 9t17 -9l97 -97q8 -7 8 -17t-8 -17l-55 -55q20 -46 20 -98t-20 -98l54 -54q9 -9 9 -18t-10 -18l-96 -96q-8 -8 -17.5 -8t-16.5 8l-55 55q-46 -20 -97.5 -20t-98.5 19l-54 -54q-7 -7 -18 -7t-18 7l-94 96
q-9 8 -8.5 18t8.5 18l53 53q-21 45 -21 98t19 100l-53 54q-7 7 -7 17.5t6 17.5l97 95q8 8 18 8zM338 333q0 -36 25 -61.5t61 -25.5t62 25.5t26 61.5t-26 62t-61.5 26t-61 -26t-25.5 -62z" />
    <glyph glyph-name="yen" unicode="&#xa5;" 
d="M183 303h76l-219 364q-3 6 -3 13t6.5 13.5t15.5 6.5h211q28 0 41 -23l113 -198l116 196q15 25 42 25h209q9 0 15.5 -6.5t6.5 -13.5t-3 -13l-220 -364h78q11 0 19 -8t8 -19v-116q0 -11 -8 -19t-19 -8h-110v-106q0 -11 -8 -19t-19 -8h-213q-11 0 -19 8t-8 19v106h-108
q-11 0 -19 8t-8 19v116q0 11 8 19t19 8z" />
    <glyph glyph-name="brokenbar" unicode="&#xa6;" 
d="M353 830h144q11 0 19 -8t8 -19v-301q0 -11 -8 -19t-19 -8h-144q-11 0 -19 8t-8 19v301q0 11 8 19t19 8zM353 355h144q11 0 19 -8t8 -19v-301q0 -11 -8 -19t-19 -8h-144q-11 0 -19 8t-8 19v301q0 11 8 19t19 8z" />
    <glyph glyph-name="section" unicode="&#xa7;" 
d="M695 402q47 -47 47 -129.5t-74 -134.5q18 -34 18 -72q0 -89 -72 -146.5t-197.5 -57.5t-204.5 51t-79 104q0 23 24 23h180q14 0 31.5 -14t42.5 -14t25 27q0 11 -5 19t-33 19t-80 20q-115 26 -162 73t-47 129t74 135q-18 33 -18 72q0 89 72 146.5t197.5 57.5t204.5 -51
t79 -104q0 -23 -24 -23h-180q-14 0 -31.5 14t-42.5 14t-25 -27q0 -11 5 -19t33 -19t80 -20q115 -26 162 -73zM334 309q0 -21 27 -32t78 -23t57.5 -12t13.5 6t7 15q0 21 -27.5 32t-78.5 22.5t-57.5 11.5t-13 -5.5t-6.5 -14.5z" />
    <glyph glyph-name="copyright" unicode="&#xa9;" 
d="M65 350q0 149 105.5 254.5t254.5 105.5t254.5 -105.5t105.5 -254.5t-105.5 -254.5t-254.5 -105.5t-254.5 105.5t-105.5 254.5zM159 350q0 -114 76.5 -193.5t189.5 -79.5t189.5 79.5t76.5 193.5t-76.5 193.5t-189.5 79.5t-189.5 -79.5t-76.5 -193.5zM373 390v-80
q0 -42 51 -42q20 0 30 7t18 21q5 13 17 13h107q4 0 7.5 -3.5t3.5 -7.5q0 -48 -48 -87t-132.5 -39t-136 37.5t-51.5 111.5v58q0 74 51.5 111.5t136 37.5t132.5 -39t48 -87q0 -4 -3.5 -7.5t-7.5 -3.5h-107q-12 0 -17 13q-8 14 -18 21t-30 7q-51 0 -51 -42z" />
    <glyph glyph-name="ordfeminine" unicode="&#xaa;" 
d="M270 515q0 68 123 89l54 8q0 16 -2.5 21t-12.5 5t-19 -8t-17 -8h-97q-10 0 -10 12q0 25 38 50.5t106 25.5q147 0 147 -111v-146q0 -5 -4 -9.5t-10 -4.5h-99q-6 0 -10.5 4.5t-4.5 9.5v14q-22 -33 -71 -33t-80 23t-31 58zM415 510q34 0 34 40l-30 -8q-24 -5 -24 -18.5
t20 -13.5z" />
    <glyph glyph-name="guillemotleft" unicode="&#xab;" 
d="M420 306v46q0 16 14 28l213 202q6 5 14.5 5t14.5 -6t6 -15v-154q0 -9 -3 -13.5t-15 -15.5l-57 -54l57 -54q17 -20 18 -29v-154q0 -9 -6 -15t-14.5 -6t-14.5 5l-213 202q-14 12 -14 28zM147 306v46q0 16 14 28l213 202q6 5 14.5 5t14.5 -6t6 -15v-154q0 -9 -3 -13.5
t-15 -15.5l-57 -54l57 -54q17 -20 18 -29v-154q0 -9 -6 -15t-14.5 -6t-14.5 5l-213 202q-14 12 -14 28z" />
    <glyph glyph-name="logicalnot" unicode="&#xac;" 
d="M501 174v79h-312q-11 0 -19 8t-8 19v116q0 11 8 19t19 8h455q11 0 19 -8t8 -19v-222q0 -11 -8 -19t-19 -8h-116q-11 0 -19 8t-8 19z" />
    <glyph glyph-name="registered" unicode="&#xae;" 
d="M601 176h-112q-15 0 -21 13l-44 98h-42v-97q0 -14 -13 -14h-106q-6 0 -10 4.5t-4 9.5v320q0 13 14 13h192q68 0 107.5 -32t39.5 -93t-52 -92l61 -114l1 -4q0 -4 -3.5 -8t-7.5 -4zM382 431v-52h62q23 0 23 26t-23 26h-62zM65 350q0 149 105.5 254.5t254.5 105.5
t254.5 -105.5t105.5 -254.5t-105.5 -254.5t-254.5 -105.5t-254.5 105.5t-105.5 254.5zM159 350q0 -114 76.5 -193.5t189.5 -79.5t189.5 79.5t76.5 193.5t-76.5 193.5t-189.5 79.5t-189.5 -79.5t-76.5 -193.5z" />
    <glyph glyph-name="degree" unicode="&#xb0;" 
d="M583 392q-57 -52 -157.5 -52t-158 52t-57.5 132t58 133t158 53t157 -53t57 -133t-57 -132zM426 447q49 0 49 77.5t-49 77.5q-24 0 -37.5 -21t-13.5 -57q0 -77 51 -77z" />
    <glyph glyph-name="plusminus" unicode="&#xb1;" 
d="M322 194v136h-139q-11 0 -19 8t-8 19v139q0 11 8 19t19 8h139v131q0 11 8 19t19 8h152q11 0 19 -8t8 -19v-131h139q11 0 19 -8t8 -19v-139q0 -11 -8 -19t-19 -8h-139v-136q0 -11 -8 -19t-19 -8h-152q-11 0 -19 8t-8 19zM183 120h484q11 0 19 -8t8 -19v-66q0 -11 -8 -19
t-19 -8h-484q-11 0 -19 8t-8 19v66q0 11 8 19t19 8z" />
    <glyph glyph-name="twosuperior" unicode="&#xb2;" 
d="M582 459q5 0 9.5 -4t4.5 -9v-82q0 -6 -4.5 -10t-9.5 -4h-313q-5 0 -9.5 4t-4.5 10v67q0 20 14 28q15 10 39.5 25t37.5 23.5t31 20t27.5 19t19.5 15.5q18 16 18 28q0 20 -20 20q-17 0 -23 -12q-2 -4 -4 -11.5t-3 -8.5q-2 -6 -14 -6h-109q-12 0 -12 13q0 58 45 91.5
t124 33.5q156 0 156 -114q0 -46 -68 -92q-9 -7 -32.5 -22.5t-33.5 -22.5h134z" />
    <glyph glyph-name="threesuperior" unicode="&#xb3;" 
d="M606 456q0 -55 -51 -85.5t-135.5 -30.5t-130 33t-45.5 73q0 11 11 11h116q6 0 16 -9t43.5 -9t33.5 23q0 21 -40 21h-67q-14 0 -14 14v41q0 16 11 21l75 37h-148q-14 0 -14 13v77q0 14 14 14h288q14 0 14 -14v-64q0 -12 -11 -21l-63 -42q97 -22 97 -103z" />
    <glyph glyph-name="mu" unicode="&#xb5;" 
d="M128 -172v665q0 11 8 19t19 8h196q11 0 19 -8t8 -19v-269q0 -55 50 -55t50 55v269q0 11 8 19t19 8h190q11 0 19 -8t8 -19v-466q0 -11 -8 -19t-19 -8h-175q-11 0 -19 8t-8 19v33q-34 -50 -115 -60v-172q0 -11 -8 -19t-19 -8h-196q-11 0 -19 8t-8 19z" />
    <glyph glyph-name="paragraph" unicode="&#xb6;" 
d="M362 700h292q11 0 19 -8t8 -19v-746q0 -11 -8 -19t-19 -8h-64q-11 0 -19 8t-8 19v655h-79v-655q0 -11 -8 -19t-19 -8h-64q-11 0 -19 8t-8 19v379q-82 0 -139.5 57.5t-57.5 139t56.5 139.5t136.5 58z" />
    <glyph glyph-name="periodcentered" unicode="&#xb7;" 
d="M271 434q0 64 45 109t109 45t109 -45t45 -109t-45 -109t-109 -45t-109 45t-45 109z" />
    <glyph glyph-name="onesuperior" unicode="&#xb9;" 
d="M503 687v-227h81q14 0 14 -14v-82q0 -5 -4 -9.5t-10 -4.5h-313q-5 0 -9 4.5t-4 9.5v82q0 14 13 14h95v104l-50 -32q-11 -8 -19 4l-44 69q-2 4 -2 9t7 11l113 73q3 2 8 2h110q14 0 14 -13z" />
    <glyph glyph-name="ordmasculine" unicode="&#xba;" 
d="M266 554v36q0 58 43.5 89t115.5 31t115.5 -31t43.5 -89v-36q0 -59 -41.5 -89.5t-117.5 -30.5t-117.5 30.5t-41.5 89.5zM448 550v44q0 34 -23 34t-23 -34v-44q0 -20 5 -27t18 -7q23 0 23 34z" />
    <glyph glyph-name="guillemotright" unicode="&#xbb;" 
d="M430 352v-46q0 -16 -14 -28l-213 -202q-6 -5 -14.5 -5t-14.5 6t-6 15v154q0 9 3 13.5t15 15.5l57 54l-57 54q-17 20 -18 29v154q0 9 6 15t14.5 6t14.5 -5l213 -202q14 -12 14 -28zM703 352v-46q0 -16 -14 -28l-213 -202q-6 -5 -14.5 -5t-14.5 6t-6 15v154q0 9 3 13.5
t15 15.5l57 54l-57 54q-17 20 -18 29v154q0 9 6 15t14.5 6t14.5 -5l213 -202q14 -12 14 -28z" />
    <glyph glyph-name="onequarter" unicode="&#xbc;" 
d="M632 700h74q24 0 24 -20q0 -6 -4 -11l-494 -650q-14 -19 -36 -19h-74q-24 0 -24 20q0 6 4 11l494 650q14 19 36 19zM295 687v-323q0 -5 -4 -9.5t-10 -4.5h-110q-5 0 -9 4.5t-4 9.5v200l-50 -32q-11 -8 -19 4l-44 69q-2 4 -2 9t7 11l113 73q3 2 8 2h110q14 0 14 -13z
M752 161h44q14 0 14 -14v-81q0 -13 -13 -13h-45v-39q0 -5 -4 -9.5t-10 -4.5h-108q-5 0 -9 4.5t-4 9.5v39h-171q-13 0 -13 13v81q0 9 5 16l145 179q6 8 19 8h136q14 0 14 -13v-176zM620 156v71l-58 -71h58z" />
    <glyph glyph-name="onehalf" unicode="&#xbd;" 
d="M622 700h74q24 0 24 -20q0 -6 -4 -11l-494 -650q-14 -19 -36 -19h-74q-24 0 -24 20q0 6 4 11l494 650q14 19 36 19zM285 687v-323q0 -5 -4 -9.5t-10 -4.5h-110q-5 0 -9 4.5t-4 9.5v200l-50 -32q-11 -8 -19 4l-44 69q-2 4 -2 9t7 11l113 73q3 2 8 2h110q14 0 14 -13z
M805 109q5 0 9.5 -4t4.5 -9v-82q0 -6 -4.5 -10t-9.5 -4h-313q-5 0 -9.5 4t-4.5 10v67q0 20 14 28q15 10 39.5 25t37.5 23.5t31 20t27.5 19t19.5 15.5q18 16 18 28q0 20 -20 20q-17 0 -23 -12q-2 -4 -4 -11.5t-3 -8.5q-2 -6 -14 -6h-109q-12 0 -12 13q0 58 45 91.5t124 33.5
q156 0 156 -114q0 -46 -68 -92q-9 -7 -32.5 -22.5t-33.5 -22.5h134z" />
    <glyph glyph-name="threequarters" unicode="&#xbe;" 
d="M643 700h74q24 0 24 -20q0 -6 -4 -11l-494 -650q-14 -19 -36 -19h-74q-24 0 -24 20q0 6 4 11l494 650q14 19 36 19zM763 161h44q14 0 14 -14v-81q0 -13 -13 -13h-45v-39q0 -5 -4 -9.5t-10 -4.5h-108q-5 0 -9 4.5t-4 9.5v39h-171q-13 0 -13 13v81q0 9 5 16l145 179
q6 8 19 8h136q14 0 14 -13v-176zM631 156v71l-58 -71h58zM362 456q0 -55 -51 -85.5t-135.5 -30.5t-130 33t-45.5 73q0 11 11 11h116q6 0 16 -9t43.5 -9t33.5 23q0 21 -40 21h-67q-14 0 -14 14v41q0 16 11 21l75 37h-148q-14 0 -14 13v77q0 14 14 14h288q14 0 14 -14v-64
q0 -12 -11 -21l-63 -42q97 -22 97 -103z" />
    <glyph glyph-name="questiondown" unicode="&#xbf;" 
d="M564 -138q-68 -21 -155.5 -21t-153 20t-97.5 51q-60 58 -60 117q0 40 20.5 75.5t46 57t57 48.5t43 44t14.5 20q10 12 24 12h234q7 0 13 -5.5t6 -11.5t-1 -9q-10 -31 -39 -61t-58 -49q-75 -49 -75 -76q0 -37 44 -37q25 0 38 9.5t15.5 21.5t12.5 21.5t28 9.5h206
q11 0 18 -9t7 -21v-1q0 -82 -80 -151q-40 -34 -108 -55zM522 328h-203q-11 0 -19 8t-8 19v169q0 11 8 19t19 8h203q11 0 19 -8t8 -19v-169q0 -11 -8 -19t-19 -8z" />
    <glyph glyph-name="Agrave" unicode="&#xc0;" 
d="M620 0q-32 0 -45 34l-25 70h-244l-25 -70q-13 -34 -45 -34h-189q-9 0 -15.5 6.5t-6.5 12.5t1 9l218 639q9 33 45 33h278q36 0 45 -33l218 -639q1 -3 1 -9t-6.5 -12.5t-15.5 -6.5h-189zM428 507l-71 -208h142zM496 850h116q10 0 16.5 -6.5t6.5 -16.5v-73q0 -10 -6.5 -16.5
t-16.5 -6.5h-116q-10 0 -16.5 6.5t-6.5 16.5v73q0 10 6.5 16.5t16.5 6.5zM245 850h116q10 0 16.5 -6.5t6.5 -16.5v-73q0 -10 -6.5 -16.5t-16.5 -6.5h-116q-10 0 -16.5 6.5t-6.5 16.5v73q0 10 6.5 16.5t16.5 6.5z" />
    <glyph glyph-name="Aacute" unicode="&#xc1;" 
d="M620 0q-32 0 -45 34l-25 70h-244l-25 -70q-13 -34 -45 -34h-189q-9 0 -15.5 6.5t-6.5 12.5t1 9l218 639q9 33 45 33h278q36 0 45 -33l218 -639q1 -3 1 -9t-6.5 -12.5t-15.5 -6.5h-189zM428 507l-71 -208h142zM602 850q19 0 19 -20q0 -7 -5 -12l-95 -80q-9 -7 -28 -7h-133
q-16 0 -16 16q0 8 5 13l58 71q14 17 37 19h158z" />
    <glyph glyph-name="Acircumflex" unicode="&#xc2;" 
d="M620 0q-32 0 -45 34l-25 70h-244l-25 -70q-13 -34 -45 -34h-189q-9 0 -15.5 6.5t-6.5 12.5t1 9l218 639q9 33 45 33h278q36 0 45 -33l218 -639q1 -3 1 -9t-6.5 -12.5t-15.5 -6.5h-189zM428 507l-71 -208h142zM330 731h-81q-16 0 -16 16q0 9 8 14l83 70q27 19 47 19h112
q20 0 47 -19l83 -70q8 -5 8 -14q0 -16 -16 -16h-81q-18 0 -40 7l-57 22l-57 -22q-22 -7 -40 -7z" />
    <glyph glyph-name="Atilde" unicode="&#xc3;" 
d="M620 0q-32 0 -45 34l-25 70h-244l-25 -70q-13 -34 -45 -34h-189q-9 0 -15.5 6.5t-6.5 12.5t1 9l218 639q9 33 45 33h278q36 0 45 -33l218 -639q1 -3 1 -9t-6.5 -12.5t-15.5 -6.5h-189zM428 507l-71 -208h142zM487 730q-28 0 -61 12t-48 12t-26.5 -9.5t-22.5 -9.5h-84
q-8 0 -13.5 5.5t-5.5 15t6.5 24.5t20 33t42.5 30t62 12t66 -12t47.5 -12t26.5 9.5t23 9.5h84q19 0 19 -19q0 -30 -32.5 -65.5t-103.5 -35.5z" />
    <glyph glyph-name="Adieresis" unicode="&#xc4;" 
d="M236 0h-189q-9 0 -15.5 6.5t-6.5 12.5t1 9l218 639q9 33 45 33h278q36 0 45 -33l218 -639q1 -3 1 -9t-6.5 -12.5t-15.5 -6.5h-189q-32 0 -45 34l-25 70h-244l-25 -70q-13 -34 -45 -34zM499 299l-71 208l-71 -208h142zM508 747q0 -16 -16 -16h-133q-19 0 -28 7l-95 80
q-5 5 -5 12q0 20 19 20h158q23 -2 37 -19l58 -71q5 -5 5 -13z" />
    <glyph glyph-name="Aring" unicode="&#xc5;" 
d="M620 0q-32 0 -45 34l-25 70h-244l-25 -70q-13 -34 -45 -34h-189q-9 0 -15.5 6.5t-6.5 12.5t1 9l218 639q9 33 45 33h278q36 0 45 -33l218 -639q1 -3 1 -9t-6.5 -12.5t-15.5 -6.5h-189zM428 507l-71 -208h142zM393 787q0 -20 30.5 -20t30.5 20t-30.5 20t-30.5 -20z
M323 787q0 31 29 49.5t72 18.5t72 -18.5t29 -49.5t-29 -49.5t-72 -18.5t-72 18.5t-29 49.5z" />
    <glyph glyph-name="AE" unicode="&#xc6;" 
d="M210 0h-179q-9 0 -15.5 6.5t-6.5 12.5t1 9l228 639q11 33 45 33h521q11 0 19 -8t8 -19v-141q0 -11 -8 -19t-19 -8h-132v-63h108q11 0 19 -8t8 -19v-130q0 -11 -8 -19t-19 -8h-108v-63h142q11 0 19 -8t8 -19v-141q0 -11 -8 -19t-19 -8h-365q-11 0 -19 8t-8 19v77h-142
l-25 -70q-13 -34 -45 -34zM422 299v208h-20l-71 -208h91z" />
    <glyph glyph-name="Ccedilla" unicode="&#xc7;" 
d="M333 430v-160q0 -41 27.5 -63t72 -22t64.5 14t33.5 41t35.5 27h216q9 0 15.5 -6.5t6.5 -15.5q0 -88 -82 -165q-41 -37 -108.5 -61.5t-152.5 -27.5l-6 -17q9 4 43 4t59.5 -16t25.5 -47.5t-35.5 -48t-83 -16.5t-85.5 13t-38 37q0 11 13 11h61q11 0 22 -6.5t35 -6.5t24 19
q0 17 -28 17q-14 0 -27 -4.5t-21 -4.5h-44q-15 0 -15 13q0 3 2 9l15 46q-142 12 -228.5 87t-86.5 211v118q0 101 51 171q96 130 321 130q91 0 164 -23.5t117 -61.5q88 -77 88 -170q0 -9 -6.5 -15.5t-15.5 -6.5h-216q-22 0 -35.5 27t-33.5 41t-64.5 14t-72 -22t-27.5 -63z
" />
    <glyph glyph-name="Egrave" unicode="&#xc8;" 
d="M360 195h399q11 0 19 -8t8 -19v-141q0 -11 -8 -19t-19 -8h-632q-11 0 -19 8t-8 19v646q0 11 8 19t19 8h622q11 0 19 -8t8 -19v-141q0 -11 -8 -19t-19 -8h-389v-63h334q11 0 19 -8t8 -19v-130q0 -11 -8 -19t-19 -8h-334v-63zM551 747q0 -16 -16 -16h-133q-19 0 -28 7
l-95 80q-5 5 -5 12q0 20 19 20h158q23 -2 37 -19l58 -71q5 -5 5 -13z" />
    <glyph glyph-name="Eacute" unicode="&#xc9;" 
d="M601 854q19 0 19 -20q0 -7 -5 -12l-95 -80q-9 -7 -28 -7h-133q-16 0 -16 16q0 8 5 13l58 71q14 17 37 19h158zM360 195h399q11 0 19 -8t8 -19v-141q0 -11 -8 -19t-19 -8h-632q-11 0 -19 8t-8 19v646q0 11 8 19t19 8h622q11 0 19 -8t8 -19v-141q0 -11 -8 -19t-19 -8h-389
v-63h334q11 0 19 -8t8 -19v-130q0 -11 -8 -19t-19 -8h-334v-63z" />
    <glyph glyph-name="Ecircumflex" unicode="&#xca;" 
d="M360 195h399q11 0 19 -8t8 -19v-141q0 -11 -8 -19t-19 -8h-632q-11 0 -19 8t-8 19v646q0 11 8 19t19 8h622q11 0 19 -8t8 -19v-141q0 -11 -8 -19t-19 -8h-389v-63h334q11 0 19 -8t8 -19v-130q0 -11 -8 -19t-19 -8h-334v-63zM327 731h-81q-16 0 -16 16q0 9 8 14l83 70
q27 19 47 19h112q20 0 47 -19l83 -70q8 -5 8 -14q0 -16 -16 -16h-81q-18 0 -40 7l-57 22l-57 -22q-22 -7 -40 -7z" />
    <glyph glyph-name="Edieresis" unicode="&#xcb;" 
d="M360 195h399q11 0 19 -8t8 -19v-141q0 -11 -8 -19t-19 -8h-632q-11 0 -19 8t-8 19v646q0 11 8 19t19 8h622q11 0 19 -8t8 -19v-141q0 -11 -8 -19t-19 -8h-389v-63h334q11 0 19 -8t8 -19v-130q0 -11 -8 -19t-19 -8h-334v-63zM500 850h116q10 0 16.5 -6.5t6.5 -16.5v-73
q0 -10 -6.5 -16.5t-16.5 -6.5h-116q-10 0 -16.5 6.5t-6.5 16.5v73q0 10 6.5 16.5t16.5 6.5zM249 850h116q10 0 16.5 -6.5t6.5 -16.5v-73q0 -10 -6.5 -16.5t-16.5 -6.5h-116q-10 0 -16.5 6.5t-6.5 16.5v73q0 10 6.5 16.5t16.5 6.5z" />
    <glyph glyph-name="Igrave" unicode="&#xcc;" 
d="M742 495h-181v-290h181q11 0 19 -8t8 -19v-151q0 -11 -8 -19t-19 -8h-634q-11 0 -19 8t-8 19v151q0 11 8 19t19 8h183v290h-183q-11 0 -19 8t-8 19v151q0 11 8 19t19 8h634q11 0 19 -8t8 -19v-151q0 -11 -8 -19t-19 -8zM537 747q0 -16 -16 -16h-133q-19 0 -28 7l-95 80
q-5 5 -5 12q0 20 19 20h158q23 -2 37 -19l58 -71q5 -5 5 -13z" />
    <glyph glyph-name="Iacute" unicode="&#xcd;" 
d="M742 495h-181v-290h181q11 0 19 -8t8 -19v-151q0 -11 -8 -19t-19 -8h-634q-11 0 -19 8t-8 19v151q0 11 8 19t19 8h183v290h-183q-11 0 -19 8t-8 19v151q0 11 8 19t19 8h634q11 0 19 -8t8 -19v-151q0 -11 -8 -19t-19 -8zM602 850q19 0 19 -20q0 -7 -5 -12l-95 -80
q-9 -7 -28 -7h-133q-16 0 -16 16q0 8 5 13l58 71q14 17 37 19h158z" />
    <glyph glyph-name="Icircumflex" unicode="&#xce;" 
d="M742 495h-181v-290h181q11 0 19 -8t8 -19v-151q0 -11 -8 -19t-19 -8h-634q-11 0 -19 8t-8 19v151q0 11 8 19t19 8h183v290h-183q-11 0 -19 8t-8 19v151q0 11 8 19t19 8h634q11 0 19 -8t8 -19v-151q0 -11 -8 -19t-19 -8zM328 731h-81q-16 0 -16 16q0 9 8 14l83 70
q27 19 47 19h112q20 0 47 -19l83 -70q8 -5 8 -14q0 -16 -16 -16h-81q-18 0 -40 7l-57 22l-57 -22q-22 -7 -40 -7z" />
    <glyph glyph-name="Idieresis" unicode="&#xcf;" 
d="M742 495h-181v-290h181q11 0 19 -8t8 -19v-151q0 -11 -8 -19t-19 -8h-634q-11 0 -19 8t-8 19v151q0 11 8 19t19 8h183v290h-183q-11 0 -19 8t-8 19v151q0 11 8 19t19 8h634q11 0 19 -8t8 -19v-151q0 -11 -8 -19t-19 -8zM492 850h116q10 0 16.5 -6.5t6.5 -16.5v-73
q0 -10 -6.5 -16.5t-16.5 -6.5h-116q-10 0 -16.5 6.5t-6.5 16.5v73q0 10 6.5 16.5t16.5 6.5zM241 850h116q10 0 16.5 -6.5t6.5 -16.5v-73q0 -10 -6.5 -16.5t-16.5 -6.5h-116q-10 0 -16.5 6.5t-6.5 16.5v73q0 10 6.5 16.5t16.5 6.5z" />
    <glyph glyph-name="Eth" unicode="&#xd0;" 
d="M103 700h319q110 0 191 -29t131 -98t50 -172v-102q0 -160 -108 -233q-99 -66 -264 -66h-319q-11 0 -19 8t-8 19v247h-49q-11 0 -19 8t-8 19v101q0 11 8 19t19 8h49v244q0 11 8 19t19 8zM336 505v-76h85q11 0 19 -8t8 -19v-101q0 -11 -8 -19t-19 -8h-85v-79h91
q47 0 74.5 22.5t27.5 63.5v138q0 41 -27.5 63.5t-74.5 22.5h-91z" />
    <glyph glyph-name="Ntilde" unicode="&#xd1;" 
d="M556.5 745q-28.5 -12 -61.5 -12t-66 12t-53 12t-29 -12q-5 -9 -15 -9h-84q-8 0 -13.5 5.5t-5.5 15t6.5 25t20 33.5t42.5 30.5t62 12.5t66 -12t53.5 -12t27 10.5t16.5 10.5h84q19 0 19 -19q0 -25 -27 -60q-14 -19 -42.5 -31zM552 700h186q11 0 19 -8t8 -19v-646
q0 -11 -8 -19t-19 -8h-161q-24 0 -40 21l-218 278v-272q0 -11 -8 -19t-19 -8h-186q-11 0 -19 8t-8 19v646q0 11 8 19t19 8h162q24 0 39 -20l218 -301v294q0 11 8 19t19 8z" />
    <glyph glyph-name="Ograve" unicode="&#xd2;" 
d="M797 411v-122q0 -103 -50 -172t-131 -98t-191 -29t-191 29t-131 98t-50 174v118q0 151 103.5 226t268.5 75t268.5 -75t103.5 -224zM323 430v-160q0 -41 27.5 -63t74.5 -22t74.5 22.5t27.5 63.5v158q0 41 -27.5 63.5t-74.5 22.5t-74.5 -22t-27.5 -63zM522 747
q0 -16 -16 -16h-133q-19 0 -28 7l-95 80q-5 5 -5 12q0 20 19 20h158q23 -2 37 -19l58 -71q5 -5 5 -13z" />
    <glyph glyph-name="Oacute" unicode="&#xd3;" 
d="M797 411v-122q0 -103 -50 -172t-131 -98t-191 -29t-191 29t-131 98t-50 174v118q0 151 103.5 226t268.5 75t268.5 -75t103.5 -224zM323 430v-160q0 -41 27.5 -63t74.5 -22t74.5 22.5t27.5 63.5v158q0 41 -27.5 63.5t-74.5 22.5t-74.5 -22t-27.5 -63zM582 850q19 0 19 -20
q0 -7 -5 -12l-95 -80q-9 -7 -28 -7h-133q-16 0 -16 16q0 8 5 13l58 71q14 17 37 19h158z" />
    <glyph glyph-name="Ocircumflex" unicode="&#xd4;" 
d="M797 411v-122q0 -103 -50 -172t-131 -98t-191 -29t-191 29t-131 98t-50 174v118q0 151 103.5 226t268.5 75t268.5 -75t103.5 -224zM323 430v-160q0 -41 27.5 -63t74.5 -22t74.5 22.5t27.5 63.5v158q0 41 -27.5 63.5t-74.5 22.5t-74.5 -22t-27.5 -63zM329 731h-81
q-16 0 -16 16q0 9 8 14l83 70q27 19 47 19h112q20 0 47 -19l83 -70q8 -5 8 -14q0 -16 -16 -16h-81q-18 0 -40 7l-57 22l-57 -22q-22 -7 -40 -7z" />
    <glyph glyph-name="Otilde" unicode="&#xd5;" 
d="M560.5 745q-28.5 -12 -61.5 -12t-66 12t-53 12t-29 -12q-5 -9 -15 -9h-84q-8 0 -13.5 5.5t-5.5 15t6.5 25t20 33.5t42.5 30.5t62 12.5t66 -12t53.5 -12t27 10.5t16.5 10.5h84q19 0 19 -19q0 -25 -27 -60q-14 -19 -42.5 -31zM797 411v-122q0 -103 -50 -172t-131 -98
t-191 -29t-191 29t-131 98t-50 174v118q0 151 103.5 226t268.5 75t268.5 -75t103.5 -224zM323 430v-160q0 -41 27.5 -63t74.5 -22t74.5 22.5t27.5 63.5v158q0 41 -27.5 63.5t-74.5 22.5t-74.5 -22t-27.5 -63z" />
    <glyph glyph-name="Odieresis" unicode="&#xd6;" 
d="M493 854h116q10 0 16.5 -6.5t6.5 -16.5v-73q0 -10 -6.5 -16.5t-16.5 -6.5h-116q-10 0 -16.5 6.5t-6.5 16.5v73q0 10 6.5 16.5t16.5 6.5zM242 854h116q10 0 16.5 -6.5t6.5 -16.5v-73q0 -10 -6.5 -16.5t-16.5 -6.5h-116q-10 0 -16.5 6.5t-6.5 16.5v73q0 10 6.5 16.5
t16.5 6.5zM797 411v-122q0 -103 -50 -172t-131 -98t-191 -29t-191 29t-131 98t-50 174v118q0 151 103.5 226t268.5 75t268.5 -75t103.5 -224zM323 430v-160q0 -41 27.5 -63t74.5 -22t74.5 22.5t27.5 63.5v158q0 41 -27.5 63.5t-74.5 22.5t-74.5 -22t-27.5 -63z" />
    <glyph glyph-name="multiply" unicode="&#xd7;" 
d="M707 223q10 -9 10 -20.5t-7 -18.5l-96 -109q-8 -9 -19.5 -9t-18.5 7l-151 132l-151 -132q-7 -7 -18.5 -7t-19.5 9l-96 109q-7 7 -7 18.5t10 20.5l130 114l-130 114q-10 9 -10 19.5t6 18.5l96 110q7 9 19 9t19 -7l152 -133l152 133q7 7 19 7t19 -9l96 -110q6 -8 6 -18.5
t-10 -19.5l-131 -114z" />
    <glyph glyph-name="Oslash" unicode="&#xd8;" 
d="M797 415v-126q0 -103 -50 -172t-131 -98t-191 -29q-253 0 -336 148l-57 -22q-8 -3 -14 -3t-12 6t-6 15v108q0 25 22 33l31 12v123q0 151 103.5 226t268.5 75q114 0 202 -37t132 -111l59 23q8 3 14 3t12 -6t6 -15v-108q0 -25 -22 -33zM425 185q47 0 74.5 22.5t27.5 63.5
v38l-196 -77q21 -47 94 -47zM323 431v-39l195 77q-23 47 -93 47q-47 0 -74.5 -22t-27.5 -63z" />
    <glyph glyph-name="Ugrave" unicode="&#xd9;" 
d="M425 -10q-168 0 -266.5 73t-98.5 228v382q0 11 8 19t19 8h209q11 0 19 -8t8 -19v-398q0 -41 27.5 -63t74.5 -22t74.5 22t27.5 63v398q0 11 8 19t19 8h209q11 0 19 -8t8 -19v-382q0 -155 -98.5 -228t-266.5 -73zM517 747q0 -16 -16 -16h-133q-19 0 -28 7l-95 80
q-5 5 -5 12q0 20 19 20h158q23 -2 37 -19l58 -71q5 -5 5 -13z" />
    <glyph glyph-name="Uacute" unicode="&#xda;" 
d="M425 -10q-168 0 -266.5 73t-98.5 228v382q0 11 8 19t19 8h209q11 0 19 -8t8 -19v-398q0 -41 27.5 -63t74.5 -22t74.5 22t27.5 63v398q0 11 8 19t19 8h209q11 0 19 -8t8 -19v-382q0 -155 -98.5 -228t-266.5 -73zM592 850q19 0 19 -20q0 -7 -5 -12l-95 -80q-9 -7 -28 -7
h-133q-16 0 -16 16q0 8 5 13l58 71q14 17 37 19h158z" />
    <glyph glyph-name="Ucircumflex" unicode="&#xdb;" 
d="M425 -10q-168 0 -266.5 73t-98.5 228v382q0 11 8 19t19 8h209q11 0 19 -8t8 -19v-398q0 -41 27.5 -63t74.5 -22t74.5 22t27.5 63v398q0 11 8 19t19 8h209q11 0 19 -8t8 -19v-382q0 -155 -98.5 -228t-266.5 -73zM328 731h-81q-16 0 -16 16q0 9 8 14l83 70q27 19 47 19h112
q20 0 47 -19l83 -70q8 -5 8 -14q0 -16 -16 -16h-81q-18 0 -40 7l-57 22l-57 -22q-22 -7 -40 -7z" />
    <glyph glyph-name="Udieresis" unicode="&#xdc;" 
d="M492 854h116q10 0 16.5 -6.5t6.5 -16.5v-73q0 -10 -6.5 -16.5t-16.5 -6.5h-116q-10 0 -16.5 6.5t-6.5 16.5v73q0 10 6.5 16.5t16.5 6.5zM241 854h116q10 0 16.5 -6.5t6.5 -16.5v-73q0 -10 -6.5 -16.5t-16.5 -6.5h-116q-10 0 -16.5 6.5t-6.5 16.5v73q0 10 6.5 16.5
t16.5 6.5zM425 -10q-168 0 -266.5 73t-98.5 228v382q0 11 8 19t19 8h209q11 0 19 -8t8 -19v-398q0 -41 27.5 -63t74.5 -22t74.5 22t27.5 63v398q0 11 8 19t19 8h209q11 0 19 -8t8 -19v-382q0 -155 -98.5 -228t-266.5 -73z" />
    <glyph glyph-name="Yacute" unicode="&#xdd;" 
d="M582 700h209q9 0 15.5 -6.5t6.5 -13.5t-3 -13l-252 -417v-223q0 -11 -8 -19t-19 -8h-213q-11 0 -19 8t-8 19v223l-251 417q-3 6 -3 13t6.5 13.5t15.5 6.5h211q28 0 41 -23l113 -198l116 196q15 25 42 25zM584 850q19 0 19 -20q0 -7 -5 -12l-95 -80q-9 -7 -28 -7h-133
q-16 0 -16 16q0 8 5 13l58 71q14 17 37 19h158z" />
    <glyph glyph-name="Thorn" unicode="&#xde;" 
d="M108 701h215q11 0 19 -8t8 -19v-64h132q142 0 225 -69t83 -177t-70 -171.5t-238 -63.5h-132v-102q0 -11 -8 -19t-19 -8h-215q-11 0 -19 8t-8 19v647q0 11 8 19t19 8zM351 424v-110h127q24 0 38 14t14 39t-14 41t-38 16h-127z" />
    <glyph glyph-name="agrave" unicode="&#xe0;" 
d="M236 0h-189q-9 0 -15.5 6.5t-6.5 12.5t1 9l218 639q9 33 45 33h278q36 0 45 -33l218 -639q1 -3 1 -9t-6.5 -12.5t-15.5 -6.5h-189q-32 0 -45 34l-25 70h-244l-25 -70q-13 -34 -45 -34zM499 299l-71 208l-71 -208h142zM508 747q0 -16 -16 -16h-133q-19 0 -28 7l-95 80
q-5 5 -5 12q0 20 19 20h158q23 -2 37 -19l58 -71q5 -5 5 -13z" />
    <glyph glyph-name="aacute" unicode="&#xe1;" 
d="M620 0q-32 0 -45 34l-25 70h-244l-25 -70q-13 -34 -45 -34h-189q-9 0 -15.5 6.5t-6.5 12.5t1 9l218 639q9 33 45 33h278q36 0 45 -33l218 -639q1 -3 1 -9t-6.5 -12.5t-15.5 -6.5h-189zM428 507l-71 -208h142zM602 850q19 0 19 -20q0 -7 -5 -12l-95 -80q-9 -7 -28 -7h-133
q-16 0 -16 16q0 8 5 13l58 71q14 17 37 19h158z" />
    <glyph glyph-name="acircumflex" unicode="&#xe2;" 
d="M620 0q-32 0 -45 34l-25 70h-244l-25 -70q-13 -34 -45 -34h-189q-9 0 -15.5 6.5t-6.5 12.5t1 9l218 639q9 33 45 33h278q36 0 45 -33l218 -639q1 -3 1 -9t-6.5 -12.5t-15.5 -6.5h-189zM428 507l-71 -208h142zM330 731h-81q-16 0 -16 16q0 9 8 14l83 70q27 19 47 19h112
q20 0 47 -19l83 -70q8 -5 8 -14q0 -16 -16 -16h-81q-18 0 -40 7l-57 22l-57 -22q-22 -7 -40 -7z" />
    <glyph glyph-name="atilde" unicode="&#xe3;" 
d="M620 0q-32 0 -45 34l-25 70h-244l-25 -70q-13 -34 -45 -34h-189q-9 0 -15.5 6.5t-6.5 12.5t1 9l218 639q9 33 45 33h278q36 0 45 -33l218 -639q1 -3 1 -9t-6.5 -12.5t-15.5 -6.5h-189zM428 507l-71 -208h142zM487 730q-28 0 -61 12t-48 12t-26.5 -9.5t-22.5 -9.5h-84
q-8 0 -13.5 5.5t-5.5 15t6.5 24.5t20 33t42.5 30t62 12t66 -12t47.5 -12t26.5 9.5t23 9.5h84q19 0 19 -19q0 -30 -32.5 -65.5t-103.5 -35.5z" />
    <glyph glyph-name="adieresis" unicode="&#xe4;" 
d="M620 0q-32 0 -45 34l-25 70h-244l-25 -70q-13 -34 -45 -34h-189q-9 0 -15.5 6.5t-6.5 12.5t1 9l218 639q9 33 45 33h278q36 0 45 -33l218 -639q1 -3 1 -9t-6.5 -12.5t-15.5 -6.5h-189zM428 507l-71 -208h142zM496 850h116q10 0 16.5 -6.5t6.5 -16.5v-73q0 -10 -6.5 -16.5
t-16.5 -6.5h-116q-10 0 -16.5 6.5t-6.5 16.5v73q0 10 6.5 16.5t16.5 6.5zM245 850h116q10 0 16.5 -6.5t6.5 -16.5v-73q0 -10 -6.5 -16.5t-16.5 -6.5h-116q-10 0 -16.5 6.5t-6.5 16.5v73q0 10 6.5 16.5t16.5 6.5z" />
    <glyph glyph-name="aring" unicode="&#xe5;" 
d="M620 0q-32 0 -45 34l-25 70h-244l-25 -70q-13 -34 -45 -34h-189q-9 0 -15.5 6.5t-6.5 12.5t1 9l218 639q9 33 45 33h278q36 0 45 -33l218 -639q1 -3 1 -9t-6.5 -12.5t-15.5 -6.5h-189zM428 507l-71 -208h142zM393 787q0 -20 30.5 -20t30.5 20t-30.5 20t-30.5 -20z
M323 787q0 31 29 49.5t72 18.5t72 -18.5t29 -49.5t-29 -49.5t-72 -18.5t-72 18.5t-29 49.5z" />
    <glyph glyph-name="ae" unicode="&#xe6;" 
d="M210 0h-179q-9 0 -15.5 6.5t-6.5 12.5t1 9l228 639q11 33 45 33h521q11 0 19 -8t8 -19v-141q0 -11 -8 -19t-19 -8h-132v-63h108q11 0 19 -8t8 -19v-130q0 -11 -8 -19t-19 -8h-108v-63h142q11 0 19 -8t8 -19v-141q0 -11 -8 -19t-19 -8h-365q-11 0 -19 8t-8 19v77h-142
l-25 -70q-13 -34 -45 -34zM422 299v208h-20l-71 -208h91z" />
    <glyph glyph-name="ccedilla" unicode="&#xe7;" 
d="M333 430v-160q0 -41 27.5 -63t72 -22t64.5 14t33.5 41t35.5 27h216q9 0 15.5 -6.5t6.5 -15.5q0 -88 -82 -165q-41 -37 -108.5 -61.5t-152.5 -27.5l-6 -17q9 4 43 4t59.5 -16t25.5 -47.5t-35.5 -48t-83 -16.5t-85.5 13t-38 37q0 11 13 11h61q11 0 22 -6.5t35 -6.5t24 19
q0 17 -28 17q-14 0 -27 -4.5t-21 -4.5h-44q-15 0 -15 13q0 3 2 9l15 46q-142 12 -228.5 87t-86.5 211v118q0 101 51 171q96 130 321 130q91 0 164 -23.5t117 -61.5q88 -77 88 -170q0 -9 -6.5 -15.5t-15.5 -6.5h-216q-22 0 -35.5 27t-33.5 41t-64.5 14t-72 -22t-27.5 -63z
" />
    <glyph glyph-name="egrave" unicode="&#xe8;" 
d="M360 195h399q11 0 19 -8t8 -19v-141q0 -11 -8 -19t-19 -8h-632q-11 0 -19 8t-8 19v646q0 11 8 19t19 8h622q11 0 19 -8t8 -19v-141q0 -11 -8 -19t-19 -8h-389v-63h334q11 0 19 -8t8 -19v-130q0 -11 -8 -19t-19 -8h-334v-63zM551 747q0 -16 -16 -16h-133q-19 0 -28 7
l-95 80q-5 5 -5 12q0 20 19 20h158q23 -2 37 -19l58 -71q5 -5 5 -13z" />
    <glyph glyph-name="eacute" unicode="&#xe9;" 
d="M601 854q19 0 19 -20q0 -7 -5 -12l-95 -80q-9 -7 -28 -7h-133q-16 0 -16 16q0 8 5 13l58 71q14 17 37 19h158zM360 195h399q11 0 19 -8t8 -19v-141q0 -11 -8 -19t-19 -8h-632q-11 0 -19 8t-8 19v646q0 11 8 19t19 8h622q11 0 19 -8t8 -19v-141q0 -11 -8 -19t-19 -8h-389
v-63h334q11 0 19 -8t8 -19v-130q0 -11 -8 -19t-19 -8h-334v-63z" />
    <glyph glyph-name="ecircumflex" unicode="&#xea;" 
d="M360 195h399q11 0 19 -8t8 -19v-141q0 -11 -8 -19t-19 -8h-632q-11 0 -19 8t-8 19v646q0 11 8 19t19 8h622q11 0 19 -8t8 -19v-141q0 -11 -8 -19t-19 -8h-389v-63h334q11 0 19 -8t8 -19v-130q0 -11 -8 -19t-19 -8h-334v-63zM327 731h-81q-16 0 -16 16q0 9 8 14l83 70
q27 19 47 19h112q20 0 47 -19l83 -70q8 -5 8 -14q0 -16 -16 -16h-81q-18 0 -40 7l-57 22l-57 -22q-22 -7 -40 -7z" />
    <glyph glyph-name="edieresis" unicode="&#xeb;" 
d="M360 195h399q11 0 19 -8t8 -19v-141q0 -11 -8 -19t-19 -8h-632q-11 0 -19 8t-8 19v646q0 11 8 19t19 8h622q11 0 19 -8t8 -19v-141q0 -11 -8 -19t-19 -8h-389v-63h334q11 0 19 -8t8 -19v-130q0 -11 -8 -19t-19 -8h-334v-63zM500 850h116q10 0 16.5 -6.5t6.5 -16.5v-73
q0 -10 -6.5 -16.5t-16.5 -6.5h-116q-10 0 -16.5 6.5t-6.5 16.5v73q0 10 6.5 16.5t16.5 6.5zM249 850h116q10 0 16.5 -6.5t6.5 -16.5v-73q0 -10 -6.5 -16.5t-16.5 -6.5h-116q-10 0 -16.5 6.5t-6.5 16.5v73q0 10 6.5 16.5t16.5 6.5z" />
    <glyph glyph-name="igrave" unicode="&#xec;" 
d="M742 495h-181v-290h181q11 0 19 -8t8 -19v-151q0 -11 -8 -19t-19 -8h-634q-11 0 -19 8t-8 19v151q0 11 8 19t19 8h183v290h-183q-11 0 -19 8t-8 19v151q0 11 8 19t19 8h634q11 0 19 -8t8 -19v-151q0 -11 -8 -19t-19 -8zM537 747q0 -16 -16 -16h-133q-19 0 -28 7l-95 80
q-5 5 -5 12q0 20 19 20h158q23 -2 37 -19l58 -71q5 -5 5 -13z" />
    <glyph glyph-name="iacute" unicode="&#xed;" 
d="M742 495h-181v-290h181q11 0 19 -8t8 -19v-151q0 -11 -8 -19t-19 -8h-634q-11 0 -19 8t-8 19v151q0 11 8 19t19 8h183v290h-183q-11 0 -19 8t-8 19v151q0 11 8 19t19 8h634q11 0 19 -8t8 -19v-151q0 -11 -8 -19t-19 -8zM602 850q19 0 19 -20q0 -7 -5 -12l-95 -80
q-9 -7 -28 -7h-133q-16 0 -16 16q0 8 5 13l58 71q14 17 37 19h158z" />
    <glyph glyph-name="icircumflex" unicode="&#xee;" 
d="M742 495h-181v-290h181q11 0 19 -8t8 -19v-151q0 -11 -8 -19t-19 -8h-634q-11 0 -19 8t-8 19v151q0 11 8 19t19 8h183v290h-183q-11 0 -19 8t-8 19v151q0 11 8 19t19 8h634q11 0 19 -8t8 -19v-151q0 -11 -8 -19t-19 -8zM328 731h-81q-16 0 -16 16q0 9 8 14l83 70
q27 19 47 19h112q20 0 47 -19l83 -70q8 -5 8 -14q0 -16 -16 -16h-81q-18 0 -40 7l-57 22l-57 -22q-22 -7 -40 -7z" />
    <glyph glyph-name="idieresis" unicode="&#xef;" 
d="M742 495h-181v-290h181q11 0 19 -8t8 -19v-151q0 -11 -8 -19t-19 -8h-634q-11 0 -19 8t-8 19v151q0 11 8 19t19 8h183v290h-183q-11 0 -19 8t-8 19v151q0 11 8 19t19 8h634q11 0 19 -8t8 -19v-151q0 -11 -8 -19t-19 -8zM492 850h116q10 0 16.5 -6.5t6.5 -16.5v-73
q0 -10 -6.5 -16.5t-16.5 -6.5h-116q-10 0 -16.5 6.5t-6.5 16.5v73q0 10 6.5 16.5t16.5 6.5zM241 850h116q10 0 16.5 -6.5t6.5 -16.5v-73q0 -10 -6.5 -16.5t-16.5 -6.5h-116q-10 0 -16.5 6.5t-6.5 16.5v73q0 10 6.5 16.5t16.5 6.5z" />
    <glyph glyph-name="eth" unicode="&#xf0;" 
d="M103 700h319q110 0 191 -29t131 -98t50 -172v-102q0 -160 -108 -233q-99 -66 -264 -66h-319q-11 0 -19 8t-8 19v247h-49q-11 0 -19 8t-8 19v101q0 11 8 19t19 8h49v244q0 11 8 19t19 8zM336 505v-76h85q11 0 19 -8t8 -19v-101q0 -11 -8 -19t-19 -8h-85v-79h91
q47 0 74.5 22.5t27.5 63.5v138q0 41 -27.5 63.5t-74.5 22.5h-91z" />
    <glyph glyph-name="ntilde" unicode="&#xf1;" 
d="M556.5 745q-28.5 -12 -61.5 -12t-66 12t-53 12t-29 -12q-5 -9 -15 -9h-84q-8 0 -13.5 5.5t-5.5 15t6.5 25t20 33.5t42.5 30.5t62 12.5t66 -12t53.5 -12t27 10.5t16.5 10.5h84q19 0 19 -19q0 -25 -27 -60q-14 -19 -42.5 -31zM552 700h186q11 0 19 -8t8 -19v-646
q0 -11 -8 -19t-19 -8h-161q-24 0 -40 21l-218 278v-272q0 -11 -8 -19t-19 -8h-186q-11 0 -19 8t-8 19v646q0 11 8 19t19 8h162q24 0 39 -20l218 -301v294q0 11 8 19t19 8z" />
    <glyph glyph-name="ograve" unicode="&#xf2;" 
d="M797 411v-122q0 -103 -50 -172t-131 -98t-191 -29t-191 29t-131 98t-50 174v118q0 151 103.5 226t268.5 75t268.5 -75t103.5 -224zM323 430v-160q0 -41 27.5 -63t74.5 -22t74.5 22.5t27.5 63.5v158q0 41 -27.5 63.5t-74.5 22.5t-74.5 -22t-27.5 -63zM522 747
q0 -16 -16 -16h-133q-19 0 -28 7l-95 80q-5 5 -5 12q0 20 19 20h158q23 -2 37 -19l58 -71q5 -5 5 -13z" />
    <glyph glyph-name="oacute" unicode="&#xf3;" 
d="M797 411v-122q0 -103 -50 -172t-131 -98t-191 -29t-191 29t-131 98t-50 174v118q0 151 103.5 226t268.5 75t268.5 -75t103.5 -224zM323 430v-160q0 -41 27.5 -63t74.5 -22t74.5 22.5t27.5 63.5v158q0 41 -27.5 63.5t-74.5 22.5t-74.5 -22t-27.5 -63zM582 850q19 0 19 -20
q0 -7 -5 -12l-95 -80q-9 -7 -28 -7h-133q-16 0 -16 16q0 8 5 13l58 71q14 17 37 19h158z" />
    <glyph glyph-name="ocircumflex" unicode="&#xf4;" 
d="M797 411v-122q0 -103 -50 -172t-131 -98t-191 -29t-191 29t-131 98t-50 174v118q0 151 103.5 226t268.5 75t268.5 -75t103.5 -224zM323 430v-160q0 -41 27.5 -63t74.5 -22t74.5 22.5t27.5 63.5v158q0 41 -27.5 63.5t-74.5 22.5t-74.5 -22t-27.5 -63zM329 731h-81
q-16 0 -16 16q0 9 8 14l83 70q27 19 47 19h112q20 0 47 -19l83 -70q8 -5 8 -14q0 -16 -16 -16h-81q-18 0 -40 7l-57 22l-57 -22q-22 -7 -40 -7z" />
    <glyph glyph-name="otilde" unicode="&#xf5;" 
d="M560.5 745q-28.5 -12 -61.5 -12t-66 12t-53 12t-29 -12q-5 -9 -15 -9h-84q-8 0 -13.5 5.5t-5.5 15t6.5 25t20 33.5t42.5 30.5t62 12.5t66 -12t53.5 -12t27 10.5t16.5 10.5h84q19 0 19 -19q0 -25 -27 -60q-14 -19 -42.5 -31zM797 411v-122q0 -103 -50 -172t-131 -98
t-191 -29t-191 29t-131 98t-50 174v118q0 151 103.5 226t268.5 75t268.5 -75t103.5 -224zM323 430v-160q0 -41 27.5 -63t74.5 -22t74.5 22.5t27.5 63.5v158q0 41 -27.5 63.5t-74.5 22.5t-74.5 -22t-27.5 -63z" />
    <glyph glyph-name="odieresis" unicode="&#xf6;" 
d="M493 854h116q10 0 16.5 -6.5t6.5 -16.5v-73q0 -10 -6.5 -16.5t-16.5 -6.5h-116q-10 0 -16.5 6.5t-6.5 16.5v73q0 10 6.5 16.5t16.5 6.5zM242 854h116q10 0 16.5 -6.5t6.5 -16.5v-73q0 -10 -6.5 -16.5t-16.5 -6.5h-116q-10 0 -16.5 6.5t-6.5 16.5v73q0 10 6.5 16.5
t16.5 6.5zM797 411v-122q0 -103 -50 -172t-131 -98t-191 -29t-191 29t-131 98t-50 174v118q0 151 103.5 226t268.5 75t268.5 -75t103.5 -224zM323 430v-160q0 -41 27.5 -63t74.5 -22t74.5 22.5t27.5 63.5v158q0 41 -27.5 63.5t-74.5 22.5t-74.5 -22t-27.5 -63z" />
    <glyph glyph-name="divide" unicode="&#xf7;" 
d="M168 425h513q11 0 19 -8t8 -19v-122q0 -11 -8 -19t-19 -8h-513q-11 0 -19 8t-8 19v122q0 11 8 19t19 8zM361 636h124q11 0 19 -8t8 -19v-114q0 -11 -8 -19t-19 -8h-124q-11 0 -19 8t-8 19v114q0 11 8 19t19 8zM361 206h124q11 0 19 -8t8 -19v-114q0 -11 -8 -19t-19 -8
h-124q-11 0 -19 8t-8 19v114q0 11 8 19t19 8z" />
    <glyph glyph-name="oslash" unicode="&#xf8;" 
d="M797 415v-126q0 -103 -50 -172t-131 -98t-191 -29q-253 0 -336 148l-57 -22q-8 -3 -14 -3t-12 6t-6 15v108q0 25 22 33l31 12v123q0 151 103.5 226t268.5 75q114 0 202 -37t132 -111l59 23q8 3 14 3t12 -6t6 -15v-108q0 -25 -22 -33zM425 185q47 0 74.5 22.5t27.5 63.5
v38l-196 -77q21 -47 94 -47zM323 431v-39l195 77q-23 47 -93 47q-47 0 -74.5 -22t-27.5 -63z" />
    <glyph glyph-name="ugrave" unicode="&#xf9;" 
d="M425 -10q-168 0 -266.5 73t-98.5 228v382q0 11 8 19t19 8h209q11 0 19 -8t8 -19v-398q0 -41 27.5 -63t74.5 -22t74.5 22t27.5 63v398q0 11 8 19t19 8h209q11 0 19 -8t8 -19v-382q0 -155 -98.5 -228t-266.5 -73zM517 747q0 -16 -16 -16h-133q-19 0 -28 7l-95 80
q-5 5 -5 12q0 20 19 20h158q23 -2 37 -19l58 -71q5 -5 5 -13z" />
    <glyph glyph-name="uacute" unicode="&#xfa;" 
d="M425 -10q-168 0 -266.5 73t-98.5 228v382q0 11 8 19t19 8h209q11 0 19 -8t8 -19v-398q0 -41 27.5 -63t74.5 -22t74.5 22t27.5 63v398q0 11 8 19t19 8h209q11 0 19 -8t8 -19v-382q0 -155 -98.5 -228t-266.5 -73zM592 850q19 0 19 -20q0 -7 -5 -12l-95 -80q-9 -7 -28 -7
h-133q-16 0 -16 16q0 8 5 13l58 71q14 17 37 19h158z" />
    <glyph glyph-name="ucircumflex" unicode="&#xfb;" 
d="M425 -10q-168 0 -266.5 73t-98.5 228v382q0 11 8 19t19 8h209q11 0 19 -8t8 -19v-398q0 -41 27.5 -63t74.5 -22t74.5 22t27.5 63v398q0 11 8 19t19 8h209q11 0 19 -8t8 -19v-382q0 -155 -98.5 -228t-266.5 -73zM328 731h-81q-16 0 -16 16q0 9 8 14l83 70q27 19 47 19h112
q20 0 47 -19l83 -70q8 -5 8 -14q0 -16 -16 -16h-81q-18 0 -40 7l-57 22l-57 -22q-22 -7 -40 -7z" />
    <glyph glyph-name="udieresis" unicode="&#xfc;" 
d="M492 854h116q10 0 16.5 -6.5t6.5 -16.5v-73q0 -10 -6.5 -16.5t-16.5 -6.5h-116q-10 0 -16.5 6.5t-6.5 16.5v73q0 10 6.5 16.5t16.5 6.5zM241 854h116q10 0 16.5 -6.5t6.5 -16.5v-73q0 -10 -6.5 -16.5t-16.5 -6.5h-116q-10 0 -16.5 6.5t-6.5 16.5v73q0 10 6.5 16.5
t16.5 6.5zM425 -10q-168 0 -266.5 73t-98.5 228v382q0 11 8 19t19 8h209q11 0 19 -8t8 -19v-398q0 -41 27.5 -63t74.5 -22t74.5 22t27.5 63v398q0 11 8 19t19 8h209q11 0 19 -8t8 -19v-382q0 -155 -98.5 -228t-266.5 -73z" />
    <glyph glyph-name="yacute" unicode="&#xfd;" 
d="M582 700h209q9 0 15.5 -6.5t6.5 -13.5t-3 -13l-252 -417v-223q0 -11 -8 -19t-19 -8h-213q-11 0 -19 8t-8 19v223l-251 417q-3 6 -3 13t6.5 13.5t15.5 6.5h211q28 0 41 -23l113 -198l116 196q15 25 42 25zM584 850q19 0 19 -20q0 -7 -5 -12l-95 -80q-9 -7 -28 -7h-133
q-16 0 -16 16q0 8 5 13l58 71q14 17 37 19h158z" />
    <glyph glyph-name="thorn" unicode="&#xfe;" 
d="M108 701h215q11 0 19 -8t8 -19v-64h132q142 0 225 -69t83 -177t-70 -171.5t-238 -63.5h-132v-102q0 -11 -8 -19t-19 -8h-215q-11 0 -19 8t-8 19v647q0 11 8 19t19 8zM351 424v-110h127q24 0 38 14t14 39t-14 41t-38 16h-127z" />
    <glyph glyph-name="ydieresis" unicode="&#xff;" 
d="M492 855h116q10 0 16.5 -6.5t6.5 -16.5v-73q0 -10 -6.5 -16.5t-16.5 -6.5h-116q-10 0 -16.5 6.5t-6.5 16.5v73q0 10 6.5 16.5t16.5 6.5zM241 855h116q10 0 16.5 -6.5t6.5 -16.5v-73q0 -10 -6.5 -16.5t-16.5 -6.5h-116q-10 0 -16.5 6.5t-6.5 16.5v73q0 10 6.5 16.5
t16.5 6.5zM582 700h209q9 0 15.5 -6.5t6.5 -13.5t-3 -13l-252 -417v-223q0 -11 -8 -19t-19 -8h-213q-11 0 -19 8t-8 19v223l-251 417q-3 6 -3 13t6.5 13.5t15.5 6.5h211q28 0 41 -23l113 -198l116 196q15 25 42 25z" />
    <glyph glyph-name="Amacron" unicode="&#x100;" 
d="M620 0q-32 0 -45 34l-25 70h-244l-25 -70q-13 -34 -45 -34h-189q-9 0 -15.5 6.5t-6.5 12.5t1 9l218 639q9 33 45 33h278q36 0 45 -33l218 -639q1 -3 1 -9t-6.5 -12.5t-15.5 -6.5h-189zM428 507l-71 -208h142zM242 850h367q10 0 16.5 -6.5t6.5 -16.5v-73q0 -10 -6.5 -16.5
t-16.5 -6.5h-367q-10 0 -16.5 6.5t-6.5 16.5v73q0 10 6.5 16.5t16.5 6.5z" />
    <glyph glyph-name="amacron" unicode="&#x101;" 
d="M620 0q-32 0 -45 34l-25 70h-244l-25 -70q-13 -34 -45 -34h-189q-9 0 -15.5 6.5t-6.5 12.5t1 9l218 639q9 33 45 33h278q36 0 45 -33l218 -639q1 -3 1 -9t-6.5 -12.5t-15.5 -6.5h-189zM428 507l-71 -208h142zM242 850h367q10 0 16.5 -6.5t6.5 -16.5v-73q0 -10 -6.5 -16.5
t-16.5 -6.5h-367q-10 0 -16.5 6.5t-6.5 16.5v73q0 10 6.5 16.5t16.5 6.5z" />
    <glyph glyph-name="Abreve" unicode="&#x102;" 
d="M236 0h-189q-9 0 -15.5 6.5t-6.5 12.5t1 9l218 639q9 33 45 33h278q36 0 45 -33l218 -639q1 -3 1 -9t-6.5 -12.5t-15.5 -6.5h-189q-32 0 -45 34l-25 70h-244l-25 -70q-13 -34 -45 -34zM499 299l-71 208l-71 -208h142zM488 855h99q19 0 19 -13q0 -47 -46 -79.5
t-131.5 -32.5t-131.5 32.5t-46 79.5q0 13 19 13h99q15 0 19 -13q6 -25 38 -25t43 25q7 13 19 13z" />
    <glyph glyph-name="abreve" unicode="&#x103;" 
d="M236 0h-189q-9 0 -15.5 6.5t-6.5 12.5t1 9l218 639q9 33 45 33h278q36 0 45 -33l218 -639q1 -3 1 -9t-6.5 -12.5t-15.5 -6.5h-189q-32 0 -45 34l-25 70h-244l-25 -70q-13 -34 -45 -34zM499 299l-71 208l-71 -208h142zM488 855h99q19 0 19 -13q0 -47 -46 -79.5
t-131.5 -32.5t-131.5 32.5t-46 79.5q0 13 19 13h99q15 0 19 -13q6 -25 38 -25t43 25q7 13 19 13z" />
    <glyph glyph-name="Aogonek" unicode="&#x104;" 
d="M236 0h-189q-9 0 -15.5 6.5t-6.5 12.5t1 9l218 639q9 33 45 33h278q36 0 45 -33l218 -639q1 -3 1 -9t-6.5 -12.5t-15.5 -6.5h-14q-36 -1 -36 -26.5t43 -25.5h7q27 0 27 -25v-41q0 -11 -7.5 -17.5t-19.5 -6.5h-14q-152 0 -152 116q0 18 2 26h-25q-32 0 -45 34l-25 70h-244
l-25 -70q-13 -34 -45 -34zM499 299l-71 208l-71 -208h142z" />
    <glyph glyph-name="aogonek" unicode="&#x105;" 
d="M236 0h-189q-9 0 -15.5 6.5t-6.5 12.5t1 9l218 639q9 33 45 33h278q36 0 45 -33l218 -639q1 -3 1 -9t-6.5 -12.5t-15.5 -6.5h-14q-36 -1 -36 -26.5t43 -25.5h7q27 0 27 -25v-41q0 -11 -7.5 -17.5t-19.5 -6.5h-14q-152 0 -152 116q0 18 2 26h-25q-32 0 -45 34l-25 70h-244
l-25 -70q-13 -34 -45 -34zM499 299l-71 208l-71 -208h142z" />
    <glyph glyph-name="Cacute" unicode="&#x106;" 
d="M333 430v-160q0 -41 27.5 -63t72 -22t64.5 14t33.5 41t35.5 27h216q9 0 15.5 -6.5t6.5 -15.5q0 -93 -88 -170q-44 -38 -117 -61.5t-172 -23.5t-180.5 30.5t-132.5 100t-51 170.5v118q0 101 51 171q96 130 321 130q91 0 164 -23.5t117 -61.5q88 -77 88 -170
q0 -9 -6.5 -15.5t-15.5 -6.5h-216q-22 0 -35.5 27t-33.5 41t-64.5 14t-72 -22t-27.5 -63zM592 850q19 0 19 -20q0 -7 -5 -12l-95 -80q-9 -7 -28 -7h-133q-16 0 -16 16q0 8 5 13l58 71q14 17 37 19h158z" />
    <glyph glyph-name="cacute" unicode="&#x107;" 
d="M333 430v-160q0 -41 27.5 -63t72 -22t64.5 14t33.5 41t35.5 27h216q9 0 15.5 -6.5t6.5 -15.5q0 -93 -88 -170q-44 -38 -117 -61.5t-172 -23.5t-180.5 30.5t-132.5 100t-51 170.5v118q0 101 51 171q96 130 321 130q91 0 164 -23.5t117 -61.5q88 -77 88 -170
q0 -9 -6.5 -15.5t-15.5 -6.5h-216q-22 0 -35.5 27t-33.5 41t-64.5 14t-72 -22t-27.5 -63zM592 850q19 0 19 -20q0 -7 -5 -12l-95 -80q-9 -7 -28 -7h-133q-16 0 -16 16q0 8 5 13l58 71q14 17 37 19h158z" />
    <glyph glyph-name="Ccircumflex" unicode="&#x108;" 
d="M333 430v-160q0 -41 27.5 -63t72 -22t64.5 14t33.5 41t35.5 27h216q9 0 15.5 -6.5t6.5 -15.5q0 -93 -88 -170q-44 -38 -117 -61.5t-172 -23.5t-180.5 30.5t-132.5 100t-51 170.5v118q0 101 51 171q96 130 321 130q91 0 164 -23.5t117 -61.5q88 -77 88 -170
q0 -9 -6.5 -15.5t-15.5 -6.5h-216q-22 0 -35.5 27t-33.5 41t-64.5 14t-72 -22t-27.5 -63zM335 731h-81q-16 0 -16 16q0 9 8 14l83 70q27 19 47 19h112q20 0 47 -19l83 -70q8 -5 8 -14q0 -16 -16 -16h-81q-18 0 -40 7l-57 22l-57 -22q-22 -7 -40 -7z" />
    <glyph glyph-name="ccircumflex" unicode="&#x109;" 
d="M333 430v-160q0 -41 27.5 -63t72 -22t64.5 14t33.5 41t35.5 27h216q9 0 15.5 -6.5t6.5 -15.5q0 -93 -88 -170q-44 -38 -117 -61.5t-172 -23.5t-180.5 30.5t-132.5 100t-51 170.5v118q0 101 51 171q96 130 321 130q91 0 164 -23.5t117 -61.5q88 -77 88 -170
q0 -9 -6.5 -15.5t-15.5 -6.5h-216q-22 0 -35.5 27t-33.5 41t-64.5 14t-72 -22t-27.5 -63zM335 731h-81q-16 0 -16 16q0 9 8 14l83 70q27 19 47 19h112q20 0 47 -19l83 -70q8 -5 8 -14q0 -16 -16 -16h-81q-18 0 -40 7l-57 22l-57 -22q-22 -7 -40 -7z" />
    <glyph glyph-name="Cdotaccent" unicode="&#x10a;" 
d="M333 430v-160q0 -41 27.5 -63t72 -22t64.5 14t33.5 41t35.5 27h216q9 0 15.5 -6.5t6.5 -15.5q0 -93 -88 -170q-44 -38 -117 -61.5t-172 -23.5t-180.5 30.5t-132.5 100t-51 170.5v118q0 101 51 171q96 130 321 130q91 0 164 -23.5t117 -61.5q88 -77 88 -170
q0 -9 -6.5 -15.5t-15.5 -6.5h-216q-22 0 -35.5 27t-33.5 41t-64.5 14t-72 -22t-27.5 -63zM359 850h136q10 0 16.5 -6.5t6.5 -16.5v-73q0 -10 -6.5 -16.5t-16.5 -6.5h-136q-10 0 -16.5 6.5t-6.5 16.5v73q0 10 6.5 16.5t16.5 6.5z" />
    <glyph glyph-name="cdotaccent" unicode="&#x10b;" 
d="M333 430v-160q0 -41 27.5 -63t72 -22t64.5 14t33.5 41t35.5 27h216q9 0 15.5 -6.5t6.5 -15.5q0 -93 -88 -170q-44 -38 -117 -61.5t-172 -23.5t-180.5 30.5t-132.5 100t-51 170.5v118q0 101 51 171q96 130 321 130q91 0 164 -23.5t117 -61.5q88 -77 88 -170
q0 -9 -6.5 -15.5t-15.5 -6.5h-216q-22 0 -35.5 27t-33.5 41t-64.5 14t-72 -22t-27.5 -63zM359 850h136q10 0 16.5 -6.5t6.5 -16.5v-73q0 -10 -6.5 -16.5t-16.5 -6.5h-136q-10 0 -16.5 6.5t-6.5 16.5v73q0 10 6.5 16.5t16.5 6.5z" />
    <glyph glyph-name="Ccaron" unicode="&#x10c;" 
d="M333 430v-160q0 -41 27.5 -63t72 -22t64.5 14t33.5 41t35.5 27h216q9 0 15.5 -6.5t6.5 -15.5q0 -93 -88 -170q-44 -38 -117 -61.5t-172 -23.5t-180.5 30.5t-132.5 100t-51 170.5v118q0 101 51 171q96 130 321 130q91 0 164 -23.5t117 -61.5q88 -77 88 -170
q0 -9 -6.5 -15.5t-15.5 -6.5h-216q-22 0 -35.5 27t-33.5 41t-64.5 14t-72 -22t-27.5 -63zM526 850h81q16 0 16 -16q0 -9 -8 -14l-83 -70q-27 -19 -47 -19h-112q-20 0 -47 19l-83 70q-8 5 -8 14q0 16 16 16h81q18 0 40 -7l57 -22l57 22q22 7 40 7z" />
    <glyph glyph-name="ccaron" unicode="&#x10d;" 
d="M333 430v-160q0 -41 27.5 -63t72 -22t64.5 14t33.5 41t35.5 27h216q9 0 15.5 -6.5t6.5 -15.5q0 -93 -88 -170q-44 -38 -117 -61.5t-172 -23.5t-180.5 30.5t-132.5 100t-51 170.5v118q0 101 51 171q96 130 321 130q91 0 164 -23.5t117 -61.5q88 -77 88 -170
q0 -9 -6.5 -15.5t-15.5 -6.5h-216q-22 0 -35.5 27t-33.5 41t-64.5 14t-72 -22t-27.5 -63zM526 850h81q16 0 16 -16q0 -9 -8 -14l-83 -70q-27 -19 -47 -19h-112q-20 0 -47 19l-83 70q-8 5 -8 14q0 16 16 16h81q18 0 40 -7l57 -22l57 22q22 7 40 7z" />
    <glyph glyph-name="Dcaron" unicode="&#x10e;" 
d="M103 700h319q110 0 191 -29t131 -98t50 -172v-102q0 -160 -108 -233q-99 -66 -264 -66h-319q-11 0 -19 8t-8 19v646q0 11 8 19t19 8zM336 505v-310h91q47 0 74.5 22.5t27.5 63.5v138q0 41 -27.5 63.5t-74.5 22.5h-91zM482 850h81q16 0 16 -16q0 -9 -8 -14l-83 -70
q-27 -19 -47 -19h-112q-20 0 -47 19l-83 70q-8 5 -8 14q0 16 16 16h81q18 0 40 -7l57 -22l57 22q22 7 40 7z" />
    <glyph glyph-name="dcaron" unicode="&#x10f;" 
d="M103 700h319q110 0 191 -29t131 -98t50 -172v-102q0 -160 -108 -233q-99 -66 -264 -66h-319q-11 0 -19 8t-8 19v646q0 11 8 19t19 8zM336 505v-310h91q47 0 74.5 22.5t27.5 63.5v138q0 41 -27.5 63.5t-74.5 22.5h-91zM482 850h81q16 0 16 -16q0 -9 -8 -14l-83 -70
q-27 -19 -47 -19h-112q-20 0 -47 19l-83 70q-8 5 -8 14q0 16 16 16h81q18 0 40 -7l57 -22l57 22q22 7 40 7z" />
    <glyph glyph-name="Dcroat" unicode="&#x110;" 
d="M103 700h319q110 0 191 -29t131 -98t50 -172v-102q0 -160 -108 -233q-99 -66 -264 -66h-319q-11 0 -19 8t-8 19v247h-49q-11 0 -19 8t-8 19v101q0 11 8 19t19 8h49v244q0 11 8 19t19 8zM336 505v-76h35q11 0 19 -8t8 -19v-101q0 -11 -8 -19t-19 -8h-35v-79h91
q47 0 74.5 22.5t27.5 63.5v138q0 41 -27.5 63.5t-74.5 22.5h-91z" />
    <glyph glyph-name="dcroat" unicode="&#x111;" 
d="M103 700h319q110 0 191 -29t131 -98t50 -172v-102q0 -160 -108 -233q-99 -66 -264 -66h-319q-11 0 -19 8t-8 19v247h-49q-11 0 -19 8t-8 19v101q0 11 8 19t19 8h49v244q0 11 8 19t19 8zM336 505v-76h35q11 0 19 -8t8 -19v-101q0 -11 -8 -19t-19 -8h-35v-79h91
q47 0 74.5 22.5t27.5 63.5v138q0 41 -27.5 63.5t-74.5 22.5h-91z" />
    <glyph glyph-name="Emacron" unicode="&#x112;" 
d="M350 195h399q11 0 19 -8t8 -19v-141q0 -11 -8 -19t-19 -8h-632q-11 0 -19 8t-8 19v646q0 11 8 19t19 8h622q11 0 19 -8t8 -19v-141q0 -11 -8 -19t-19 -8h-389v-63h334q11 0 19 -8t8 -19v-130q0 -11 -8 -19t-19 -8h-334v-63zM232 850h367q10 0 16.5 -6.5t6.5 -16.5v-73
q0 -10 -6.5 -16.5t-16.5 -6.5h-367q-10 0 -16.5 6.5t-6.5 16.5v73q0 10 6.5 16.5t16.5 6.5z" />
    <glyph glyph-name="emacron" unicode="&#x113;" 
d="M350 195h399q11 0 19 -8t8 -19v-141q0 -11 -8 -19t-19 -8h-632q-11 0 -19 8t-8 19v646q0 11 8 19t19 8h622q11 0 19 -8t8 -19v-141q0 -11 -8 -19t-19 -8h-389v-63h334q11 0 19 -8t8 -19v-130q0 -11 -8 -19t-19 -8h-334v-63zM232 850h367q10 0 16.5 -6.5t6.5 -16.5v-73
q0 -10 -6.5 -16.5t-16.5 -6.5h-367q-10 0 -16.5 6.5t-6.5 16.5v73q0 10 6.5 16.5t16.5 6.5z" />
    <glyph glyph-name="Ebreve" unicode="&#x114;" 
d="M350 195h399q11 0 19 -8t8 -19v-141q0 -11 -8 -19t-19 -8h-632q-11 0 -19 8t-8 19v646q0 11 8 19t19 8h622q11 0 19 -8t8 -19v-141q0 -11 -8 -19t-19 -8h-389v-63h334q11 0 19 -8t8 -19v-130q0 -11 -8 -19t-19 -8h-334v-63zM494 855h99q19 0 19 -13q0 -47 -46 -79.5
t-131.5 -32.5t-131.5 32.5t-46 79.5q0 13 19 13h99q15 0 19 -13q6 -25 38 -25t43 25q7 13 19 13z" />
    <glyph glyph-name="ebreve" unicode="&#x115;" 
d="M350 195h399q11 0 19 -8t8 -19v-141q0 -11 -8 -19t-19 -8h-632q-11 0 -19 8t-8 19v646q0 11 8 19t19 8h622q11 0 19 -8t8 -19v-141q0 -11 -8 -19t-19 -8h-389v-63h334q11 0 19 -8t8 -19v-130q0 -11 -8 -19t-19 -8h-334v-63zM494 855h99q19 0 19 -13q0 -47 -46 -79.5
t-131.5 -32.5t-131.5 32.5t-46 79.5q0 13 19 13h99q15 0 19 -13q6 -25 38 -25t43 25q7 13 19 13z" />
    <glyph glyph-name="Edotaccent" unicode="&#x116;" 
d="M350 195h399q11 0 19 -8t8 -19v-141q0 -11 -8 -19t-19 -8h-632q-11 0 -19 8t-8 19v646q0 11 8 19t19 8h622q11 0 19 -8t8 -19v-141q0 -11 -8 -19t-19 -8h-389v-63h334q11 0 19 -8t8 -19v-130q0 -11 -8 -19t-19 -8h-334v-63zM357 850h136q10 0 16.5 -6.5t6.5 -16.5v-73
q0 -10 -6.5 -16.5t-16.5 -6.5h-136q-10 0 -16.5 6.5t-6.5 16.5v73q0 10 6.5 16.5t16.5 6.5z" />
    <glyph glyph-name="edotaccent" unicode="&#x117;" 
d="M350 195h399q11 0 19 -8t8 -19v-141q0 -11 -8 -19t-19 -8h-632q-11 0 -19 8t-8 19v646q0 11 8 19t19 8h622q11 0 19 -8t8 -19v-141q0 -11 -8 -19t-19 -8h-389v-63h334q11 0 19 -8t8 -19v-130q0 -11 -8 -19t-19 -8h-334v-63zM357 850h136q10 0 16.5 -6.5t6.5 -16.5v-73
q0 -10 -6.5 -16.5t-16.5 -6.5h-136q-10 0 -16.5 6.5t-6.5 16.5v73q0 10 6.5 16.5t16.5 6.5z" />
    <glyph glyph-name="Eogonek" unicode="&#x118;" 
d="M350 195h399q11 0 19 -8t8 -19v-141q0 -11 -8 -19t-19 -8h-7q-43 0 -43 -26t43 -26h7q27 0 27 -25v-41q0 -11 -7.5 -17.5t-19.5 -6.5h-14q-152 0 -152 116q0 18 2 26h-468q-11 0 -19 8t-8 19v646q0 11 8 19t19 8h622q11 0 19 -8t8 -19v-141q0 -11 -8 -19t-19 -8h-389v-63
h334q11 0 19 -8t8 -19v-130q0 -11 -8 -19t-19 -8h-334v-63z" />
    <glyph glyph-name="eogonek" unicode="&#x119;" 
d="M350 195h399q11 0 19 -8t8 -19v-141q0 -11 -8 -19t-19 -8h-7q-43 0 -43 -26t43 -26h7q27 0 27 -25v-41q0 -11 -7.5 -17.5t-19.5 -6.5h-14q-152 0 -152 116q0 18 2 26h-468q-11 0 -19 8t-8 19v646q0 11 8 19t19 8h622q11 0 19 -8t8 -19v-141q0 -11 -8 -19t-19 -8h-389v-63
h334q11 0 19 -8t8 -19v-130q0 -11 -8 -19t-19 -8h-334v-63z" />
    <glyph glyph-name="Ecaron" unicode="&#x11a;" 
d="M350 195h399q11 0 19 -8t8 -19v-141q0 -11 -8 -19t-19 -8h-632q-11 0 -19 8t-8 19v646q0 11 8 19t19 8h622q11 0 19 -8t8 -19v-141q0 -11 -8 -19t-19 -8h-389v-63h334q11 0 19 -8t8 -19v-130q0 -11 -8 -19t-19 -8h-334v-63zM522 850h81q16 0 16 -16q0 -9 -8 -14l-83 -70
q-27 -19 -47 -19h-112q-20 0 -47 19l-83 70q-8 5 -8 14q0 16 16 16h81q18 0 40 -7l57 -22l57 22q22 7 40 7z" />
    <glyph glyph-name="ecaron" unicode="&#x11b;" 
d="M350 195h399q11 0 19 -8t8 -19v-141q0 -11 -8 -19t-19 -8h-632q-11 0 -19 8t-8 19v646q0 11 8 19t19 8h622q11 0 19 -8t8 -19v-141q0 -11 -8 -19t-19 -8h-389v-63h334q11 0 19 -8t8 -19v-130q0 -11 -8 -19t-19 -8h-334v-63zM522 850h81q16 0 16 -16q0 -9 -8 -14l-83 -70
q-27 -19 -47 -19h-112q-20 0 -47 19l-83 70q-8 5 -8 14q0 16 16 16h81q18 0 40 -7l57 -22l57 22q22 7 40 7z" />
    <glyph glyph-name="Gcircumflex" unicode="&#x11c;" 
d="M495 422h290q11 0 19 -8t8 -19v-106q0 -152 -103.5 -225.5t-273.5 -73.5t-273.5 73.5t-103.5 227.5v118q0 77 29.5 136t82.5 95q104 70 265 70q80 0 146.5 -18.5t106 -46t67.5 -59.5q49 -56 49 -99q0 -9 -6.5 -15.5t-15.5 -6.5h-226q-20 0 -29 11q-31 39 -84.5 39
t-84 -21t-30.5 -54v-170q0 -40 30 -62.5t84.5 -22.5t84 21.5t30.5 50.5h-62q-11 0 -19 8t-8 19v111q0 11 8 19t19 8zM335 731h-81q-16 0 -16 16q0 9 8 14l83 70q27 19 47 19h112q20 0 47 -19l83 -70q8 -5 8 -14q0 -16 -16 -16h-81q-18 0 -40 7l-57 22l-57 -22q-22 -7 -40 -7
z" />
    <glyph glyph-name="gcircumflex" unicode="&#x11d;" 
d="M495 422h290q11 0 19 -8t8 -19v-106q0 -152 -103.5 -225.5t-273.5 -73.5t-273.5 73.5t-103.5 227.5v118q0 77 29.5 136t82.5 95q104 70 265 70q80 0 146.5 -18.5t106 -46t67.5 -59.5q49 -56 49 -99q0 -9 -6.5 -15.5t-15.5 -6.5h-226q-20 0 -29 11q-31 39 -84.5 39
t-84 -21t-30.5 -54v-170q0 -40 30 -62.5t84.5 -22.5t84 21.5t30.5 50.5h-62q-11 0 -19 8t-8 19v111q0 11 8 19t19 8zM335 731h-81q-16 0 -16 16q0 9 8 14l83 70q27 19 47 19h112q20 0 47 -19l83 -70q8 -5 8 -14q0 -16 -16 -16h-81q-18 0 -40 7l-57 22l-57 -22q-22 -7 -40 -7
z" />
    <glyph glyph-name="Gbreve" unicode="&#x11e;" 
d="M495 422h290q11 0 19 -8t8 -19v-106q0 -152 -103.5 -225.5t-273.5 -73.5t-273.5 73.5t-103.5 227.5v118q0 77 29.5 136t82.5 95q104 70 265 70q80 0 146.5 -18.5t106 -46t67.5 -59.5q49 -56 49 -99q0 -9 -6.5 -15.5t-15.5 -6.5h-226q-20 0 -29 11q-31 39 -84.5 39
t-84 -21t-30.5 -54v-170q0 -40 30 -62.5t84.5 -22.5t84 21.5t30.5 50.5h-62q-11 0 -19 8t-8 19v111q0 11 8 19t19 8zM484 855h99q19 0 19 -13q0 -47 -46 -79.5t-131.5 -32.5t-131.5 32.5t-46 79.5q0 13 19 13h99q15 0 19 -13q6 -25 38 -25t43 25q7 13 19 13z" />
    <glyph glyph-name="gbreve" unicode="&#x11f;" 
d="M495 422h290q11 0 19 -8t8 -19v-106q0 -152 -103.5 -225.5t-273.5 -73.5t-273.5 73.5t-103.5 227.5v118q0 77 29.5 136t82.5 95q104 70 265 70q80 0 146.5 -18.5t106 -46t67.5 -59.5q49 -56 49 -99q0 -9 -6.5 -15.5t-15.5 -6.5h-226q-20 0 -29 11q-31 39 -84.5 39
t-84 -21t-30.5 -54v-170q0 -40 30 -62.5t84.5 -22.5t84 21.5t30.5 50.5h-62q-11 0 -19 8t-8 19v111q0 11 8 19t19 8zM484 855h99q19 0 19 -13q0 -47 -46 -79.5t-131.5 -32.5t-131.5 32.5t-46 79.5q0 13 19 13h99q15 0 19 -13q6 -25 38 -25t43 25q7 13 19 13z" />
    <glyph glyph-name="Gdotaccent" unicode="&#x120;" 
d="M495 422h290q11 0 19 -8t8 -19v-106q0 -152 -103.5 -225.5t-273.5 -73.5t-273.5 73.5t-103.5 227.5v118q0 77 29.5 136t82.5 95q104 70 265 70q80 0 146.5 -18.5t106 -46t67.5 -59.5q49 -56 49 -99q0 -9 -6.5 -15.5t-15.5 -6.5h-226q-20 0 -29 11q-31 39 -84.5 39
t-84 -21t-30.5 -54v-170q0 -40 30 -62.5t84.5 -22.5t84 21.5t30.5 50.5h-62q-11 0 -19 8t-8 19v111q0 11 8 19t19 8zM357 850h136q10 0 16.5 -6.5t6.5 -16.5v-73q0 -10 -6.5 -16.5t-16.5 -6.5h-136q-10 0 -16.5 6.5t-6.5 16.5v73q0 10 6.5 16.5t16.5 6.5z" />
    <glyph glyph-name="gdotaccent" unicode="&#x121;" 
d="M495 422h290q11 0 19 -8t8 -19v-106q0 -152 -103.5 -225.5t-273.5 -73.5t-273.5 73.5t-103.5 227.5v118q0 77 29.5 136t82.5 95q104 70 265 70q80 0 146.5 -18.5t106 -46t67.5 -59.5q49 -56 49 -99q0 -9 -6.5 -15.5t-15.5 -6.5h-226q-20 0 -29 11q-31 39 -84.5 39
t-84 -21t-30.5 -54v-170q0 -40 30 -62.5t84.5 -22.5t84 21.5t30.5 50.5h-62q-11 0 -19 8t-8 19v111q0 11 8 19t19 8zM357 850h136q10 0 16.5 -6.5t6.5 -16.5v-73q0 -10 -6.5 -16.5t-16.5 -6.5h-136q-10 0 -16.5 6.5t-6.5 16.5v73q0 10 6.5 16.5t16.5 6.5z" />
    <glyph glyph-name="Gcommaaccent" unicode="&#x122;" 
d="M495 422h290q11 0 19 -8t8 -19v-106q0 -152 -103.5 -225.5t-273.5 -73.5t-273.5 73.5t-103.5 227.5v118q0 77 29.5 136t82.5 95q104 70 265 70q80 0 146.5 -18.5t106 -46t67.5 -59.5q49 -56 49 -99q0 -9 -6.5 -15.5t-15.5 -6.5h-226q-20 0 -29 11q-31 39 -84.5 39
t-84 -21t-30.5 -54v-170q0 -40 30 -62.5t84.5 -22.5t84 21.5t30.5 50.5h-62q-11 0 -19 8t-8 19v111q0 11 8 19t19 8zM518 -31q19 0 19 -20q0 -7 -5 -12l-95 -80q-9 -7 -28 -7h-133q-16 0 -16 16q0 8 5 13l58 71q14 17 37 19h158z" />
    <glyph glyph-name="gcommaaccent" unicode="&#x123;" 
d="M495 422h290q11 0 19 -8t8 -19v-106q0 -152 -103.5 -225.5t-273.5 -73.5t-273.5 73.5t-103.5 227.5v118q0 77 29.5 136t82.5 95q104 70 265 70q80 0 146.5 -18.5t106 -46t67.5 -59.5q49 -56 49 -99q0 -9 -6.5 -15.5t-15.5 -6.5h-226q-20 0 -29 11q-31 39 -84.5 39
t-84 -21t-30.5 -54v-170q0 -40 30 -62.5t84.5 -22.5t84 21.5t30.5 50.5h-62q-11 0 -19 8t-8 19v111q0 11 8 19t19 8zM518 -31q19 0 19 -20q0 -7 -5 -12l-95 -80q-9 -7 -28 -7h-133q-16 0 -16 16q0 8 5 13l58 71q14 17 37 19h158z" />
    <glyph glyph-name="Hcircumflex" unicode="&#x124;" 
d="M552 700h206q11 0 19 -8t8 -19v-646q0 -11 -8 -19t-19 -8h-206q-11 0 -19 8t-8 19v213h-200v-213q0 -11 -8 -19t-19 -8h-206q-11 0 -19 7.5t-8 19.5v646q0 11 8 19t19 8h206q11 0 19 -8t8 -19v-205h200v205q0 11 8 19t19 8zM325 731h-81q-16 0 -16 16q0 9 8 14l83 70
q27 19 47 19h112q20 0 47 -19l83 -70q8 -5 8 -14q0 -16 -16 -16h-81q-18 0 -40 7l-57 22l-57 -22q-22 -7 -40 -7z" />
    <glyph glyph-name="hcircumflex" unicode="&#x125;" 
d="M552 700h206q11 0 19 -8t8 -19v-646q0 -11 -8 -19t-19 -8h-206q-11 0 -19 8t-8 19v213h-200v-213q0 -11 -8 -19t-19 -8h-206q-11 0 -19 7.5t-8 19.5v646q0 11 8 19t19 8h206q11 0 19 -8t8 -19v-205h200v205q0 11 8 19t19 8zM325 731h-81q-16 0 -16 16q0 9 8 14l83 70
q27 19 47 19h112q20 0 47 -19l83 -70q8 -5 8 -14q0 -16 -16 -16h-81q-18 0 -40 7l-57 22l-57 -22q-22 -7 -40 -7z" />
    <glyph glyph-name="Hbar" unicode="&#x126;" 
d="M552 700h206q11 0 19 -8t8 -19v-646q0 -11 -8 -19t-19 -8h-206q-11 0 -19 8t-8 19v213h-200v-213q0 -11 -8 -19t-19 -8h-206q-11 0 -19 7.5t-8 19.5v646q0 11 8 19t19 8h206q11 0 19 -8t8 -19v-36h200v36q0 11 8 19t19 8zM325 468h200v44h-200v-44z" />
    <glyph glyph-name="hbar" unicode="&#x127;" 
d="M552 700h206q11 0 19 -8t8 -19v-646q0 -11 -8 -19t-19 -8h-206q-11 0 -19 8t-8 19v213h-200v-213q0 -11 -8 -19t-19 -8h-206q-11 0 -19 7.5t-8 19.5v646q0 11 8 19t19 8h206q11 0 19 -8t8 -19v-36h200v36q0 11 8 19t19 8zM325 468h200v44h-200v-44z" />
    <glyph glyph-name="Itilde" unicode="&#x128;" 
d="M742 495h-181v-290h181q11 0 19 -8t8 -19v-151q0 -11 -8 -19t-19 -8h-634q-11 0 -19 8t-8 19v151q0 11 8 19t19 8h183v290h-183q-11 0 -19 8t-8 19v151q0 11 8 19t19 8h634q11 0 19 -8t8 -19v-151q0 -11 -8 -19t-19 -8zM487 730q-28 0 -61 12t-48 12t-26.5 -9.5
t-22.5 -9.5h-84q-8 0 -13.5 5.5t-5.5 15t6.5 24.5t20 33t42.5 30t62 12t66 -12t47.5 -12t26.5 9.5t23 9.5h84q19 0 19 -19q0 -30 -32.5 -65.5t-103.5 -35.5z" />
    <glyph glyph-name="itilde" unicode="&#x129;" 
d="M742 495h-181v-290h181q11 0 19 -8t8 -19v-151q0 -11 -8 -19t-19 -8h-634q-11 0 -19 8t-8 19v151q0 11 8 19t19 8h183v290h-183q-11 0 -19 8t-8 19v151q0 11 8 19t19 8h634q11 0 19 -8t8 -19v-151q0 -11 -8 -19t-19 -8zM487 730q-28 0 -61 12t-48 12t-26.5 -9.5
t-22.5 -9.5h-84q-8 0 -13.5 5.5t-5.5 15t6.5 24.5t20 33t42.5 30t62 12t66 -12t47.5 -12t26.5 9.5t23 9.5h84q19 0 19 -19q0 -30 -32.5 -65.5t-103.5 -35.5z" />
    <glyph glyph-name="imacron" unicode="&#x12b;" 
d="M742 495h-181v-290h181q11 0 19 -8t8 -19v-151q0 -11 -8 -19t-19 -8h-634q-11 0 -19 8t-8 19v151q0 11 8 19t19 8h183v290h-183q-11 0 -19 8t-8 19v151q0 11 8 19t19 8h634q11 0 19 -8t8 -19v-151q0 -11 -8 -19t-19 -8zM242 850h367q10 0 16.5 -6.5t6.5 -16.5v-73
q0 -10 -6.5 -16.5t-16.5 -6.5h-367q-10 0 -16.5 6.5t-6.5 16.5v73q0 10 6.5 16.5t16.5 6.5z" />
    <glyph glyph-name="Ibreve" unicode="&#x12c;" 
d="M742 495h-181v-290h181q11 0 19 -8t8 -19v-151q0 -11 -8 -19t-19 -8h-634q-11 0 -19 8t-8 19v151q0 11 8 19t19 8h183v290h-183q-11 0 -19 8t-8 19v151q0 11 8 19t19 8h634q11 0 19 -8t8 -19v-151q0 -11 -8 -19t-19 -8zM485 855h99q19 0 19 -13q0 -47 -46 -79.5
t-131.5 -32.5t-131.5 32.5t-46 79.5q0 13 19 13h99q15 0 19 -13q6 -25 38 -25t43 25q6 13 19 13z" />
    <glyph glyph-name="ibreve" unicode="&#x12d;" 
d="M742 495h-181v-290h181q11 0 19 -8t8 -19v-151q0 -11 -8 -19t-19 -8h-634q-11 0 -19 8t-8 19v151q0 11 8 19t19 8h183v290h-183q-11 0 -19 8t-8 19v151q0 11 8 19t19 8h634q11 0 19 -8t8 -19v-151q0 -11 -8 -19t-19 -8zM485 855h99q19 0 19 -13q0 -47 -46 -79.5
t-131.5 -32.5t-131.5 32.5t-46 79.5q0 13 19 13h99q15 0 19 -13q6 -25 38 -25t43 25q6 13 19 13z" />
    <glyph glyph-name="Iogonek" unicode="&#x12e;" 
d="M742 495h-181v-290h181q11 0 19 -8t8 -19v-151q0 -11 -8 -19t-19 -8h-7q-43 0 -43 -26t43 -26h7q27 0 27 -25v-41q0 -11 -7.5 -17.5t-19.5 -6.5h-14q-152 0 -152 116q0 18 2 26h-470q-11 0 -19 8t-8 19v151q0 11 8 19t19 8h183v290h-183q-11 0 -19 8t-8 19v151q0 11 8 19
t19 8h634q11 0 19 -8t8 -19v-151q0 -11 -8 -19t-19 -8z" />
    <glyph glyph-name="iogonek" unicode="&#x12f;" 
d="M742 495h-181v-290h181q11 0 19 -8t8 -19v-151q0 -11 -8 -19t-19 -8h-7q-43 0 -43 -26t43 -26h7q27 0 27 -25v-41q0 -11 -7.5 -17.5t-19.5 -6.5h-14q-152 0 -152 116q0 18 2 26h-470q-11 0 -19 8t-8 19v151q0 11 8 19t19 8h183v290h-183q-11 0 -19 8t-8 19v151q0 11 8 19
t19 8h634q11 0 19 -8t8 -19v-151q0 -11 -8 -19t-19 -8z" />
    <glyph glyph-name="Idotaccent" unicode="&#x130;" 
d="M742 495h-181v-290h181q11 0 19 -8t8 -19v-151q0 -11 -8 -19t-19 -8h-634q-11 0 -19 8t-8 19v151q0 11 8 19t19 8h183v290h-183q-11 0 -19 8t-8 19v151q0 11 8 19t19 8h634q11 0 19 -8t8 -19v-151q0 -11 -8 -19t-19 -8zM357 850h136q10 0 16.5 -6.5t6.5 -16.5v-73
q0 -10 -6.5 -16.5t-16.5 -6.5h-136q-10 0 -16.5 6.5t-6.5 16.5v73q0 10 6.5 16.5t16.5 6.5z" />
    <glyph glyph-name="Jcircumflex" unicode="&#x134;" 
d="M768 673v-382q0 -152 -100 -226.5t-267 -74.5q-91 0 -165 23.5t-118 61.5q-91 79 -91 170q0 9 6.5 15.5t15.5 6.5h226q18 0 25 -22q19 -60 96 -60q47 0 74.5 22t27.5 63v225h-365q-11 0 -19 8t-8 19v151q0 11 8 19t19 8h608q11 0 19 -8t8 -19zM338 731h-81q-16 0 -16 16
q0 9 8 14l83 70q27 19 47 19h112q20 0 47 -19l83 -70q8 -5 8 -14q0 -16 -16 -16h-81q-18 0 -40 7l-57 22l-57 -22q-22 -7 -40 -7z" />
    <glyph glyph-name="jcircumflex" unicode="&#x135;" 
d="M768 673v-382q0 -152 -100 -226.5t-267 -74.5q-91 0 -165 23.5t-118 61.5q-91 79 -91 170q0 9 6.5 15.5t15.5 6.5h226q18 0 25 -22q19 -60 96 -60q47 0 74.5 22t27.5 63v225h-365q-11 0 -19 8t-8 19v151q0 11 8 19t19 8h608q11 0 19 -8t8 -19zM338 731h-81q-16 0 -16 16
q0 9 8 14l83 70q27 19 47 19h112q20 0 47 -19l83 -70q8 -5 8 -14q0 -16 -16 -16h-81q-18 0 -40 7l-57 22l-57 -22q-22 -7 -40 -7z" />
    <glyph glyph-name="Kcommaaccent" unicode="&#x136;" 
d="M838 35q4 -6 4 -14t-6.5 -14.5t-15.5 -6.5h-258q-23 0 -36 16l-174 215v-204q0 -11 -8 -19t-19 -8h-206q-11 0 -19 8t-8 19v646q0 11 8 19t19 8h206q11 0 19 -8t8 -19v-188l158 198q15 17 37 17h241q9 0 15.5 -6.5t6.5 -15t-5 -14.5l-237 -289zM514 -31q19 0 19 -20
q0 -7 -5 -12l-95 -80q-9 -7 -28 -7h-133q-16 0 -16 16q0 8 5 13l58 71q14 17 37 19h158z" />
    <glyph glyph-name="kcommaaccent" unicode="&#x137;" 
d="M838 35q4 -6 4 -14t-6.5 -14.5t-15.5 -6.5h-258q-23 0 -36 16l-174 215v-204q0 -11 -8 -19t-19 -8h-206q-11 0 -19 8t-8 19v646q0 11 8 19t19 8h206q11 0 19 -8t8 -19v-188l158 198q15 17 37 17h241q9 0 15.5 -6.5t6.5 -15t-5 -14.5l-237 -289zM514 -31q19 0 19 -20
q0 -7 -5 -12l-95 -80q-9 -7 -28 -7h-133q-16 0 -16 16q0 8 5 13l58 71q14 17 37 19h158z" />
    <glyph glyph-name="Lacute" unicode="&#x139;" 
d="M410 205h341q11 0 19 -8t8 -19v-151q0 -11 -8 -19t-19 -8h-584q-11 0 -19 8t-8 19v646q0 11 8 19t19 8h216q11 0 19 -8t8 -19v-468zM435 850q19 0 19 -20q0 -7 -5 -12l-95 -80q-9 -7 -28 -7h-133q-16 0 -16 16q0 8 5 13l58 71q14 17 37 19h158z" />
    <glyph glyph-name="lacute" unicode="&#x13a;" 
d="M410 205h341q11 0 19 -8t8 -19v-151q0 -11 -8 -19t-19 -8h-584q-11 0 -19 8t-8 19v646q0 11 8 19t19 8h216q11 0 19 -8t8 -19v-468zM435 850q19 0 19 -20q0 -7 -5 -12l-95 -80q-9 -7 -28 -7h-133q-16 0 -16 16q0 8 5 13l58 71q14 17 37 19h158z" />
    <glyph glyph-name="Lcommaaccent" unicode="&#x13b;" 
d="M410 205h341q11 0 19 -8t8 -19v-151q0 -11 -8 -19t-19 -8h-584q-11 0 -19 8t-8 19v646q0 11 8 19t19 8h216q11 0 19 -8t8 -19v-468zM536 -31q19 0 19 -20q0 -7 -5 -12l-95 -80q-9 -7 -28 -7h-133q-16 0 -16 16q0 8 5 13l58 71q14 17 37 19h158z" />
    <glyph glyph-name="lcommaaccent" unicode="&#x13c;" 
d="M410 205h341q11 0 19 -8t8 -19v-151q0 -11 -8 -19t-19 -8h-584q-11 0 -19 8t-8 19v646q0 11 8 19t19 8h216q11 0 19 -8t8 -19v-468zM536 -31q19 0 19 -20q0 -7 -5 -12l-95 -80q-9 -7 -28 -7h-133q-16 0 -16 16q0 8 5 13l58 71q14 17 37 19h158z" />
    <glyph glyph-name="Lcaron" unicode="&#x13d;" 
d="M556 711h135q9 0 15.5 -6.5t6.5 -13t-1 -9.5l-81 -140q-19 -32 -46 -32h-78q-9 0 -15.5 6.5t-6.5 15.5v2l23 138q2 15 15.5 27t32.5 12zM410 205h341q11 0 19 -8t8 -19v-151q0 -11 -8 -19t-19 -8h-584q-11 0 -19 8t-8 19v646q0 11 8 19t19 8h216q11 0 19 -8t8 -19v-468z
" />
    <glyph glyph-name="lcaron" unicode="&#x13e;" 
d="M556 711h135q9 0 15.5 -6.5t6.5 -13t-1 -9.5l-81 -140q-19 -32 -46 -32h-78q-9 0 -15.5 6.5t-6.5 15.5v2l23 138q2 15 15.5 27t32.5 12zM410 205h341q11 0 19 -8t8 -19v-151q0 -11 -8 -19t-19 -8h-584q-11 0 -19 8t-8 19v646q0 11 8 19t19 8h216q11 0 19 -8t8 -19v-468z
" />
    <glyph glyph-name="Ldot" unicode="&#x13f;" 
d="M508 496h136q10 0 16.5 -6.5t6.5 -16.5v-136q0 -10 -6.5 -16.5t-16.5 -6.5h-136q-10 0 -16.5 6.5t-6.5 16.5v136q0 10 6.5 16.5t16.5 6.5zM410 205h341q11 0 19 -8t8 -19v-151q0 -11 -8 -19t-19 -8h-584q-11 0 -19 8t-8 19v646q0 11 8 19t19 8h216q11 0 19 -8t8 -19v-468
z" />
    <glyph glyph-name="ldot" unicode="&#x140;" 
d="M508 496h136q10 0 16.5 -6.5t6.5 -16.5v-136q0 -10 -6.5 -16.5t-16.5 -6.5h-136q-10 0 -16.5 6.5t-6.5 16.5v136q0 10 6.5 16.5t16.5 6.5zM410 205h341q11 0 19 -8t8 -19v-151q0 -11 -8 -19t-19 -8h-584q-11 0 -19 8t-8 19v646q0 11 8 19t19 8h216q11 0 19 -8t8 -19v-468
z" />
    <glyph glyph-name="Lslash" unicode="&#x141;" 
d="M410 205h341q11 0 19 -8t8 -19v-151q0 -11 -8 -19t-19 -8h-584q-11 0 -19 8t-8 19v190l-23 -9q-7 -3 -13.5 -3t-12.5 6t-6 15v108q0 25 22 33l33 13v293q0 11 8 19t19 8h216q11 0 19 -8t8 -19v-186l174 70q8 3 14 3t12 -6t6 -15v-108q0 -25 -22 -33l-184 -74v-119z" />
    <glyph glyph-name="lslash" unicode="&#x142;" 
d="M410 205h341q11 0 19 -8t8 -19v-151q0 -11 -8 -19t-19 -8h-584q-11 0 -19 8t-8 19v190l-23 -9q-7 -3 -13.5 -3t-12.5 6t-6 15v108q0 25 22 33l33 13v293q0 11 8 19t19 8h216q11 0 19 -8t8 -19v-186l174 70q8 3 14 3t12 -6t6 -15v-108q0 -25 -22 -33l-184 -74v-119z" />
    <glyph glyph-name="Nacute" unicode="&#x143;" 
d="M552 700h186q11 0 19 -8t8 -19v-646q0 -11 -8 -19t-19 -8h-161q-24 0 -40 21l-218 278v-272q0 -11 -8 -19t-19 -8h-186q-11 0 -19 8t-8 19v646q0 11 8 19t19 8h162q24 0 39 -20l218 -301v294q0 11 8 19t19 8zM584 850q19 0 19 -20q0 -7 -5 -12l-95 -80q-9 -7 -28 -7h-133
q-16 0 -16 16q0 8 5 13l58 71q14 17 37 19h158z" />
    <glyph glyph-name="nacute" unicode="&#x144;" 
d="M552 700h186q11 0 19 -8t8 -19v-646q0 -11 -8 -19t-19 -8h-161q-24 0 -40 21l-218 278v-272q0 -11 -8 -19t-19 -8h-186q-11 0 -19 8t-8 19v646q0 11 8 19t19 8h162q24 0 39 -20l218 -301v294q0 11 8 19t19 8zM584 850q19 0 19 -20q0 -7 -5 -12l-95 -80q-9 -7 -28 -7h-133
q-16 0 -16 16q0 8 5 13l58 71q14 17 37 19h158z" />
    <glyph glyph-name="Ncommaaccent" unicode="&#x145;" 
d="M552 700h186q11 0 19 -8t8 -19v-646q0 -11 -8 -19t-19 -8h-161q-24 0 -40 21l-218 278v-272q0 -11 -8 -19t-19 -8h-186q-11 0 -19 8t-8 19v646q0 11 8 19t19 8h162q24 0 39 -20l218 -301v294q0 11 8 19t19 8zM514 -31q19 0 19 -20q0 -7 -5 -12l-95 -80q-9 -7 -28 -7h-133
q-16 0 -16 16q0 8 5 13l58 71q14 17 37 19h158z" />
    <glyph glyph-name="ncommaaccent" unicode="&#x146;" 
d="M552 700h186q11 0 19 -8t8 -19v-646q0 -11 -8 -19t-19 -8h-161q-24 0 -40 21l-218 278v-272q0 -11 -8 -19t-19 -8h-186q-11 0 -19 8t-8 19v646q0 11 8 19t19 8h162q24 0 39 -20l218 -301v294q0 11 8 19t19 8zM514 -31q19 0 19 -20q0 -7 -5 -12l-95 -80q-9 -7 -28 -7h-133
q-16 0 -16 16q0 8 5 13l58 71q14 17 37 19h158z" />
    <glyph glyph-name="Ncaron" unicode="&#x147;" 
d="M552 700h186q11 0 19 -8t8 -19v-646q0 -11 -8 -19t-19 -8h-161q-24 0 -40 21l-218 278v-272q0 -11 -8 -19t-19 -8h-186q-11 0 -19 8t-8 19v646q0 11 8 19t19 8h162q24 0 39 -20l218 -301v294q0 11 8 19t19 8zM522 850h81q16 0 16 -16q0 -9 -8 -14l-83 -70
q-27 -19 -47 -19h-112q-20 0 -47 19l-83 70q-8 5 -8 14q0 16 16 16h81q18 0 40 -7l57 -22l57 22q22 7 40 7z" />
    <glyph glyph-name="ncaron" unicode="&#x148;" 
d="M552 700h186q11 0 19 -8t8 -19v-646q0 -11 -8 -19t-19 -8h-161q-24 0 -40 21l-218 278v-272q0 -11 -8 -19t-19 -8h-186q-11 0 -19 8t-8 19v646q0 11 8 19t19 8h162q24 0 39 -20l218 -301v294q0 11 8 19t19 8zM522 850h81q16 0 16 -16q0 -9 -8 -14l-83 -70
q-27 -19 -47 -19h-112q-20 0 -47 19l-83 70q-8 5 -8 14q0 16 16 16h81q18 0 40 -7l57 -22l57 22q22 7 40 7z" />
    <glyph glyph-name="Eng" unicode="&#x14a;" 
d="M319 27q0 -11 -8 -19t-19 -8h-186q-11 0 -19 8t-8 19v646q0 11 8 19t19 8h162q24 0 39 -20l218 -301v294q0 11 8 19t19 8h186q11 0 19 -8t8 -19v-565q0 -152 -81 -208q-72 -50 -191 -50h-70q-11 0 -19 8t-8 19v56q0 11 8 19t19 8l22 1q74 10 79 75l-205 263v-272z" />
    <glyph glyph-name="eng" unicode="&#x14b;" 
d="M319 27q0 -11 -8 -19t-19 -8h-186q-11 0 -19 8t-8 19v646q0 11 8 19t19 8h162q24 0 39 -20l218 -301v294q0 11 8 19t19 8h186q11 0 19 -8t8 -19v-565q0 -152 -81 -208q-72 -50 -191 -50h-70q-11 0 -19 8t-8 19v56q0 11 8 19t19 8l22 1q74 10 79 75l-205 263v-272z" />
    <glyph glyph-name="Omacron" unicode="&#x14c;" 
d="M797 411v-122q0 -103 -50 -172t-131 -98t-191 -29t-191 29t-131 98t-50 174v118q0 151 103.5 226t268.5 75t268.5 -75t103.5 -224zM323 430v-160q0 -41 27.5 -63t74.5 -22t74.5 22.5t27.5 63.5v158q0 41 -27.5 63.5t-74.5 22.5t-74.5 -22t-27.5 -63zM242 850h367
q10 0 16.5 -6.5t6.5 -16.5v-73q0 -10 -6.5 -16.5t-16.5 -6.5h-367q-10 0 -16.5 6.5t-6.5 16.5v73q0 10 6.5 16.5t16.5 6.5z" />
    <glyph glyph-name="omacron" unicode="&#x14d;" 
d="M797 411v-122q0 -103 -50 -172t-131 -98t-191 -29t-191 29t-131 98t-50 174v118q0 151 103.5 226t268.5 75t268.5 -75t103.5 -224zM323 430v-160q0 -41 27.5 -63t74.5 -22t74.5 22.5t27.5 63.5v158q0 41 -27.5 63.5t-74.5 22.5t-74.5 -22t-27.5 -63zM242 850h367
q10 0 16.5 -6.5t6.5 -16.5v-73q0 -10 -6.5 -16.5t-16.5 -6.5h-367q-10 0 -16.5 6.5t-6.5 16.5v73q0 10 6.5 16.5t16.5 6.5z" />
    <glyph glyph-name="Obreve" unicode="&#x14e;" 
d="M797 411v-122q0 -103 -50 -172t-131 -98t-191 -29t-191 29t-131 98t-50 174v118q0 151 103.5 226t268.5 75t268.5 -75t103.5 -224zM323 430v-160q0 -41 27.5 -63t74.5 -22t74.5 22.5t27.5 63.5v158q0 41 -27.5 63.5t-74.5 22.5t-74.5 -22t-27.5 -63zM483 855h99
q19 0 19 -13q0 -47 -46 -79.5t-131.5 -32.5t-131.5 32.5t-46 79.5q0 13 19 13h99q15 0 19 -13q6 -25 38 -25t43 25q6 13 19 13z" />
    <glyph glyph-name="obreve" unicode="&#x14f;" 
d="M797 411v-122q0 -103 -50 -172t-131 -98t-191 -29t-191 29t-131 98t-50 174v118q0 151 103.5 226t268.5 75t268.5 -75t103.5 -224zM323 430v-160q0 -41 27.5 -63t74.5 -22t74.5 22.5t27.5 63.5v158q0 41 -27.5 63.5t-74.5 22.5t-74.5 -22t-27.5 -63zM483 855h99
q19 0 19 -13q0 -47 -46 -79.5t-131.5 -32.5t-131.5 32.5t-46 79.5q0 13 19 13h99q15 0 19 -13q6 -25 38 -25t43 25q6 13 19 13z" />
    <glyph glyph-name="Ohungarumlaut" unicode="&#x150;" 
d="M797 411v-122q0 -103 -50 -172t-131 -98t-191 -29t-191 29t-131 98t-50 174v118q0 151 103.5 226t268.5 75t268.5 -75t103.5 -224zM323 430v-160q0 -41 27.5 -63t74.5 -22t74.5 22.5t27.5 63.5v158q0 41 -27.5 63.5t-74.5 22.5t-74.5 -22t-27.5 -63zM464 850q19 0 19 -20
q0 -7 -5 -12l-75 -80q-9 -7 -28 -7h-113q-16 0 -16 16q0 3 5 13l38 71q14 17 37 19h138zM697 850q19 0 19 -20q0 -7 -5 -12l-75 -80q-9 -7 -28 -7h-113q-16 0 -16 16q0 3 5 13l38 71q14 17 37 19h138z" />
    <glyph glyph-name="ohungarumlaut" unicode="&#x151;" 
d="M797 411v-122q0 -103 -50 -172t-131 -98t-191 -29t-191 29t-131 98t-50 174v118q0 151 103.5 226t268.5 75t268.5 -75t103.5 -224zM323 430v-160q0 -41 27.5 -63t74.5 -22t74.5 22.5t27.5 63.5v158q0 41 -27.5 63.5t-74.5 22.5t-74.5 -22t-27.5 -63zM464 850q19 0 19 -20
q0 -7 -5 -12l-75 -80q-9 -7 -28 -7h-113q-16 0 -16 16q0 3 5 13l38 71q14 17 37 19h138zM697 850q19 0 19 -20q0 -7 -5 -12l-75 -80q-9 -7 -28 -7h-113q-16 0 -16 16q0 3 5 13l38 71q14 17 37 19h138z" />
    <glyph glyph-name="OE" unicode="&#x152;" 
d="M778 0h-382q-342 0 -342 300v99q0 154 90.5 227.5t251.5 73.5h372q11 0 19 -8t8 -19v-141q0 -11 -8 -19t-19 -8h-132v-63h108q11 0 19 -8t8 -19v-130q0 -11 -8 -19t-19 -8h-108v-63h142q11 0 19 -8t8 -19v-141q0 -11 -8 -19t-19 -8zM294 420v-141q0 -40 27.5 -62
t74.5 -22v310q-47 0 -74.5 -22t-27.5 -63z" />
    <glyph glyph-name="oe" unicode="&#x153;" 
d="M778 0h-382q-342 0 -342 300v99q0 154 90.5 227.5t251.5 73.5h372q11 0 19 -8t8 -19v-141q0 -11 -8 -19t-19 -8h-132v-63h108q11 0 19 -8t8 -19v-130q0 -11 -8 -19t-19 -8h-108v-63h142q11 0 19 -8t8 -19v-141q0 -11 -8 -19t-19 -8zM294 420v-141q0 -40 27.5 -62
t74.5 -22v310q-47 0 -74.5 -22t-27.5 -63z" />
    <glyph glyph-name="Racute" unicode="&#x154;" 
d="M822 31q2 -4 2 -11t-6.5 -13.5t-15.5 -6.5h-227q-30 0 -42 25l-88 198h-84v-196q0 -11 -8 -19t-19 -8h-216q-11 0 -19 8t-8 19v646q0 11 8 19t19 8h389q137 0 217 -65t80 -177q0 -136 -105 -197zM361 514v-106h125q22 0 34 14.5t12 36.5t-11.5 38.5t-34.5 16.5h-125z
M574 850q19 0 19 -20q0 -7 -5 -12l-95 -80q-9 -7 -28 -7h-133q-16 0 -16 16q0 8 5 13l58 71q14 17 37 19h158z" />
    <glyph glyph-name="racute" unicode="&#x155;" 
d="M822 31q2 -4 2 -11t-6.5 -13.5t-15.5 -6.5h-227q-30 0 -42 25l-88 198h-84v-196q0 -11 -8 -19t-19 -8h-216q-11 0 -19 8t-8 19v646q0 11 8 19t19 8h389q137 0 217 -65t80 -177q0 -136 -105 -197zM361 514v-106h125q22 0 34 14.5t12 36.5t-11.5 38.5t-34.5 16.5h-125z
M574 850q19 0 19 -20q0 -7 -5 -12l-95 -80q-9 -7 -28 -7h-133q-16 0 -16 16q0 8 5 13l58 71q14 17 37 19h158z" />
    <glyph glyph-name="Rcommaaccent" unicode="&#x156;" 
d="M822 31q2 -4 2 -11t-6.5 -13.5t-15.5 -6.5h-227q-30 0 -42 25l-88 198h-84v-196q0 -11 -8 -19t-19 -8h-216q-11 0 -19 8t-8 19v646q0 11 8 19t19 8h389q137 0 217 -65t80 -177q0 -136 -105 -197zM361 514v-106h125q22 0 34 14.5t12 36.5t-11.5 38.5t-34.5 16.5h-125z
M534 -31q19 0 19 -20q0 -7 -5 -12l-95 -80q-9 -7 -28 -7h-133q-16 0 -16 16q0 8 5 13l58 71q14 17 37 19h158z" />
    <glyph glyph-name="rcommaaccent" unicode="&#x157;" 
d="M822 31q2 -4 2 -11t-6.5 -13.5t-15.5 -6.5h-227q-30 0 -42 25l-88 198h-84v-196q0 -11 -8 -19t-19 -8h-216q-11 0 -19 8t-8 19v646q0 11 8 19t19 8h389q137 0 217 -65t80 -177q0 -136 -105 -197zM361 514v-106h125q22 0 34 14.5t12 36.5t-11.5 38.5t-34.5 16.5h-125z
M534 -31q19 0 19 -20q0 -7 -5 -12l-95 -80q-9 -7 -28 -7h-133q-16 0 -16 16q0 8 5 13l58 71q14 17 37 19h158z" />
    <glyph glyph-name="Rcaron" unicode="&#x158;" 
d="M822 31q2 -4 2 -11t-6.5 -13.5t-15.5 -6.5h-227q-30 0 -42 25l-88 198h-84v-196q0 -11 -8 -19t-19 -8h-216q-11 0 -19 8t-8 19v646q0 11 8 19t19 8h389q137 0 217 -65t80 -177q0 -136 -105 -197zM361 514v-106h125q22 0 34 14.5t12 36.5t-11.5 38.5t-34.5 16.5h-125z
M512 850h81q16 0 16 -16q0 -9 -8 -14l-83 -70q-27 -19 -47 -19h-112q-20 0 -47 19l-83 70q-8 5 -8 14q0 16 16 16h81q18 0 40 -7l57 -22l57 22q22 7 40 7z" />
    <glyph glyph-name="rcaron" unicode="&#x159;" 
d="M822 31q2 -4 2 -11t-6.5 -13.5t-15.5 -6.5h-227q-30 0 -42 25l-88 198h-84v-196q0 -11 -8 -19t-19 -8h-216q-11 0 -19 8t-8 19v646q0 11 8 19t19 8h389q137 0 217 -65t80 -177q0 -136 -105 -197zM361 514v-106h125q22 0 34 14.5t12 36.5t-11.5 38.5t-34.5 16.5h-125z
M512 850h81q16 0 16 -16q0 -9 -8 -14l-83 -70q-27 -19 -47 -19h-112q-20 0 -47 19l-83 70q-8 5 -8 14q0 16 16 16h81q18 0 40 -7l57 -22l57 22q22 7 40 7z" />
    <glyph glyph-name="Sacute" unicode="&#x15a;" 
d="M713.5 375.5q69.5 -51.5 69.5 -154.5t-101 -167t-268 -64t-259.5 61.5t-92.5 151.5q0 22 23 22h205q21 0 34 -13q28 -27 97 -27q95 0 95 29q0 18 -30 28.5t-119 20.5q-283 34 -283 217q0 103 91 166.5t243.5 63.5t246.5 -66.5t94 -140.5q0 -10 -6.5 -16t-17.5 -6h-215
q-18 0 -31 12q-24 22 -72 22q-67 0 -67 -28q0 -15 26 -23.5t104 -17.5q164 -19 233.5 -70.5zM564 850q19 0 19 -20q0 -7 -5 -12l-95 -80q-9 -7 -28 -7h-133q-16 0 -16 16q0 8 5 13l58 71q14 17 37 19h158z" />
    <glyph glyph-name="sacute" unicode="&#x15b;" 
d="M713.5 375.5q69.5 -51.5 69.5 -154.5t-101 -167t-268 -64t-259.5 61.5t-92.5 151.5q0 22 23 22h205q21 0 34 -13q28 -27 97 -27q95 0 95 29q0 18 -30 28.5t-119 20.5q-283 34 -283 217q0 103 91 166.5t243.5 63.5t246.5 -66.5t94 -140.5q0 -10 -6.5 -16t-17.5 -6h-215
q-18 0 -31 12q-24 22 -72 22q-67 0 -67 -28q0 -15 26 -23.5t104 -17.5q164 -19 233.5 -70.5zM564 850q19 0 19 -20q0 -7 -5 -12l-95 -80q-9 -7 -28 -7h-133q-16 0 -16 16q0 8 5 13l58 71q14 17 37 19h158z" />
    <glyph glyph-name="Scircumflex" unicode="&#x15c;" 
d="M713.5 375.5q69.5 -51.5 69.5 -154.5t-101 -167t-268 -64t-259.5 61.5t-92.5 151.5q0 22 23 22h205q21 0 34 -13q28 -27 97 -27q95 0 95 29q0 18 -30 28.5t-119 20.5q-283 34 -283 217q0 103 91 166.5t243.5 63.5t246.5 -66.5t94 -140.5q0 -10 -6.5 -16t-17.5 -6h-215
q-18 0 -31 12q-24 22 -72 22q-67 0 -67 -28q0 -15 26 -23.5t104 -17.5q164 -19 233.5 -70.5zM324 731h-81q-16 0 -16 16q0 9 8 14l83 70q27 19 47 19h112q20 0 47 -19l83 -70q8 -5 8 -14q0 -16 -16 -16h-81q-18 0 -40 7l-57 22l-57 -22q-22 -7 -40 -7z" />
    <glyph glyph-name="scircumflex" unicode="&#x15d;" 
d="M713.5 375.5q69.5 -51.5 69.5 -154.5t-101 -167t-268 -64t-259.5 61.5t-92.5 151.5q0 22 23 22h205q21 0 34 -13q28 -27 97 -27q95 0 95 29q0 18 -30 28.5t-119 20.5q-283 34 -283 217q0 103 91 166.5t243.5 63.5t246.5 -66.5t94 -140.5q0 -10 -6.5 -16t-17.5 -6h-215
q-18 0 -31 12q-24 22 -72 22q-67 0 -67 -28q0 -15 26 -23.5t104 -17.5q164 -19 233.5 -70.5zM324 731h-81q-16 0 -16 16q0 9 8 14l83 70q27 19 47 19h112q20 0 47 -19l83 -70q8 -5 8 -14q0 -16 -16 -16h-81q-18 0 -40 7l-57 22l-57 -22q-22 -7 -40 -7z" />
    <glyph glyph-name="Scedilla" unicode="&#x15e;" 
d="M713.5 375.5q69.5 -51.5 69.5 -152t-93.5 -164t-243.5 -68.5l-6 -17q9 4 43 4t59.5 -16t25.5 -47.5t-35.5 -48t-83 -16.5t-85.5 13t-38 37q0 11 13 11h61q11 0 22 -6.5t35 -6.5t24 19q0 17 -28 17q-15 0 -27 -4.5t-21 -4.5h-44q-15 0 -15 13q0 3 2 9l14 45
q-146 11 -223 70t-77 141q0 22 23 22h205q21 0 34 -13q28 -27 97 -27q95 0 95 29q0 18 -30 28.5t-119 20.5q-283 34 -283 217q0 103 91 166.5t243.5 63.5t246.5 -66.5t94 -140.5q0 -10 -6.5 -16t-17.5 -6h-215q-18 0 -31 12q-24 22 -72 22q-67 0 -67 -28q0 -15 26 -23.5
t104 -17.5q164 -19 233.5 -70.5z" />
    <glyph glyph-name="scedilla" unicode="&#x15f;" 
d="M713.5 375.5q69.5 -51.5 69.5 -152t-93.5 -164t-243.5 -68.5l-6 -17q9 4 43 4t59.5 -16t25.5 -47.5t-35.5 -48t-83 -16.5t-85.5 13t-38 37q0 11 13 11h61q11 0 22 -6.5t35 -6.5t24 19q0 17 -28 17q-15 0 -27 -4.5t-21 -4.5h-44q-15 0 -15 13q0 3 2 9l14 45
q-146 11 -223 70t-77 141q0 22 23 22h205q21 0 34 -13q28 -27 97 -27q95 0 95 29q0 18 -30 28.5t-119 20.5q-283 34 -283 217q0 103 91 166.5t243.5 63.5t246.5 -66.5t94 -140.5q0 -10 -6.5 -16t-17.5 -6h-215q-18 0 -31 12q-24 22 -72 22q-67 0 -67 -28q0 -15 26 -23.5
t104 -17.5q164 -19 233.5 -70.5z" />
    <glyph glyph-name="Scaron" unicode="&#x160;" 
d="M713.5 375.5q69.5 -51.5 69.5 -154.5t-101 -167t-268 -64t-259.5 61.5t-92.5 151.5q0 22 23 22h205q21 0 34 -13q28 -27 97 -27q95 0 95 29q0 18 -30 28.5t-119 20.5q-283 34 -283 217q0 103 91 166.5t243.5 63.5t246.5 -66.5t94 -140.5q0 -10 -6.5 -16t-17.5 -6h-215
q-18 0 -31 12q-24 22 -72 22q-67 0 -67 -28q0 -15 26 -23.5t104 -17.5q164 -19 233.5 -70.5zM518 850h81q16 0 16 -16q0 -9 -8 -14l-83 -70q-27 -19 -47 -19h-112q-20 0 -47 19l-83 70q-8 5 -8 14q0 16 16 16h81q18 0 40 -7l57 -22l57 22q22 7 40 7z" />
    <glyph glyph-name="scaron" unicode="&#x161;" 
d="M713.5 375.5q69.5 -51.5 69.5 -154.5t-101 -167t-268 -64t-259.5 61.5t-92.5 151.5q0 22 23 22h205q21 0 34 -13q28 -27 97 -27q95 0 95 29q0 18 -30 28.5t-119 20.5q-283 34 -283 217q0 103 91 166.5t243.5 63.5t246.5 -66.5t94 -140.5q0 -10 -6.5 -16t-17.5 -6h-215
q-18 0 -31 12q-24 22 -72 22q-67 0 -67 -28q0 -15 26 -23.5t104 -17.5q164 -19 233.5 -70.5zM518 850h81q16 0 16 -16q0 -9 -8 -14l-83 -70q-27 -19 -47 -19h-112q-20 0 -47 19l-83 70q-8 5 -8 14q0 16 16 16h81q18 0 40 -7l57 -22l57 22q22 7 40 7z" />
    <glyph glyph-name="Tcommaaccent" unicode="&#x162;" 
d="M80 700h690q11 0 19 -8t8 -19v-161q0 -11 -8 -19t-19 -8h-215v-458q0 -11 -8 -19t-19 -8h-206q-11 0 -19 8t-8 19v458h-215q-11 0 -19 8t-8 19v161q0 11 8 19t19 8zM504 -31q19 0 19 -20q0 -7 -5 -12l-95 -80q-9 -7 -28 -7h-133q-16 0 -16 16q0 8 5 13l58 71q14 17 37 19
h158z" />
    <glyph glyph-name="tcommaaccent" unicode="&#x163;" 
d="M80 700h690q11 0 19 -8t8 -19v-161q0 -11 -8 -19t-19 -8h-215v-458q0 -11 -8 -19t-19 -8h-206q-11 0 -19 8t-8 19v458h-215q-11 0 -19 8t-8 19v161q0 11 8 19t19 8zM504 -31q19 0 19 -20q0 -7 -5 -12l-95 -80q-9 -7 -28 -7h-133q-16 0 -16 16q0 8 5 13l58 71q14 17 37 19
h158z" />
    <glyph glyph-name="Tcaron" unicode="&#x164;" 
d="M80 700h690q11 0 19 -8t8 -19v-161q0 -11 -8 -19t-19 -8h-215v-458q0 -11 -8 -19t-19 -8h-206q-11 0 -19 8t-8 19v458h-215q-11 0 -19 8t-8 19v161q0 11 8 19t19 8zM522 850h81q16 0 16 -16q0 -9 -8 -14l-83 -70q-27 -19 -47 -19h-112q-20 0 -47 19l-83 70q-8 5 -8 14
q0 16 16 16h81q18 0 40 -7l57 -22l57 22q22 7 40 7z" />
    <glyph glyph-name="tcaron" unicode="&#x165;" 
d="M80 700h690q11 0 19 -8t8 -19v-161q0 -11 -8 -19t-19 -8h-215v-458q0 -11 -8 -19t-19 -8h-206q-11 0 -19 8t-8 19v458h-215q-11 0 -19 8t-8 19v161q0 11 8 19t19 8zM522 850h81q16 0 16 -16q0 -9 -8 -14l-83 -70q-27 -19 -47 -19h-112q-20 0 -47 19l-83 70q-8 5 -8 14
q0 16 16 16h81q18 0 40 -7l57 -22l57 22q22 7 40 7z" />
    <glyph glyph-name="Tbar" unicode="&#x166;" 
d="M208 380h87v105h-215q-11 0 -19 8t-8 19v161q0 11 8 19t19 8h690q11 0 19 -8t8 -19v-161q0 -11 -8 -19t-19 -8h-215v-105h87q11 0 19 -8t8 -19v-71q0 -11 -8 -19t-19 -8h-87v-228q0 -11 -8 -19t-19 -8h-206q-11 0 -19 8t-8 19v228h-87q-11 0 -19 8t-8 19v71q0 11 8 19
t19 8z" />
    <glyph glyph-name="tbar" unicode="&#x167;" 
d="M208 380h87v105h-215q-11 0 -19 8t-8 19v161q0 11 8 19t19 8h690q11 0 19 -8t8 -19v-161q0 -11 -8 -19t-19 -8h-215v-105h87q11 0 19 -8t8 -19v-71q0 -11 -8 -19t-19 -8h-87v-228q0 -11 -8 -19t-19 -8h-206q-11 0 -19 8t-8 19v228h-87q-11 0 -19 8t-8 19v71q0 11 8 19
t19 8z" />
    <glyph glyph-name="Utilde" unicode="&#x168;" 
d="M425 -10q-168 0 -266.5 73t-98.5 228v382q0 11 8 19t19 8h209q11 0 19 -8t8 -19v-398q0 -41 27.5 -63t74.5 -22t74.5 22t27.5 63v398q0 11 8 19t19 8h209q11 0 19 -8t8 -19v-382q0 -155 -98.5 -228t-266.5 -73zM487 730q-28 0 -61 12t-48 12t-26.5 -9.5t-22.5 -9.5h-84
q-8 0 -13.5 5.5t-5.5 15t6.5 24.5t20 33t42.5 30t62 12t66 -12t47.5 -12t26.5 9.5t23 9.5h84q19 0 19 -19q0 -30 -32.5 -65.5t-103.5 -35.5z" />
    <glyph glyph-name="utilde" unicode="&#x169;" 
d="M425 -10q-168 0 -266.5 73t-98.5 228v382q0 11 8 19t19 8h209q11 0 19 -8t8 -19v-398q0 -41 27.5 -63t74.5 -22t74.5 22t27.5 63v398q0 11 8 19t19 8h209q11 0 19 -8t8 -19v-382q0 -155 -98.5 -228t-266.5 -73zM487 730q-28 0 -61 12t-48 12t-26.5 -9.5t-22.5 -9.5h-84
q-8 0 -13.5 5.5t-5.5 15t6.5 24.5t20 33t42.5 30t62 12t66 -12t47.5 -12t26.5 9.5t23 9.5h84q19 0 19 -19q0 -30 -32.5 -65.5t-103.5 -35.5z" />
    <glyph glyph-name="Umacron" unicode="&#x16a;" 
d="M425 -10q-168 0 -266.5 73t-98.5 228v382q0 11 8 19t19 8h209q11 0 19 -8t8 -19v-398q0 -41 27.5 -63t74.5 -22t74.5 22t27.5 63v398q0 11 8 19t19 8h209q11 0 19 -8t8 -19v-382q0 -155 -98.5 -228t-266.5 -73zM242 850h367q10 0 16.5 -6.5t6.5 -16.5v-73
q0 -10 -6.5 -16.5t-16.5 -6.5h-367q-10 0 -16.5 6.5t-6.5 16.5v73q0 10 6.5 16.5t16.5 6.5z" />
    <glyph glyph-name="umacron" unicode="&#x16b;" 
d="M425 -10q-168 0 -266.5 73t-98.5 228v382q0 11 8 19t19 8h209q11 0 19 -8t8 -19v-398q0 -41 27.5 -63t74.5 -22t74.5 22t27.5 63v398q0 11 8 19t19 8h209q11 0 19 -8t8 -19v-382q0 -155 -98.5 -228t-266.5 -73zM242 850h367q10 0 16.5 -6.5t6.5 -16.5v-73
q0 -10 -6.5 -16.5t-16.5 -6.5h-367q-10 0 -16.5 6.5t-6.5 16.5v73q0 10 6.5 16.5t16.5 6.5z" />
    <glyph glyph-name="Ubreve" unicode="&#x16c;" 
d="M425 -10q-168 0 -266.5 73t-98.5 228v382q0 11 8 19t19 8h209q11 0 19 -8t8 -19v-398q0 -41 27.5 -63t74.5 -22t74.5 22t27.5 63v398q0 11 8 19t19 8h209q11 0 19 -8t8 -19v-382q0 -155 -98.5 -228t-266.5 -73zM484 855h99q19 0 19 -13q0 -47 -46 -79.5t-131.5 -32.5
t-131.5 32.5t-46 79.5q0 13 19 13h99q15 0 19 -13q6 -25 38 -25t43 25q7 13 19 13z" />
    <glyph glyph-name="ubreve" unicode="&#x16d;" 
d="M425 -10q-168 0 -266.5 73t-98.5 228v382q0 11 8 19t19 8h209q11 0 19 -8t8 -19v-398q0 -41 27.5 -63t74.5 -22t74.5 22t27.5 63v398q0 11 8 19t19 8h209q11 0 19 -8t8 -19v-382q0 -155 -98.5 -228t-266.5 -73zM484 855h99q19 0 19 -13q0 -47 -46 -79.5t-131.5 -32.5
t-131.5 32.5t-46 79.5q0 13 19 13h99q15 0 19 -13q6 -25 38 -25t43 25q7 13 19 13z" />
    <glyph glyph-name="Uring" unicode="&#x16e;" 
d="M425 -10q-168 0 -266.5 73t-98.5 228v382q0 11 8 19t19 8h209q11 0 19 -8t8 -19v-398q0 -41 27.5 -63t74.5 -22t74.5 22t27.5 63v398q0 11 8 19t19 8h209q11 0 19 -8t8 -19v-382q0 -155 -98.5 -228t-266.5 -73zM394 787q0 -20 30.5 -20t30.5 20t-30.5 20t-30.5 -20z
M324 787q0 31 29 49.5t72 18.5t72 -18.5t29 -49.5t-29 -49.5t-72 -18.5t-72 18.5t-29 49.5z" />
    <glyph glyph-name="uring" unicode="&#x16f;" 
d="M425 -10q-168 0 -266.5 73t-98.5 228v382q0 11 8 19t19 8h209q11 0 19 -8t8 -19v-398q0 -41 27.5 -63t74.5 -22t74.5 22t27.5 63v398q0 11 8 19t19 8h209q11 0 19 -8t8 -19v-382q0 -155 -98.5 -228t-266.5 -73zM394 787q0 -20 30.5 -20t30.5 20t-30.5 20t-30.5 -20z
M324 787q0 31 29 49.5t72 18.5t72 -18.5t29 -49.5t-29 -49.5t-72 -18.5t-72 18.5t-29 49.5z" />
    <glyph glyph-name="Uhungarumlaut" unicode="&#x170;" 
d="M425 -10q-168 0 -266.5 73t-98.5 228v382q0 11 8 19t19 8h209q11 0 19 -8t8 -19v-398q0 -41 27.5 -63t74.5 -22t74.5 22t27.5 63v398q0 11 8 19t19 8h209q11 0 19 -8t8 -19v-382q0 -155 -98.5 -228t-266.5 -73zM449 850q19 0 19 -20q0 -7 -5 -12l-75 -80q-9 -7 -28 -7
h-113q-16 0 -16 16q0 3 5 13l38 71q14 17 37 19h138zM682 850q19 0 19 -20q0 -7 -5 -12l-75 -80q-9 -7 -28 -7h-113q-16 0 -16 16q0 3 5 13l38 71q14 17 37 19h138z" />
    <glyph glyph-name="uhungarumlaut" unicode="&#x171;" 
d="M425 -10q-168 0 -266.5 73t-98.5 228v382q0 11 8 19t19 8h209q11 0 19 -8t8 -19v-398q0 -41 27.5 -63t74.5 -22t74.5 22t27.5 63v398q0 11 8 19t19 8h209q11 0 19 -8t8 -19v-382q0 -155 -98.5 -228t-266.5 -73zM449 850q19 0 19 -20q0 -7 -5 -12l-75 -80q-9 -7 -28 -7
h-113q-16 0 -16 16q0 3 5 13l38 71q14 17 37 19h138zM682 850q19 0 19 -20q0 -7 -5 -12l-75 -80q-9 -7 -28 -7h-113q-16 0 -16 16q0 3 5 13l38 71q14 17 37 19h138z" />
    <glyph glyph-name="Uogonek" unicode="&#x172;" 
d="M493 -60h7q27 0 27 -25v-41q0 -11 -7.5 -17.5t-19.5 -6.5h-14q-152 0 -152 116q0 16 3 30q-130 17 -203.5 89t-73.5 206v382q0 11 8 19t19 8h209q11 0 19 -8t8 -19v-398q0 -41 27.5 -63t74.5 -22t74.5 22t27.5 63v398q0 11 8 19t19 8h209q11 0 19 -8t8 -19v-382
q0 -132 -72 -204.5t-199 -89.5l-8 -2l-18 -3q-25 -5 -34 -10t-9 -16q0 -26 43 -26z" />
    <glyph glyph-name="uogonek" unicode="&#x173;" 
d="M493 -60h7q27 0 27 -25v-41q0 -11 -7.5 -17.5t-19.5 -6.5h-14q-152 0 -152 116q0 16 3 30q-130 17 -203.5 89t-73.5 206v382q0 11 8 19t19 8h209q11 0 19 -8t8 -19v-398q0 -41 27.5 -63t74.5 -22t74.5 22t27.5 63v398q0 11 8 19t19 8h209q11 0 19 -8t8 -19v-382
q0 -132 -72 -204.5t-199 -89.5l-8 -2l-18 -3q-25 -5 -34 -10t-9 -16q0 -26 43 -26z" />
    <glyph glyph-name="Wcircumflex" unicode="&#x174;" 
d="M293 0h-140q-19 0 -31.5 11.5t-14.5 26.5l-87 637v3q0 9 6.5 15.5t15.5 6.5h172q20 0 32.5 -12t14.5 -30l32 -306l58 159q3 10 14.5 19.5t29.5 9.5h68q18 0 29.5 -9.5t14.5 -19.5l58 -159l32 306q2 18 14.5 30t32.5 12h172q9 0 15.5 -6.5t6.5 -15.5v-3l-87 -637
q-2 -15 -14.5 -26.5t-31.5 -11.5h-140q-18 0 -29.5 9t-14.5 18l-92 211l-92 -211q-3 -9 -14.5 -18t-29.5 -9zM330 731h-81q-16 0 -16 16q0 9 8 14l83 70q27 19 47 19h112q20 0 47 -19l83 -70q8 -5 8 -14q0 -16 -16 -16h-81q-18 0 -40 7l-57 22l-57 -22q-22 -7 -40 -7z" />
    <glyph glyph-name="wcircumflex" unicode="&#x175;" 
d="M293 0h-140q-19 0 -31.5 11.5t-14.5 26.5l-87 637v3q0 9 6.5 15.5t15.5 6.5h172q20 0 32.5 -12t14.5 -30l32 -306l58 159q3 10 14.5 19.5t29.5 9.5h68q18 0 29.5 -9.5t14.5 -19.5l58 -159l32 306q2 18 14.5 30t32.5 12h172q9 0 15.5 -6.5t6.5 -15.5v-3l-87 -637
q-2 -15 -14.5 -26.5t-31.5 -11.5h-140q-18 0 -29.5 9t-14.5 18l-92 211l-92 -211q-3 -9 -14.5 -18t-29.5 -9zM330 731h-81q-16 0 -16 16q0 9 8 14l83 70q27 19 47 19h112q20 0 47 -19l83 -70q8 -5 8 -14q0 -16 -16 -16h-81q-18 0 -40 7l-57 22l-57 -22q-22 -7 -40 -7z" />
    <glyph glyph-name="Ycircumflex" unicode="&#x176;" 
d="M582 700h209q9 0 15.5 -6.5t6.5 -13.5t-3 -13l-252 -417v-223q0 -11 -8 -19t-19 -8h-213q-11 0 -19 8t-8 19v223l-251 417q-3 6 -3 13t6.5 13.5t15.5 6.5h211q28 0 41 -23l113 -198l116 196q15 25 42 25zM327 731h-81q-16 0 -16 16q0 9 8 14l83 70q27 19 47 19h112
q20 0 47 -19l83 -70q8 -5 8 -14q0 -16 -16 -16h-81q-18 0 -40 7l-57 22l-57 -22q-22 -7 -40 -7z" />
    <glyph glyph-name="ycircumflex" unicode="&#x177;" 
d="M582 700h209q9 0 15.5 -6.5t6.5 -13.5t-3 -13l-252 -417v-223q0 -11 -8 -19t-19 -8h-213q-11 0 -19 8t-8 19v223l-251 417q-3 6 -3 13t6.5 13.5t15.5 6.5h211q28 0 41 -23l113 -198l116 196q15 25 42 25zM327 731h-81q-16 0 -16 16q0 9 8 14l83 70q27 19 47 19h112
q20 0 47 -19l83 -70q8 -5 8 -14q0 -16 -16 -16h-81q-18 0 -40 7l-57 22l-57 -22q-22 -7 -40 -7z" />
    <glyph glyph-name="Ydieresis" unicode="&#x178;" 
d="M492 855h116q10 0 16.5 -6.5t6.5 -16.5v-73q0 -10 -6.5 -16.5t-16.5 -6.5h-116q-10 0 -16.5 6.5t-6.5 16.5v73q0 10 6.5 16.5t16.5 6.5zM241 855h116q10 0 16.5 -6.5t6.5 -16.5v-73q0 -10 -6.5 -16.5t-16.5 -6.5h-116q-10 0 -16.5 6.5t-6.5 16.5v73q0 10 6.5 16.5
t16.5 6.5zM582 700h209q9 0 15.5 -6.5t6.5 -13.5t-3 -13l-252 -417v-223q0 -11 -8 -19t-19 -8h-213q-11 0 -19 8t-8 19v223l-251 417q-3 6 -3 13t6.5 13.5t15.5 6.5h211q28 0 41 -23l113 -198l116 196q15 25 42 25z" />
    <glyph glyph-name="Zacute" unicode="&#x179;" 
d="M747 205q11 0 19 -8t8 -19v-151q0 -11 -8 -19t-19 -8h-642q-11 0 -19 8t-8 19v144q0 23 15 35l316 289h-283q-11 0 -19 8t-8 19v151q0 11 8 19t19 8h600q11 0 19 -8t8 -19v-143q0 -21 -13 -33l-312 -292h319zM575 850q19 0 19 -20q0 -7 -5 -12l-95 -80q-9 -7 -28 -7h-133
q-16 0 -16 16q0 8 5 13l58 71q14 17 37 19h158z" />
    <glyph glyph-name="zacute" unicode="&#x17a;" 
d="M747 205q11 0 19 -8t8 -19v-151q0 -11 -8 -19t-19 -8h-642q-11 0 -19 8t-8 19v144q0 23 15 35l316 289h-283q-11 0 -19 8t-8 19v151q0 11 8 19t19 8h600q11 0 19 -8t8 -19v-143q0 -21 -13 -33l-312 -292h319zM575 850q19 0 19 -20q0 -7 -5 -12l-95 -80q-9 -7 -28 -7h-133
q-16 0 -16 16q0 8 5 13l58 71q14 17 37 19h158z" />
    <glyph glyph-name="Zdotaccent" unicode="&#x17b;" 
d="M747 205q11 0 19 -8t8 -19v-151q0 -11 -8 -19t-19 -8h-642q-11 0 -19 8t-8 19v144q0 23 15 35l316 289h-283q-11 0 -19 8t-8 19v151q0 11 8 19t19 8h600q11 0 19 -8t8 -19v-143q0 -21 -13 -33l-312 -292h319zM357 850h136q10 0 16.5 -6.5t6.5 -16.5v-73q0 -10 -6.5 -16.5
t-16.5 -6.5h-136q-10 0 -16.5 6.5t-6.5 16.5v73q0 10 6.5 16.5t16.5 6.5z" />
    <glyph glyph-name="zdotaccent" unicode="&#x17c;" 
d="M747 205q11 0 19 -8t8 -19v-151q0 -11 -8 -19t-19 -8h-642q-11 0 -19 8t-8 19v144q0 23 15 35l316 289h-283q-11 0 -19 8t-8 19v151q0 11 8 19t19 8h600q11 0 19 -8t8 -19v-143q0 -21 -13 -33l-312 -292h319zM357 850h136q10 0 16.5 -6.5t6.5 -16.5v-73q0 -10 -6.5 -16.5
t-16.5 -6.5h-136q-10 0 -16.5 6.5t-6.5 16.5v73q0 10 6.5 16.5t16.5 6.5z" />
    <glyph glyph-name="Zcaron" unicode="&#x17d;" 
d="M747 205q11 0 19 -8t8 -19v-151q0 -11 -8 -19t-19 -8h-642q-11 0 -19 8t-8 19v144q0 23 15 35l316 289h-283q-11 0 -19 8t-8 19v151q0 11 8 19t19 8h600q11 0 19 -8t8 -19v-143q0 -21 -13 -33l-312 -292h319zM527 850h81q16 0 16 -16q0 -9 -8 -14l-83 -70
q-27 -19 -47 -19h-112q-20 0 -47 19l-83 70q-8 5 -8 14q0 16 16 16h81q18 0 40 -7l57 -22l57 22q22 7 40 7z" />
    <glyph glyph-name="zcaron" unicode="&#x17e;" 
d="M747 205q11 0 19 -8t8 -19v-151q0 -11 -8 -19t-19 -8h-642q-11 0 -19 8t-8 19v144q0 23 15 35l316 289h-283q-11 0 -19 8t-8 19v151q0 11 8 19t19 8h600q11 0 19 -8t8 -19v-143q0 -21 -13 -33l-312 -292h319zM527 850h81q16 0 16 -16q0 -9 -8 -14l-83 -70
q-27 -19 -47 -19h-112q-20 0 -47 19l-83 70q-8 5 -8 14q0 16 16 16h81q18 0 40 -7l57 -22l57 22q22 7 40 7z" />
    <glyph glyph-name="florin" unicode="&#x192;" 
d="M164 -123v149q0 11 8 19t19 8h39q34 0 50.5 18.5t16.5 62.5v191h-69q-11 0 -19 8t-8 19v131q0 11 8 19t19 8h69v17q0 127 77 173q67 40 183 40h103q11 0 19 -8t8 -19v-131q0 -11 -8 -19t-19 -8h-81q-43 0 -43 -33v-12h113q11 0 19 -8t8 -19v-131q0 -11 -8 -19t-19 -8
h-113v-202q0 -273 -296 -273h-49q-11 0 -19 8t-8 19z" />
    <glyph glyph-name="AEacute" unicode="&#x1fc;" 
d="M210 0h-179q-9 0 -15.5 6.5t-6.5 12.5t1 9l228 639q11 33 45 33h521q11 0 19 -8t8 -19v-141q0 -11 -8 -19t-19 -8h-132v-63h108q11 0 19 -8t8 -19v-130q0 -11 -8 -19t-19 -8h-108v-63h142q11 0 19 -8t8 -19v-141q0 -11 -8 -19t-19 -8h-365q-11 0 -19 8t-8 19v77h-142
l-25 -70q-13 -34 -45 -34zM422 299v208h-20l-71 -208h91zM654 850q19 0 19 -20q0 -7 -5 -12l-95 -80q-9 -7 -28 -7h-133q-16 0 -16 16q0 8 5 13l58 71q14 17 37 19h158z" />
    <glyph glyph-name="aeacute" unicode="&#x1fd;" 
d="M210 0h-179q-9 0 -15.5 6.5t-6.5 12.5t1 9l228 639q11 33 45 33h521q11 0 19 -8t8 -19v-141q0 -11 -8 -19t-19 -8h-132v-63h108q11 0 19 -8t8 -19v-130q0 -11 -8 -19t-19 -8h-108v-63h142q11 0 19 -8t8 -19v-141q0 -11 -8 -19t-19 -8h-365q-11 0 -19 8t-8 19v77h-142
l-25 -70q-13 -34 -45 -34zM422 299v208h-20l-71 -208h91zM654 850q19 0 19 -20q0 -7 -5 -12l-95 -80q-9 -7 -28 -7h-133q-16 0 -16 16q0 8 5 13l58 71q14 17 37 19h158z" />
    <glyph glyph-name="Oslashacute" unicode="&#x1fe;" 
d="M797 415v-126q0 -103 -50 -172t-131 -98t-191 -29q-253 0 -336 148l-57 -22q-8 -3 -14 -3t-12 6t-6 15v108q0 25 22 33l31 12v123q0 151 103.5 226t268.5 75q114 0 202 -37t132 -111l59 23q8 3 14 3t12 -6t6 -15v-108q0 -25 -22 -33zM425 185q47 0 74.5 22.5t27.5 63.5
v38l-196 -77q21 -47 94 -47zM323 431v-39l195 77q-23 47 -93 47q-47 0 -74.5 -22t-27.5 -63zM584 850q19 0 19 -20q0 -7 -5 -12l-95 -80q-9 -7 -28 -7h-133q-16 0 -16 16q0 8 5 13l58 71q14 17 37 19h158z" />
    <glyph glyph-name="oslashacute" unicode="&#x1ff;" 
d="M797 415v-126q0 -103 -50 -172t-131 -98t-191 -29q-253 0 -336 148l-57 -22q-8 -3 -14 -3t-12 6t-6 15v108q0 25 22 33l31 12v123q0 151 103.5 226t268.5 75q114 0 202 -37t132 -111l59 23q8 3 14 3t12 -6t6 -15v-108q0 -25 -22 -33zM425 185q47 0 74.5 22.5t27.5 63.5
v38l-196 -77q21 -47 94 -47zM323 431v-39l195 77q-23 47 -93 47q-47 0 -74.5 -22t-27.5 -63zM584 850q19 0 19 -20q0 -7 -5 -12l-95 -80q-9 -7 -28 -7h-133q-16 0 -16 16q0 8 5 13l58 71q14 17 37 19h158z" />
    <glyph glyph-name="Scommaaccent" unicode="&#x218;" 
d="M713.5 375.5q69.5 -51.5 69.5 -154.5t-101 -167t-268 -64t-259.5 61.5t-92.5 151.5q0 22 23 22h205q21 0 34 -13q28 -27 97 -27q95 0 95 29q0 18 -30 28.5t-119 20.5q-283 34 -283 217q0 103 91 166.5t243.5 63.5t246.5 -66.5t94 -140.5q0 -10 -6.5 -16t-17.5 -6h-215
q-18 0 -31 12q-24 22 -72 22q-67 0 -67 -28q0 -15 26 -23.5t104 -17.5q164 -19 233.5 -70.5zM506 -31q19 0 19 -20q0 -7 -5 -12l-95 -80q-9 -7 -28 -7h-133q-16 0 -16 16q0 8 5 13l58 71q14 17 37 19h158z" />
    <glyph glyph-name="scommaaccent" unicode="&#x219;" 
d="M713.5 375.5q69.5 -51.5 69.5 -154.5t-101 -167t-268 -64t-259.5 61.5t-92.5 151.5q0 22 23 22h205q21 0 34 -13q28 -27 97 -27q95 0 95 29q0 18 -30 28.5t-119 20.5q-283 34 -283 217q0 103 91 166.5t243.5 63.5t246.5 -66.5t94 -140.5q0 -10 -6.5 -16t-17.5 -6h-215
q-18 0 -31 12q-24 22 -72 22q-67 0 -67 -28q0 -15 26 -23.5t104 -17.5q164 -19 233.5 -70.5zM506 -31q19 0 19 -20q0 -7 -5 -12l-95 -80q-9 -7 -28 -7h-133q-16 0 -16 16q0 8 5 13l58 71q14 17 37 19h158z" />
    <glyph glyph-name="afii10023" unicode="&#x401;" 
d="M350 195h399q11 0 19 -8t8 -19v-141q0 -11 -8 -19t-19 -8h-632q-11 0 -19 8t-8 19v646q0 11 8 19t19 8h622q11 0 19 -8t8 -19v-141q0 -11 -8 -19t-19 -8h-389v-63h334q11 0 19 -8t8 -19v-130q0 -11 -8 -19t-19 -8h-334v-63zM500 850h116q10 0 16.5 -6.5t6.5 -16.5v-73
q0 -10 -6.5 -16.5t-16.5 -6.5h-116q-10 0 -16.5 6.5t-6.5 16.5v73q0 10 6.5 16.5t16.5 6.5zM249 850h116q10 0 16.5 -6.5t6.5 -16.5v-73q0 -10 -6.5 -16.5t-16.5 -6.5h-116q-10 0 -16.5 6.5t-6.5 16.5v73q0 10 6.5 16.5t16.5 6.5z" />
    <glyph glyph-name="afii10051" unicode="&#x402;" 
d="M591 55v111q0 65 -80 65h-66v-204q0 -11 -8 -19t-19 -8h-185q-11 0 -19 8t-8 19v468h-153q-10 0 -16.5 6.5t-6.5 16.5v159q0 10 6.5 16.5t16.5 6.5h562q10 0 16.5 -6.5t6.5 -16.5v-159q0 -10 -6.5 -16.5t-16.5 -6.5h-170v-55h66q157 0 226.5 -65.5t69.5 -201.5v-46
q0 -156 -67.5 -247t-179.5 -91h-70q-11 0 -19 8t-8 19v116q0 11 8 19t19 8l22 1q36 2 57.5 26t21.5 69z" />
    <glyph glyph-name="afii10052" unicode="&#x403;" 
d="M763 485h-311l1 -458q0 -11 -8 -19t-19 -8h-206q-11 0 -19 8t-8 19v646q0 11 8 19t19 8h543q11 0 19 -8t8 -19v-161q0 -11 -8 -19t-19 -8zM634 850q19 0 19 -20q0 -7 -5 -12l-95 -80q-9 -7 -28 -7h-133q-16 0 -16 16q0 8 5 13l58 71q14 17 37 19h158z" />
    <glyph glyph-name="afii10053" unicode="&#x404;" 
d="M497 261h-164q4 -36 31 -56t71 -20q82 0 116 56q16 26 35 26h196q9 0 15.5 -6.5t6.5 -15.5q0 -94 -102.5 -174.5t-266.5 -80.5q-225 0 -321 130q-51 70 -51 171v118q0 101 51 171q96 130 321 130q164 0 266.5 -80.5t102.5 -174.5q0 -9 -6.5 -15.5t-15.5 -6.5h-196
q-19 0 -35 26q-34 56 -116 56q-44 0 -71.5 -20t-30.5 -57h164q11 0 19 -8t8 -19v-123q0 -11 -8 -19t-19 -8z" />
    <glyph glyph-name="afii10054" unicode="&#x405;" 
d="M713.5 375.5q69.5 -51.5 69.5 -154.5t-101 -167t-268 -64t-259.5 61.5t-92.5 151.5q0 22 23 22h205q21 0 34 -13q28 -27 97 -27q95 0 95 29q0 18 -30 28.5t-119 20.5q-283 34 -283 217q0 103 91 166.5t243.5 63.5t246.5 -66.5t94 -140.5q0 -10 -6.5 -16t-17.5 -6h-215
q-18 0 -31 12q-24 22 -72 22q-67 0 -67 -28q0 -15 26 -23.5t104 -17.5q164 -19 233.5 -70.5z" />
    <glyph glyph-name="afii10055" unicode="&#x406;" 
d="M742 495h-181v-290h181q11 0 19 -8t8 -19v-151q0 -11 -8 -19t-19 -8h-634q-11 0 -19 8t-8 19v151q0 11 8 19t19 8h183v290h-183q-11 0 -19 8t-8 19v151q0 11 8 19t19 8h634q11 0 19 -8t8 -19v-151q0 -11 -8 -19t-19 -8z" />
    <glyph glyph-name="afii10056" unicode="&#x407;" 
d="M742 495h-181v-290h181q11 0 19 -8t8 -19v-151q0 -11 -8 -19t-19 -8h-634q-11 0 -19 8t-8 19v151q0 11 8 19t19 8h183v290h-183q-11 0 -19 8t-8 19v151q0 11 8 19t19 8h634q11 0 19 -8t8 -19v-151q0 -11 -8 -19t-19 -8zM492 850h116q10 0 16.5 -6.5t6.5 -16.5v-73
q0 -10 -6.5 -16.5t-16.5 -6.5h-116q-10 0 -16.5 6.5t-6.5 16.5v73q0 10 6.5 16.5t16.5 6.5zM241 850h116q10 0 16.5 -6.5t6.5 -16.5v-73q0 -10 -6.5 -16.5t-16.5 -6.5h-116q-10 0 -16.5 6.5t-6.5 16.5v73q0 10 6.5 16.5t16.5 6.5z" />
    <glyph glyph-name="afii10057" unicode="&#x408;" 
d="M768 673v-382q0 -152 -100 -226.5t-267 -74.5q-91 0 -165 23.5t-118 61.5q-91 79 -91 170q0 9 6.5 15.5t15.5 6.5h226q18 0 25 -22q19 -60 96 -60q47 0 74.5 22t27.5 63v225h-365q-11 0 -19 8t-8 19v151q0 11 8 19t19 8h608q11 0 19 -8t8 -19z" />
    <glyph glyph-name="afii10058" unicode="&#x409;" 
d="M30 -10q-11 0 -19.5 8t-8.5 19v160q0 11 8 19t19 8q35 0 49.5 19t14.5 58v392q0 11 8 19t19 8h412q12 0 20 -8t8 -19v-196h24q120 0 193 -64.5t73 -170t-73 -174t-192 -68.5h-199q-12 0 -19.5 8.5t-7.5 18.5v458h-46v-201q0 -294 -283 -294zM584 295h-24v-108h24
q32 0 49 15t17 40.5t-17.5 39t-48.5 13.5z" />
    <glyph glyph-name="afii10059" unicode="&#x40a;" 
d="M559 673v-196h25q120 0 193 -64.5t73 -170t-73 -174t-192 -68.5h-199q-11 0 -19 8t-8 19v223h-126v-223q0 -11 -8 -19t-19 -8h-146q-11 0 -19 7.5t-8 19.5v646q0 11 8 19t19 8h146q11 0 19 -8t8 -19v-215h126v215q0 11 8 19t19 8h146q11 0 19 -8t8 -19zM559 295v-108h25
q32 0 49 15t17 40.5t-17.5 39t-48.5 13.5h-25z" />
    <glyph glyph-name="afii10060" unicode="&#x40b;" 
d="M579 27v129q0 65 -60 65h-74v-194q0 -11 -8 -19t-19 -8h-185q-11 0 -19 8t-8 19v468h-153q-10 0 -16.5 6.5t-6.5 16.5v159q0 10 6.5 16.5t16.5 6.5h562q10 0 16.5 -6.5t6.5 -16.5v-159q0 -10 -6.5 -16.5t-16.5 -6.5h-170v-65h74q146 0 223 -67.5t77 -199.5v-136
q0 -11 -8 -19t-19 -8h-186q-11 0 -19 8t-8 19z" />
    <glyph glyph-name="afii10061" unicode="&#x40c;" 
d="M828 35q4 -6 4 -14t-6.5 -14.5t-15.5 -6.5h-258q-23 0 -36 16l-174 215v-204q0 -11 -8 -19t-19 -8h-206q-11 0 -19 8t-8 19v646q0 11 8 19t19 8h206q11 0 19 -8t8 -19v-188l158 198q15 17 37 17h241q9 0 15.5 -6.5t6.5 -15t-5 -14.5l-237 -289zM604 850q19 0 19 -20
q0 -7 -5 -12l-95 -80q-9 -7 -28 -7h-133q-16 0 -16 16q0 8 5 13l58 71q14 17 37 19h158z" />
    <glyph glyph-name="afii10062" unicode="&#x40e;" 
d="M293 0h-181q-11 0 -19 8t-8 19v160q0 11 8 19t19 8h141q56 0 62 8l-217 447q-1 3 -1 7q4 24 25 24h219q21 0 32 -24l112 -262l98 262q10 24 34 24h207q9 0 16 -6.5t7 -14.5t-1 -10l-150 -351q-43 -102 -67 -147t-69 -92.5t-107 -63t-160 -15.5zM544 855h99q19 0 19 -13
q0 -47 -46 -79.5t-131.5 -32.5t-131.5 32.5t-46 79.5q0 13 19 13h99q15 0 19 -13q6 -25 38 -25t43 25q7 13 19 13z" />
    <glyph glyph-name="afii10145" unicode="&#x40f;" 
d="M713 0h-181v-97q0 -11 -8 -19t-19 -8h-161q-11 0 -19 8t-8 19v97h-185q-11 0 -19 8t-8 19v646q0 12 8 19.5t19 7.5h186q11 0 19 -8t8 -19v-458h160v458q0 11 8 19t19 8h181q11 0 19 -8t8 -19v-646q0 -11 -8 -19t-19 -8z" />
    <glyph glyph-name="afii10017" unicode="&#x410;" 
d="M236 0h-189q-9 0 -15.5 6.5t-6.5 12.5t1 9l218 639q9 33 45 33h278q36 0 45 -33l218 -639q1 -3 1 -9t-6.5 -12.5t-15.5 -6.5h-189q-32 0 -45 34l-25 70h-244l-25 -70q-13 -34 -45 -34zM499 299l-71 208l-71 -208h142z" />
    <glyph glyph-name="afii10018" unicode="&#x411;" 
d="M345 437h180q134 0 207.5 -57.5t73.5 -159.5t-74 -161t-208 -59h-412q-11 0 -19 8t-8 19v646q0 11 8 19t19 8h588q11 0 19 -8t8 -19v-140q0 -11 -8 -19t-19 -8h-355v-69zM345 270v-98h145q23 0 34.5 15.5t11.5 34.5v1q0 19 -12.5 33t-33.5 14h-145z" />
    <glyph glyph-name="afii10019" unicode="&#x412;" 
d="M806 220q0 -220 -282 -220h-412q-11 0 -19 8t-8 19v646q0 11 8 19t19 8h402q142 0 209.5 -51.5t67.5 -155.5v-3q0 -48 -26 -82t-54 -43q39 -12 67 -52.5t28 -92.5zM345 270v-98h145q23 0 34.5 15.5t11.5 34.5v1q0 19 -12.5 33t-33.5 14h-145zM520 484q0 18 -10.5 31
t-30.5 13h-134v-91h134q20 0 30.5 14.5t10.5 32.5z" />
    <glyph glyph-name="afii10020" unicode="&#x413;" 
d="M426 0h-206q-11 0 -19 8t-8 19v646q0 11 8 19t19 8h543q11 0 19 -8t8 -19v-161q0 -11 -8 -19t-19 -8h-311l1 -458q0 -11 -8 -19t-19 -8z" />
    <glyph glyph-name="afii10021" unicode="&#x414;" 
d="M178 700h528q11 0 19 -8t8 -19v-458h51q11 0 19 -8t8 -19v-285q0 -11 -8 -19t-19 -8h-162q-11 0 -19 8t-8 19v97h-341v-97q0 -11 -8 -19t-19 -8h-161q-11 0 -19 7.5t-8 19.5v285q0 11 8 19t19 8h16q24 0 46.5 21t22.5 56v381q0 11 8 19t19 8zM493 495h-102v-204
q0 -57 -9 -76h111v280z" />
    <glyph glyph-name="afii10022" unicode="&#x415;" 
d="M350 195h399q11 0 19 -8t8 -19v-141q0 -11 -8 -19t-19 -8h-632q-11 0 -19 8t-8 19v646q0 11 8 19t19 8h622q11 0 19 -8t8 -19v-141q0 -11 -8 -19t-19 -8h-389v-63h334q11 0 19 -8t8 -19v-130q0 -11 -8 -19t-19 -8h-334v-63z" />
    <glyph glyph-name="afii10024" unicode="&#x416;" 
d="M510 0h-172q-11 0 -19 8t-8 19v224l-93 -231q-10 -20 -36 -20h-176q-19 0 -19 20q0 1 4 13l142 332l-125 302q-4 12 -4 14q0 19 18 19h178q20 0 28 -22l83 -213v208q0 11 8 19t19 8h172q11 0 19 -8t8 -19v-208l83 213q8 22 28 22h178q18 0 18 -19q0 -2 -4 -14l-125 -302
l142 -332q4 -12 4 -13q0 -20 -19 -20h-176q-26 0 -36 20l-93 231v-224q0 -11 -8 -19t-19 -8z" />
    <glyph glyph-name="afii10025" unicode="&#x417;" 
d="M741 210q0 -102 -96.5 -161t-250.5 -59q-205 0 -297 100q-48 53 -48 108q0 10 6.5 16t15.5 6h219q11 0 22 -10.5t16 -14.5q16 -11 58 -11q85 0 85 43q0 34 -77 34h-133q-11 0 -19 8t-8 19v123q0 11 8 19t19 8h133q77 0 77 34q0 21 -21 32t-52 11t-47.5 -3.5t-22 -7.5
t-16.5 -14.5t-22 -10.5h-219q-9 0 -15.5 6t-6.5 16q0 68 76 134q38 33 108 54t161 21q153 0 250 -60t97 -162q0 -53 -34 -91t-65 -47q30 -8 64.5 -48t34.5 -92z" />
    <glyph glyph-name="afii10026" unicode="&#x418;" 
d="M106 700h186q11 0 19 -8t8 -19v-294l218 301q15 20 39 20h162q11 0 19 -8t8 -19v-646q0 -11 -8 -19t-19 -8h-186q-11 0 -19 8t-8 19v272l-218 -278q-16 -21 -40 -21h-161q-11 0 -19 8t-8 19v646q0 11 8 19t19 8z" />
    <glyph glyph-name="afii10027" unicode="&#x419;" 
d="M491 855h99q19 0 19 -13q0 -47 -46 -79.5t-131.5 -32.5t-131.5 32.5t-46 79.5q0 13 19 13h99q15 0 19 -13q6 -25 38 -25t43 25q6 13 19 13zM106 700h186q11 0 19 -8t8 -19v-294l218 301q15 20 39 20h162q11 0 19 -8t8 -19v-646q0 -11 -8 -19t-19 -8h-186q-11 0 -19 8
t-8 19v272l-218 -278q-16 -21 -40 -21h-161q-11 0 -19 8t-8 19v646q0 11 8 19t19 8z" />
    <glyph glyph-name="afii10028" unicode="&#x41a;" 
d="M838 35q4 -6 4 -14t-6.5 -14.5t-15.5 -6.5h-258q-23 0 -36 16l-174 215v-204q0 -11 -8 -19t-19 -8h-206q-11 0 -19 8t-8 19v646q0 11 8 19t19 8h206q11 0 19 -8t8 -19v-188l158 198q15 17 37 17h241q9 0 15.5 -6.5t6.5 -15t-5 -14.5l-237 -289z" />
    <glyph glyph-name="afii10029" unicode="&#x41b;" 
d="M65 -10q-11 0 -19.5 8t-8.5 19v160q0 11 8 19t19 8q42 0 58 18.5t16 58.5v392q0 11 8 19t19 8h568q11 0 19 -8t8 -19v-646q0 -11 -8 -19t-19 -8h-186q-11 0 -19 8t-8 19v458h-142v-201q0 -148 -82.5 -221t-230.5 -73z" />
    <glyph glyph-name="afii10030" unicode="&#x41c;" 
d="M599 700h183q11 0 19 -8t8 -19v-646q0 -11 -8 -19t-19 -8h-181q-11 0 -19 8t-8 19v310l-73 -144q-6 -12 -18 -18.5t-24 -6.5h-68q-17 0 -28 9t-14 16l-73 144v-310q0 -11 -8 -19t-19 -8h-181q-11 0 -19 8t-8 19v646q0 11 8 19t19 8h183q28 0 43 -27l131 -240l131 240
q15 27 43 27z" />
    <glyph glyph-name="afii10031" unicode="&#x41d;" 
d="M552 700h206q11 0 19 -8t8 -19v-646q0 -11 -8 -19t-19 -8h-206q-11 0 -19 8t-8 19v213h-200v-213q0 -11 -8 -19t-19 -8h-206q-11 0 -19 7.5t-8 19.5v646q0 11 8 19t19 8h206q11 0 19 -8t8 -19v-205h200v205q0 11 8 19t19 8z" />
    <glyph glyph-name="afii10032" unicode="&#x41e;" 
d="M797 411v-122q0 -103 -50 -172t-131 -98t-191 -29t-191 29t-131 98t-50 174v118q0 151 103.5 226t268.5 75t268.5 -75t103.5 -224zM323 430v-160q0 -41 27.5 -63t74.5 -22t74.5 22.5t27.5 63.5v158q0 41 -27.5 63.5t-74.5 22.5t-74.5 -22t-27.5 -63z" />
    <glyph glyph-name="afii10033" unicode="&#x41f;" 
d="M102 700h646q11 0 19 -8t8 -19v-646q0 -11 -8 -19t-19 -8h-196q-11 0 -19 8t-8 19v457h-200v-457q0 -11 -8 -19t-19 -8h-196q-11 0 -19 7.5t-8 19.5v646q0 11 8 19t19 8z" />
    <glyph glyph-name="afii10034" unicode="&#x420;" 
d="M153 700h374q142 0 225 -69t83 -177t-70 -171.5t-238 -63.5h-132v-192q0 -11 -8 -19t-19 -8h-215q-11 0 -19 8t-8 19v646q0 11 8 19t19 8zM396 514v-110h127q23 0 37.5 14t14.5 39t-14 41t-38 16h-127z" />
    <glyph glyph-name="afii10035" unicode="&#x421;" 
d="M333 430v-160q0 -41 27.5 -63t72 -22t64.5 14t33.5 41t35.5 27h216q9 0 15.5 -6.5t6.5 -15.5q0 -93 -88 -170q-44 -38 -117 -61.5t-172 -23.5t-180.5 30.5t-132.5 100t-51 170.5v118q0 101 51 171q96 130 321 130q91 0 164 -23.5t117 -61.5q88 -77 88 -170
q0 -9 -6.5 -15.5t-15.5 -6.5h-216q-22 0 -35.5 27t-33.5 41t-64.5 14t-72 -22t-27.5 -63z" />
    <glyph glyph-name="afii10036" unicode="&#x422;" 
d="M80 700h690q11 0 19 -8t8 -19v-161q0 -11 -8 -19t-19 -8h-215v-458q0 -11 -8 -19t-19 -8h-206q-11 0 -19 8t-8 19v458h-215q-11 0 -19 8t-8 19v161q0 11 8 19t19 8z" />
    <glyph glyph-name="afii10037" unicode="&#x423;" 
d="M293 0h-181q-11 0 -19 8t-8 19v160q0 11 8 19t19 8h141q56 0 62 8l-217 447q-1 3 -1 7q4 24 25 24h219q21 0 32 -24l112 -262l98 262q10 24 34 24h207q9 0 16 -6.5t7 -14.5t-1 -10l-150 -351q-43 -102 -67 -147t-69 -92.5t-107 -63t-160 -15.5z" />
    <glyph glyph-name="afii10038" unicode="&#x424;" 
d="M738.5 539q78.5 -71 78.5 -187.5t-78 -190t-209 -94.5v-50q0 -11 -8 -19t-19 -8h-156q-11 0 -19 8t-8 19v51q-128 22 -205 97t-77 189t77.5 184.5t204.5 91.5v53q0 11 8 19t19 8h156q11 0 19 -8t8 -19v-53q130 -20 208.5 -91zM525 257q72 25 72 92t-72 92v-184zM325 441
q-72 -23 -72 -91t72 -93v184z" />
    <glyph glyph-name="afii10039" unicode="&#x425;" 
d="M796 33q3 -4 3 -12t-6.5 -14.5t-15.5 -6.5h-215q-27 0 -41 23l-97 149l-95 -149q-15 -23 -41 -23h-216q-9 0 -15.5 6.5t-6.5 14.5t3 12l221 338l-197 296q-3 4 -3 12t6.5 14.5t15.5 6.5h216q26 0 42 -25l78 -128l84 130q17 23 41 23h215q9 0 15.5 -6.5t6.5 -14.5t-3 -12
l-209 -309z" />
    <glyph glyph-name="afii10040" unicode="&#x426;" 
d="M365 215h110v458q0 11 8 19t19 8h196q11 0 19 -8t8 -19v-458h38q11 0 19 -8t8 -19v-285q0 -11 -8 -19t-19 -8h-161q-11 0 -19 8t-8 19v97h-443q-11 0 -19 8t-8 19v646q0 12 8 19.5t19 7.5h206q11 0 19 -8t8 -19v-458z" />
    <glyph glyph-name="afii10041" unicode="&#x427;" 
d="M275 673v-151q0 -46 25 -67t62 -21h114v239q0 11 8 19t19 8h206q11 0 19 -8t8 -19v-646q0 -11 -8 -19t-19 -8h-206q-11 0 -19 8t-8 19v179h-117q-212 0 -299 140q-45 74 -45 180l1 147q0 11 8 19t19 8h205q11 0 19 -8t8 -19z" />
    <glyph glyph-name="afii10042" unicode="&#x428;" 
d="M782 0h-714q-11 0 -19 8t-8 19v646q0 11 8 19t19 8h160q11 0 19 -8t8 -19v-458h71v458q0 11 8 19t19 8h142q11 0 19 -8t8 -19v-458h72v458q0 11 8 19t19 8h161q11 0 19 -7.5t8 -19.5v-646q0 -11 -8 -19t-19 -8z" />
    <glyph glyph-name="afii10043" unicode="&#x429;" 
d="M635 0h-581q-11 0 -19 8t-8 19v646q0 12 8 19.5t19 7.5h160q11 0 19 -8t8 -19v-458h66v458q0 12 8 19.5t19 7.5h152q11 0 19 -8t8 -19v-458h68v458q0 11 8 19t19 8h151q11 0 19 -8t8 -19v-458h37q11 0 19 -8t8 -19v-285q0 -11 -8 -19t-19 -8h-161q-11 0 -19 8t-8 19v97z
" />
    <glyph glyph-name="afii10044" unicode="&#x42a;" 
d="M415 673v-196h115q140 0 228 -62t88 -175t-87.5 -176.5t-227.5 -63.5h-349q-11 0 -19 8t-8 19v479h-93q-11 0 -19 8t-8 19v140q0 11 8 19t19 8h326q11 0 19 -8t8 -19zM415 295v-108h115q32 0 49 15t17 41q0 52 -66 52h-115z" />
    <glyph glyph-name="afii10045" unicode="&#x42b;" 
d="M247 295v-108h45q32 0 49 15t17 41q0 52 -66 52h-45zM247 673v-196h45q134 0 210 -63.5t76 -170.5t-76.5 -175t-208.5 -68h-249q-11 0 -19 8t-8 19v646q0 11 8 19t19 8h176q11 0 19 -8t8 -19zM807 0h-174q-11 0 -19 8t-8 19v646q0 11 8 19t19 8h174q11 0 19 -8t8 -19
v-646q0 -11 -8 -19t-19 -8z" />
    <glyph glyph-name="afii10046" unicode="&#x42c;" 
d="M400 295v-108h115q32 0 49 15t17 41q0 52 -66 52h-115zM400 673v-196h115q140 0 228 -62t88 -175t-87.5 -176.5t-227.5 -63.5h-349q-11 0 -19 8t-8 19v646q0 11 8 19t19 8h206q11 0 19 -8t8 -19z" />
    <glyph glyph-name="afii10047" unicode="&#x42d;" 
d="M353 261q-11 0 -19 8t-8 19v123q0 11 8 19t19 8h163q-3 37 -30 57t-71 20q-82 0 -116 -56q-16 -26 -35 -26h-196q-9 0 -15.5 6.5t-6.5 15.5q0 94 102.5 174.5t266.5 80.5q225 0 321 -130q51 -70 51 -171v-118q0 -101 -51 -171q-96 -130 -321 -130q-164 0 -266.5 80.5
t-102.5 174.5q0 9 6.5 15.5t15.5 6.5h196q19 0 35 -26q34 -56 116 -56q44 0 71 20t30 56h-163z" />
    <glyph glyph-name="afii10048" unicode="&#x42e;" 
d="M222 673v-210h71q17 126 83.5 186.5t191.5 60.5q153 0 217.5 -90t64.5 -271t-64.5 -270t-217.5 -89q-124 0 -190.5 63.5t-84.5 189.5h-71v-216q0 -11 -8 -19t-19 -8h-161q-11 0 -19 7.5t-8 19.5v646q0 11 8 19t19 8h161q11 0 19 -8t8 -19zM516 428v-156q0 -87 52 -87
t52 88v154q0 88 -52 88t-52 -87z" />
    <glyph glyph-name="afii10049" unicode="&#x42f;" 
d="M46 458q0 112 80 177t217 65h389q11 0 19 -8t8 -19v-646q0 -11 -8 -19t-19 -8h-216q-11 0 -19 8t-8 19v196h-84l-88 -198q-12 -25 -42 -25h-227q-9 0 -15.5 6.5t-6.5 13.5t2 11l123 230q-105 61 -105 197zM489 408v106h-125q-23 0 -34.5 -16.5t-11.5 -38.5t12 -36.5
t34 -14.5h125z" />
    <glyph glyph-name="afii10065" unicode="&#x430;" 
d="M236 0h-189q-9 0 -15.5 6.5t-6.5 12.5t1 9l218 639q9 33 45 33h278q36 0 45 -33l218 -639q1 -3 1 -9t-6.5 -12.5t-15.5 -6.5h-189q-32 0 -45 34l-25 70h-244l-25 -70q-13 -34 -45 -34zM499 299l-71 208l-71 -208h142z" />
    <glyph glyph-name="afii10066" unicode="&#x431;" 
d="M345 437h180q134 0 207.5 -57.5t73.5 -159.5t-74 -161t-208 -59h-412q-11 0 -19 8t-8 19v646q0 11 8 19t19 8h588q11 0 19 -8t8 -19v-140q0 -11 -8 -19t-19 -8h-355v-69zM345 270v-98h145q23 0 34.5 15.5t11.5 34.5v1q0 19 -12.5 33t-33.5 14h-145z" />
    <glyph glyph-name="afii10067" unicode="&#x432;" 
d="M806 220q0 -220 -282 -220h-412q-11 0 -19 8t-8 19v646q0 11 8 19t19 8h402q142 0 209.5 -51.5t67.5 -155.5v-3q0 -48 -26 -82t-54 -43q39 -12 67 -52.5t28 -92.5zM345 270v-98h145q23 0 34.5 15.5t11.5 34.5v1q0 19 -12.5 33t-33.5 14h-145zM520 484q0 18 -10.5 31
t-30.5 13h-134v-91h134q20 0 30.5 14.5t10.5 32.5z" />
    <glyph glyph-name="afii10068" unicode="&#x433;" 
d="M426 0h-206q-11 0 -19 8t-8 19v646q0 11 8 19t19 8h543q11 0 19 -8t8 -19v-161q0 -11 -8 -19t-19 -8h-311l1 -458q0 -11 -8 -19t-19 -8z" />
    <glyph glyph-name="afii10069" unicode="&#x434;" 
d="M178 700h528q11 0 19 -8t8 -19v-458h51q11 0 19 -8t8 -19v-285q0 -11 -8 -19t-19 -8h-162q-11 0 -19 8t-8 19v97h-341v-97q0 -11 -8 -19t-19 -8h-161q-11 0 -19 7.5t-8 19.5v285q0 11 8 19t19 8h16q24 0 46.5 21t22.5 56v381q0 11 8 19t19 8zM493 495h-102v-204
q0 -57 -9 -76h111v280z" />
    <glyph glyph-name="afii10070" unicode="&#x435;" 
d="M350 195h399q11 0 19 -8t8 -19v-141q0 -11 -8 -19t-19 -8h-632q-11 0 -19 8t-8 19v646q0 11 8 19t19 8h622q11 0 19 -8t8 -19v-141q0 -11 -8 -19t-19 -8h-389v-63h334q11 0 19 -8t8 -19v-130q0 -11 -8 -19t-19 -8h-334v-63z" />
    <glyph glyph-name="afii10072" unicode="&#x436;" 
d="M510 0h-172q-11 0 -19 8t-8 19v224l-93 -231q-10 -20 -36 -20h-176q-19 0 -19 20q0 1 4 13l142 332l-125 302q-4 12 -4 14q0 19 18 19h178q20 0 28 -22l83 -213v208q0 11 8 19t19 8h172q11 0 19 -8t8 -19v-208l83 213q8 22 28 22h178q18 0 18 -19q0 -2 -4 -14l-125 -302
l142 -332q4 -12 4 -13q0 -20 -19 -20h-176q-26 0 -36 20l-93 231v-224q0 -11 -8 -19t-19 -8z" />
    <glyph glyph-name="afii10073" unicode="&#x437;" 
d="M741 210q0 -102 -96.5 -161t-250.5 -59q-205 0 -297 100q-48 53 -48 108q0 10 6.5 16t15.5 6h219q11 0 22 -10.5t16 -14.5q16 -11 58 -11q85 0 85 43q0 34 -77 34h-133q-11 0 -19 8t-8 19v123q0 11 8 19t19 8h133q77 0 77 34q0 21 -21 32t-52 11t-47.5 -3.5t-22 -7.5
t-16.5 -14.5t-22 -10.5h-219q-9 0 -15.5 6t-6.5 16q0 68 76 134q38 33 108 54t161 21q153 0 250 -60t97 -162q0 -53 -34 -91t-65 -47q30 -8 64.5 -48t34.5 -92z" />
    <glyph glyph-name="afii10074" unicode="&#x438;" 
d="M106 700h186q11 0 19 -8t8 -19v-294l218 301q15 20 39 20h162q11 0 19 -8t8 -19v-646q0 -11 -8 -19t-19 -8h-186q-11 0 -19 8t-8 19v272l-218 -278q-16 -21 -40 -21h-161q-11 0 -19 8t-8 19v646q0 11 8 19t19 8z" />
    <glyph glyph-name="afii10075" unicode="&#x439;" 
d="M491 855h99q19 0 19 -13q0 -47 -46 -79.5t-131.5 -32.5t-131.5 32.5t-46 79.5q0 13 19 13h99q15 0 19 -13q6 -25 38 -25t43 25q6 13 19 13zM106 700h186q11 0 19 -8t8 -19v-294l218 301q15 20 39 20h162q11 0 19 -8t8 -19v-646q0 -11 -8 -19t-19 -8h-186q-11 0 -19 8
t-8 19v272l-218 -278q-16 -21 -40 -21h-161q-11 0 -19 8t-8 19v646q0 11 8 19t19 8z" />
    <glyph glyph-name="afii10076" unicode="&#x43a;" 
d="M838 35q4 -6 4 -14t-6.5 -14.5t-15.5 -6.5h-258q-23 0 -36 16l-174 215v-204q0 -11 -8 -19t-19 -8h-206q-11 0 -19 8t-8 19v646q0 11 8 19t19 8h206q11 0 19 -8t8 -19v-188l158 198q15 17 37 17h241q9 0 15.5 -6.5t6.5 -15t-5 -14.5l-237 -289z" />
    <glyph glyph-name="afii10077" unicode="&#x43b;" 
d="M65 -10q-11 0 -19.5 8t-8.5 19v160q0 11 8 19t19 8q42 0 58 18.5t16 58.5v392q0 11 8 19t19 8h568q11 0 19 -8t8 -19v-646q0 -11 -8 -19t-19 -8h-186q-11 0 -19 8t-8 19v458h-142v-201q0 -148 -82.5 -221t-230.5 -73z" />
    <glyph glyph-name="afii10078" unicode="&#x43c;" 
d="M599 700h183q11 0 19 -8t8 -19v-646q0 -11 -8 -19t-19 -8h-181q-11 0 -19 8t-8 19v310l-73 -144q-6 -12 -18 -18.5t-24 -6.5h-68q-17 0 -28 9t-14 16l-73 144v-310q0 -11 -8 -19t-19 -8h-181q-11 0 -19 8t-8 19v646q0 11 8 19t19 8h183q28 0 43 -27l131 -240l131 240
q15 27 43 27z" />
    <glyph glyph-name="afii10079" unicode="&#x43d;" 
d="M552 700h206q11 0 19 -8t8 -19v-646q0 -11 -8 -19t-19 -8h-206q-11 0 -19 8t-8 19v213h-200v-213q0 -11 -8 -19t-19 -8h-206q-11 0 -19 7.5t-8 19.5v646q0 11 8 19t19 8h206q11 0 19 -8t8 -19v-205h200v205q0 11 8 19t19 8z" />
    <glyph glyph-name="afii10080" unicode="&#x43e;" 
d="M797 411v-122q0 -103 -50 -172t-131 -98t-191 -29t-191 29t-131 98t-50 174v118q0 151 103.5 226t268.5 75t268.5 -75t103.5 -224zM323 430v-160q0 -41 27.5 -63t74.5 -22t74.5 22.5t27.5 63.5v158q0 41 -27.5 63.5t-74.5 22.5t-74.5 -22t-27.5 -63z" />
    <glyph glyph-name="afii10081" unicode="&#x43f;" 
d="M102 700h646q11 0 19 -8t8 -19v-646q0 -11 -8 -19t-19 -8h-196q-11 0 -19 8t-8 19v457h-200v-457q0 -11 -8 -19t-19 -8h-196q-11 0 -19 7.5t-8 19.5v646q0 11 8 19t19 8z" />
    <glyph glyph-name="afii10082" unicode="&#x440;" 
d="M153 700h374q142 0 225 -69t83 -177t-70 -171.5t-238 -63.5h-132v-192q0 -11 -8 -19t-19 -8h-215q-11 0 -19 8t-8 19v646q0 11 8 19t19 8zM396 514v-110h127q23 0 37.5 14t14.5 39t-14 41t-38 16h-127z" />
    <glyph glyph-name="afii10083" unicode="&#x441;" 
d="M333 430v-160q0 -41 27.5 -63t72 -22t64.5 14t33.5 41t35.5 27h216q9 0 15.5 -6.5t6.5 -15.5q0 -93 -88 -170q-44 -38 -117 -61.5t-172 -23.5t-180.5 30.5t-132.5 100t-51 170.5v118q0 101 51 171q96 130 321 130q91 0 164 -23.5t117 -61.5q88 -77 88 -170
q0 -9 -6.5 -15.5t-15.5 -6.5h-216q-22 0 -35.5 27t-33.5 41t-64.5 14t-72 -22t-27.5 -63z" />
    <glyph glyph-name="afii10084" unicode="&#x442;" 
d="M80 700h690q11 0 19 -8t8 -19v-161q0 -11 -8 -19t-19 -8h-215v-458q0 -11 -8 -19t-19 -8h-206q-11 0 -19 8t-8 19v458h-215q-11 0 -19 8t-8 19v161q0 11 8 19t19 8z" />
    <glyph glyph-name="afii10085" unicode="&#x443;" 
d="M293 0h-181q-11 0 -19 8t-8 19v160q0 11 8 19t19 8h141q56 0 62 8l-217 447q-1 3 -1 7q4 24 25 24h219q21 0 32 -24l112 -262l98 262q10 24 34 24h207q9 0 16 -6.5t7 -14.5t-1 -10l-150 -351q-43 -102 -67 -147t-69 -92.5t-107 -63t-160 -15.5z" />
    <glyph glyph-name="afii10086" unicode="&#x444;" 
d="M738.5 539q78.5 -71 78.5 -187.5t-78 -190t-209 -94.5v-50q0 -11 -8 -19t-19 -8h-156q-11 0 -19 8t-8 19v51q-128 22 -205 97t-77 189t77.5 184.5t204.5 91.5v53q0 11 8 19t19 8h156q11 0 19 -8t8 -19v-53q130 -20 208.5 -91zM525 257q72 25 72 92t-72 92v-184zM325 441
q-72 -23 -72 -91t72 -93v184z" />
    <glyph glyph-name="afii10087" unicode="&#x445;" 
d="M796 33q3 -4 3 -12t-6.5 -14.5t-15.5 -6.5h-215q-27 0 -41 23l-97 149l-95 -149q-15 -23 -41 -23h-216q-9 0 -15.5 6.5t-6.5 14.5t3 12l221 338l-197 296q-3 4 -3 12t6.5 14.5t15.5 6.5h216q26 0 42 -25l78 -128l84 130q17 23 41 23h215q9 0 15.5 -6.5t6.5 -14.5t-3 -12
l-209 -309z" />
    <glyph glyph-name="afii10088" unicode="&#x446;" 
d="M365 215h110v458q0 11 8 19t19 8h196q11 0 19 -8t8 -19v-458h38q11 0 19 -8t8 -19v-285q0 -11 -8 -19t-19 -8h-161q-11 0 -19 8t-8 19v97h-443q-11 0 -19 8t-8 19v646q0 12 8 19.5t19 7.5h206q11 0 19 -8t8 -19v-458z" />
    <glyph glyph-name="afii10089" unicode="&#x447;" 
d="M275 673v-151q0 -46 25 -67t62 -21h114v239q0 11 8 19t19 8h206q11 0 19 -8t8 -19v-646q0 -11 -8 -19t-19 -8h-206q-11 0 -19 8t-8 19v179h-117q-212 0 -299 140q-45 74 -45 180l1 147q0 11 8 19t19 8h205q11 0 19 -8t8 -19z" />
    <glyph glyph-name="afii10090" unicode="&#x448;" 
d="M782 0h-714q-11 0 -19 8t-8 19v646q0 11 8 19t19 8h160q11 0 19 -8t8 -19v-458h71v458q0 11 8 19t19 8h142q11 0 19 -8t8 -19v-458h72v458q0 11 8 19t19 8h161q11 0 19 -7.5t8 -19.5v-646q0 -11 -8 -19t-19 -8z" />
    <glyph glyph-name="afii10091" unicode="&#x449;" 
d="M635 0h-581q-11 0 -19 8t-8 19v646q0 12 8 19.5t19 7.5h160q11 0 19 -8t8 -19v-458h66v458q0 12 8 19.5t19 7.5h152q11 0 19 -8t8 -19v-458h68v458q0 11 8 19t19 8h151q11 0 19 -8t8 -19v-458h37q11 0 19 -8t8 -19v-285q0 -11 -8 -19t-19 -8h-161q-11 0 -19 8t-8 19v97z
" />
    <glyph glyph-name="afii10092" unicode="&#x44a;" 
d="M415 673v-196h115q140 0 228 -62t88 -175t-87.5 -176.5t-227.5 -63.5h-349q-11 0 -19 8t-8 19v479h-93q-11 0 -19 8t-8 19v140q0 11 8 19t19 8h326q11 0 19 -8t8 -19zM415 295v-108h115q32 0 49 15t17 41q0 52 -66 52h-115z" />
    <glyph glyph-name="afii10093" unicode="&#x44b;" 
d="M247 295v-108h45q32 0 49 15t17 41q0 52 -66 52h-45zM247 673v-196h45q134 0 210 -63.5t76 -170.5t-76.5 -175t-208.5 -68h-249q-11 0 -19 8t-8 19v646q0 11 8 19t19 8h176q11 0 19 -8t8 -19zM807 0h-174q-11 0 -19 8t-8 19v646q0 11 8 19t19 8h174q11 0 19 -8t8 -19
v-646q0 -11 -8 -19t-19 -8z" />
    <glyph glyph-name="afii10094" unicode="&#x44c;" 
d="M400 295v-108h115q32 0 49 15t17 41q0 52 -66 52h-115zM400 673v-196h115q140 0 228 -62t88 -175t-87.5 -176.5t-227.5 -63.5h-349q-11 0 -19 8t-8 19v646q0 11 8 19t19 8h206q11 0 19 -8t8 -19z" />
    <glyph glyph-name="afii10095" unicode="&#x44d;" 
d="M353 261q-11 0 -19 8t-8 19v123q0 11 8 19t19 8h163q-3 37 -30 57t-71 20q-82 0 -116 -56q-16 -26 -35 -26h-196q-9 0 -15.5 6.5t-6.5 15.5q0 94 102.5 174.5t266.5 80.5q225 0 321 -130q51 -70 51 -171v-118q0 -101 -51 -171q-96 -130 -321 -130q-164 0 -266.5 80.5
t-102.5 174.5q0 9 6.5 15.5t15.5 6.5h196q19 0 35 -26q34 -56 116 -56q44 0 71 20t30 56h-163z" />
    <glyph glyph-name="afii10096" unicode="&#x44e;" 
d="M222 673v-210h71q17 126 83.5 186.5t191.5 60.5q153 0 217.5 -90t64.5 -271t-64.5 -270t-217.5 -89q-124 0 -190.5 63.5t-84.5 189.5h-71v-216q0 -11 -8 -19t-19 -8h-161q-11 0 -19 7.5t-8 19.5v646q0 11 8 19t19 8h161q11 0 19 -8t8 -19zM516 428v-156q0 -87 52 -87
t52 88v154q0 88 -52 88t-52 -87z" />
    <glyph glyph-name="afii10097" unicode="&#x44f;" 
d="M46 458q0 112 80 177t217 65h389q11 0 19 -8t8 -19v-646q0 -11 -8 -19t-19 -8h-216q-11 0 -19 8t-8 19v196h-84l-88 -198q-12 -25 -42 -25h-227q-9 0 -15.5 6.5t-6.5 13.5t2 11l123 230q-105 61 -105 197zM489 408v106h-125q-23 0 -34.5 -16.5t-11.5 -38.5t12 -36.5
t34 -14.5h125z" />
    <glyph glyph-name="afii10071" unicode="&#x451;" 
d="M350 195h399q11 0 19 -8t8 -19v-141q0 -11 -8 -19t-19 -8h-632q-11 0 -19 8t-8 19v646q0 11 8 19t19 8h622q11 0 19 -8t8 -19v-141q0 -11 -8 -19t-19 -8h-389v-63h334q11 0 19 -8t8 -19v-130q0 -11 -8 -19t-19 -8h-334v-63zM500 850h116q10 0 16.5 -6.5t6.5 -16.5v-73
q0 -10 -6.5 -16.5t-16.5 -6.5h-116q-10 0 -16.5 6.5t-6.5 16.5v73q0 10 6.5 16.5t16.5 6.5zM249 850h116q10 0 16.5 -6.5t6.5 -16.5v-73q0 -10 -6.5 -16.5t-16.5 -6.5h-116q-10 0 -16.5 6.5t-6.5 16.5v73q0 10 6.5 16.5t16.5 6.5z" />
    <glyph glyph-name="afii10099" unicode="&#x452;" 
d="M591 55v111q0 65 -80 65h-66v-204q0 -11 -8 -19t-19 -8h-185q-11 0 -19 8t-8 19v468h-153q-10 0 -16.5 6.5t-6.5 16.5v159q0 10 6.5 16.5t16.5 6.5h562q10 0 16.5 -6.5t6.5 -16.5v-159q0 -10 -6.5 -16.5t-16.5 -6.5h-170v-55h66q157 0 226.5 -65.5t69.5 -201.5v-46
q0 -156 -67.5 -247t-179.5 -91h-70q-11 0 -19 8t-8 19v116q0 11 8 19t19 8l22 1q36 2 57.5 26t21.5 69z" />
    <glyph glyph-name="afii10100" unicode="&#x453;" 
d="M763 485h-311l1 -458q0 -11 -8 -19t-19 -8h-206q-11 0 -19 8t-8 19v646q0 11 8 19t19 8h543q11 0 19 -8t8 -19v-161q0 -11 -8 -19t-19 -8zM634 850q19 0 19 -20q0 -7 -5 -12l-95 -80q-9 -7 -28 -7h-133q-16 0 -16 16q0 8 5 13l58 71q14 17 37 19h158z" />
    <glyph glyph-name="afii10101" unicode="&#x454;" 
d="M497 261h-164q4 -36 31 -56t71 -20q82 0 116 56q16 26 35 26h196q9 0 15.5 -6.5t6.5 -15.5q0 -94 -102.5 -174.5t-266.5 -80.5q-225 0 -321 130q-51 70 -51 171v118q0 101 51 171q96 130 321 130q164 0 266.5 -80.5t102.5 -174.5q0 -9 -6.5 -15.5t-15.5 -6.5h-196
q-19 0 -35 26q-34 56 -116 56q-44 0 -71.5 -20t-30.5 -57h164q11 0 19 -8t8 -19v-123q0 -11 -8 -19t-19 -8z" />
    <glyph glyph-name="afii10102" unicode="&#x455;" 
d="M713.5 375.5q69.5 -51.5 69.5 -154.5t-101 -167t-268 -64t-259.5 61.5t-92.5 151.5q0 22 23 22h205q21 0 34 -13q28 -27 97 -27q95 0 95 29q0 18 -30 28.5t-119 20.5q-283 34 -283 217q0 103 91 166.5t243.5 63.5t246.5 -66.5t94 -140.5q0 -10 -6.5 -16t-17.5 -6h-215
q-18 0 -31 12q-24 22 -72 22q-67 0 -67 -28q0 -15 26 -23.5t104 -17.5q164 -19 233.5 -70.5z" />
    <glyph glyph-name="afii10103" unicode="&#x456;" 
d="M742 495h-181v-290h181q11 0 19 -8t8 -19v-151q0 -11 -8 -19t-19 -8h-634q-11 0 -19 8t-8 19v151q0 11 8 19t19 8h183v290h-183q-11 0 -19 8t-8 19v151q0 11 8 19t19 8h634q11 0 19 -8t8 -19v-151q0 -11 -8 -19t-19 -8z" />
    <glyph glyph-name="afii10104" unicode="&#x457;" 
d="M742 495h-181v-290h181q11 0 19 -8t8 -19v-151q0 -11 -8 -19t-19 -8h-634q-11 0 -19 8t-8 19v151q0 11 8 19t19 8h183v290h-183q-11 0 -19 8t-8 19v151q0 11 8 19t19 8h634q11 0 19 -8t8 -19v-151q0 -11 -8 -19t-19 -8zM492 850h116q10 0 16.5 -6.5t6.5 -16.5v-73
q0 -10 -6.5 -16.5t-16.5 -6.5h-116q-10 0 -16.5 6.5t-6.5 16.5v73q0 10 6.5 16.5t16.5 6.5zM241 850h116q10 0 16.5 -6.5t6.5 -16.5v-73q0 -10 -6.5 -16.5t-16.5 -6.5h-116q-10 0 -16.5 6.5t-6.5 16.5v73q0 10 6.5 16.5t16.5 6.5z" />
    <glyph glyph-name="afii10105" unicode="&#x458;" 
d="M768 673v-382q0 -152 -100 -226.5t-267 -74.5q-91 0 -165 23.5t-118 61.5q-91 79 -91 170q0 9 6.5 15.5t15.5 6.5h226q18 0 25 -22q19 -60 96 -60q47 0 74.5 22t27.5 63v225h-365q-11 0 -19 8t-8 19v151q0 11 8 19t19 8h608q11 0 19 -8t8 -19z" />
    <glyph glyph-name="afii10106" unicode="&#x459;" 
d="M30 -10q-11 0 -19.5 8t-8.5 19v160q0 11 8 19t19 8q35 0 49.5 19t14.5 58v392q0 11 8 19t19 8h412q12 0 20 -8t8 -19v-196h24q120 0 193 -64.5t73 -170t-73 -174t-192 -68.5h-199q-12 0 -19.5 8.5t-7.5 18.5v458h-46v-201q0 -294 -283 -294zM584 295h-24v-108h24
q32 0 49 15t17 40.5t-17.5 39t-48.5 13.5z" />
    <glyph glyph-name="afii10107" unicode="&#x45a;" 
d="M559 673v-196h25q120 0 193 -64.5t73 -170t-73 -174t-192 -68.5h-199q-11 0 -19 8t-8 19v223h-126v-223q0 -11 -8 -19t-19 -8h-146q-11 0 -19 7.5t-8 19.5v646q0 11 8 19t19 8h146q11 0 19 -8t8 -19v-215h126v215q0 11 8 19t19 8h146q11 0 19 -8t8 -19zM559 295v-108h25
q32 0 49 15t17 40.5t-17.5 39t-48.5 13.5h-25z" />
    <glyph glyph-name="afii10108" unicode="&#x45b;" 
d="M579 27v129q0 65 -60 65h-74v-194q0 -11 -8 -19t-19 -8h-185q-11 0 -19 8t-8 19v468h-153q-10 0 -16.5 6.5t-6.5 16.5v159q0 10 6.5 16.5t16.5 6.5h562q10 0 16.5 -6.5t6.5 -16.5v-159q0 -10 -6.5 -16.5t-16.5 -6.5h-170v-65h74q146 0 223 -67.5t77 -199.5v-136
q0 -11 -8 -19t-19 -8h-186q-11 0 -19 8t-8 19z" />
    <glyph glyph-name="afii10109" unicode="&#x45c;" 
d="M828 35q4 -6 4 -14t-6.5 -14.5t-15.5 -6.5h-258q-23 0 -36 16l-174 215v-204q0 -11 -8 -19t-19 -8h-206q-11 0 -19 8t-8 19v646q0 11 8 19t19 8h206q11 0 19 -8t8 -19v-188l158 198q15 17 37 17h241q9 0 15.5 -6.5t6.5 -15t-5 -14.5l-237 -289zM604 850q19 0 19 -20
q0 -7 -5 -12l-95 -80q-9 -7 -28 -7h-133q-16 0 -16 16q0 8 5 13l58 71q14 17 37 19h158z" />
    <glyph glyph-name="afii10110" unicode="&#x45e;" 
d="M293 0h-181q-11 0 -19 8t-8 19v160q0 11 8 19t19 8h141q56 0 62 8l-217 447q-1 3 -1 7q4 24 25 24h219q21 0 32 -24l112 -262l98 262q10 24 34 24h207q9 0 16 -6.5t7 -14.5t-1 -10l-150 -351q-43 -102 -67 -147t-69 -92.5t-107 -63t-160 -15.5zM544 855h99q19 0 19 -13
q0 -47 -46 -79.5t-131.5 -32.5t-131.5 32.5t-46 79.5q0 13 19 13h99q15 0 19 -13q6 -25 38 -25t43 25q7 13 19 13z" />
    <glyph glyph-name="afii10193" unicode="&#x45f;" 
d="M713 0h-181v-97q0 -11 -8 -19t-19 -8h-161q-11 0 -19 8t-8 19v97h-185q-11 0 -19 8t-8 19v646q0 12 8 19.5t19 7.5h186q11 0 19 -8t8 -19v-458h160v458q0 11 8 19t19 8h181q11 0 19 -8t8 -19v-646q0 -11 -8 -19t-19 -8z" />
    <glyph glyph-name="afii10050" unicode="&#x490;" 
d="M436 0h-206q-11 0 -19 8t-8 19v646q0 11 8 19t19 8h369v123q0 11 8 19t19 8h177q11 0 19 -8t8 -19v-311q0 -12 -7.5 -19.5t-19.5 -7.5h-341l1 -458q0 -11 -8 -19t-19 -8z" />
    <glyph glyph-name="afii10098" unicode="&#x491;" 
d="M436 0h-206q-11 0 -19 8t-8 19v646q0 11 8 19t19 8h369v123q0 11 8 19t19 8h177q11 0 19 -8t8 -19v-311q0 -12 -7.5 -19.5t-19.5 -7.5h-341l1 -458q0 -11 -8 -19t-19 -8z" />
    <glyph glyph-name="alefhebrew" unicode="&#x5d0;" 
d="M333 177v-150q0 -11 -8 -19t-19 -8h-201q-11 0 -19 8t-8 19v151q0 202 137 288l-125 199q-4 7 -4 14q0 21 20 21h221q28 0 44 -24l138 -218q34 45 34 107v108q0 11 8 19t19 8h201q11 0 19 -8t8 -19v-109q0 -222 -165 -303l143 -225q4 -6 4 -15.5t-6 -15t-14 -5.5h-221
q-28 0 -45 25l-145 229q-16 -39 -16 -77z" />
    <glyph glyph-name="bethebrew" unicode="&#x5d1;" 
d="M66 700h218q179 0 275 -72.5t96 -236.5v-191h79q11 0 19 -8t8 -19v-146q0 -11 -8 -19t-19 -8h-668q-11 0 -19 8t-8 19v146q0 11 8 19t19 8h319v190q0 57 -23.5 81t-77.5 24h-218q-11 0 -19 8t-8 19v151q0 11 8 19t19 8z" />
    <glyph glyph-name="gimelhebrew" unicode="&#x5d2;" 
d="M379 337v63q0 57 -23.5 81t-77.5 24h-118q-11 0 -19 8t-8 19v151q0 11 8 19t19 8h118q179 0 275 -72.5t96 -236.5v-75l140 -299q3 -5 3 -10t-4 -11t-15 -6h-221q-20 0 -29 19l-55 115h-58q-48 0 -77.5 -24.5t-29.5 -72.5v-10q0 -11 -8 -19t-19 -8h-201q-11 0 -19 8t-8 19
v11q0 82 29 142.5t79 93.5q94 63 223 63z" />
    <glyph glyph-name="dalethebrew" unicode="&#x5d3;" 
d="M634 485h-79v-458q0 -11 -8 -19t-19 -8h-216q-11 0 -19 8t-8 19v458h-229q-11 0 -19 8t-8 19v161q0 11 8 19t19 8h578q11 0 19 -8t8 -19v-161q0 -11 -8 -19t-19 -8z" />
    <glyph glyph-name="hehebrew" unicode="&#x5d4;" 
d="M292 408v-381q0 -11 -8 -19t-19 -8h-196q-11 0 -19 8t-8 19l-1 381q0 11 8 19t19 8h197q11 0 19 -8t8 -19zM68 700h327q371 0 371 -319v-354q0 -11 -8 -19t-19 -8h-216q-11 0 -19 8t-8 19v353q0 57 -23.5 81t-77.5 24h-327q-11 0 -19 8t-8 19v161q0 11 8 19t19 8z" />
    <glyph glyph-name="vavhebrew" unicode="&#x5d5;" 
d="M580 673v-646q0 -11 -8 -19t-19 -8h-216q-11 0 -19 8t-8 19v458h-133q-11 0 -19 8t-8 19v161q0 11 8 19t19 8h376q11 0 19 -8t8 -19z" />
    <glyph glyph-name="zayinhebrew" unicode="&#x5d6;" 
d="M630 485h-8q-38 0 -51.5 -24t-13.5 -96v-338q0 -11 -8 -19t-19 -8h-216q-11 0 -19 8t-8 19v338q0 74 28 120h-193q-11 0 -19 8t-8 19v161q0 11 8 19t19 8h508q11 0 19 -8t8 -19v-161q0 -11 -8 -19t-19 -8z" />
    <glyph glyph-name="hethebrew" unicode="&#x5d7;" 
d="M138 700h287q371 0 371 -319v-354q0 -11 -8 -19t-19 -8h-216q-11 0 -19 8t-8 19v353q0 57 -23.5 81t-77.5 24h-43v-458q0 -11 -8 -19t-19 -8h-217q-11 0 -19 8t-8 19v646q0 11 8 19t19 8z" />
    <glyph glyph-name="tethebrew" unicode="&#x5d8;" 
d="M443 710h3q172 0 270 -84.5t98 -226.5v-108q0 -142 -98 -221.5t-272.5 -79.5t-267.5 79.5t-93 225.5v372q0 14 9.5 23.5t23.5 9.5h194q14 0 23.5 -9.5t9.5 -23.5v-375q0 -51 25.5 -79.5t76 -28.5t76.5 28t26 79v112q0 109 -102 109h-2q-14 0 -23.5 9.5t-9.5 23.5v132
q0 14 9.5 23.5t23.5 9.5z" />
    <glyph glyph-name="yodhebrew" unicode="&#x5d9;" 
d="M600 673v-408q0 -11 -8 -19t-19 -8h-216q-11 0 -19 8t-8 19v220h-133q-11 0 -19 8t-8 19v161q0 11 8 19t19 8h376q11 0 19 -8t8 -19z" />
    <glyph glyph-name="finalkafhebrew" unicode="&#x5da;" 
d="M660 485h-79v-582q0 -11 -8 -19t-19 -8h-216q-11 0 -19 8t-8 19v582h-229q-11 0 -19 8t-8 19v161q0 11 8 19t19 8h578q11 0 19 -8t8 -19v-161q0 -11 -8 -19t-19 -8z" />
    <glyph glyph-name="kafhebrew" unicode="&#x5db;" 
d="M60 215h292q52 0 77 26.5t25 73.5v70q0 47 -25 73.5t-77 26.5h-292q-11 0 -19 8t-8 19v161q0 11 8 19t19 8h302q172 0 267 -82.5t95 -238.5v-58q0 -156 -95 -238.5t-267 -82.5h-302q-11 0 -19 8t-8 19v161q0 11 8 19t19 8z" />
    <glyph glyph-name="lamedhebrew" unicode="&#x5dc;" 
d="M56 512v311q0 11 8 19t19 8h176q11 0 19 -8t8 -19v-123h352q11 0 19 -8t8 -19v-369q0 -164 -95.5 -234t-275.5 -70h-24q-11 0 -19 8t-8 19v146q0 11 8 19t19 8h24q54 0 77.5 24t23.5 81v180h-312q-11 0 -19 8t-8 19z" />
    <glyph glyph-name="finalmemhebrew" unicode="&#x5dd;" 
d="M107 700h286q179 0 275 -72.5t96 -236.5v-364q0 -11 -7.5 -19t-19.5 -8h-630q-11 0 -18.5 8t-7.5 19l-1 646q0 11 8 19t19 8zM393 495h-42v-295h143v190q0 57 -23.5 81t-77.5 24z" />
    <glyph glyph-name="memhebrew" unicode="&#x5de;" 
d="M478 215h82v165q0 57 -23.5 81t-77.5 24h-33l-120 -458q0 -11 -8 -19t-19 -8h-216q-11 0 -19 8t-8 19l119 458h-92q-11 0 -19 8t-8 19v161q0 11 8 19t19 8h396q371 0 371 -319v-354q0 -11 -8 -19t-19 -8h-325q-11 0 -19 8t-8 19v161q0 11 8 19t19 8z" />
    <glyph glyph-name="finalnunhebrew" unicode="&#x5df;" 
d="M580 673v-770q0 -11 -8 -19t-19 -8h-216q-11 0 -19 8t-8 19v582h-133q-11 0 -19 8t-8 19v161q0 11 8 19t19 8h376q11 0 19 -8t8 -19z" />
    <glyph glyph-name="nunhebrew" unicode="&#x5e0;" 
d="M142 710h78q176 0 273.5 -81t97.5 -248v-354q0 -11 -8 -19t-19 -8h-422q-11 0 -19 8t-8 19v161q0 11 8 19t19 8h179v165q0 57 -23.5 81t-77.5 24h-78q-11 0 -19 8t-8 19v171q0 11 8 19t19 8z" />
    <glyph glyph-name="samekhhebrew" unicode="&#x5e1;" 
d="M127 710h310q170 0 264 -85t94 -228v-96q0 -144 -94.5 -227.5t-266 -83.5t-256 83t-84.5 232v372q0 14 9.5 23.5t23.5 9.5zM436 512h-92v-220q0 -108 92 -108t92 107v110q0 53 -18.5 82t-73.5 29z" />
    <glyph glyph-name="ayinhebrew" unicode="&#x5e2;" 
d="M394 -10h-346q-11 0 -19 8t-8 19v155q0 11 8 19t19 8h156l-161 474q-4 10 5.5 18.5t21.5 8.5h216q17 0 27 -27l156 -456q26 23 26 87v369q0 11 8 19t19 8h216q11 0 19 -8t8 -19v-374q0 -164 -96 -236.5t-275 -72.5z" />
    <glyph glyph-name="finalpehebrew" unicode="&#x5e3;" 
d="M377 114h-6q-161 0 -251 81.5t-90 247.5v230q0 11 8 19t19 8h326q366 0 366 -319v-478q0 -11 -8 -19t-19 -8h-211q-11 0 -19 8t-8 19v477q0 57 -23.5 81t-77.5 24h-113v-41q0 -57 23.5 -81t77.5 -24h6q11 0 19 -8t8 -19v-171q0 -11 -8 -19t-19 -8z" />
    <glyph glyph-name="pehebrew" unicode="&#x5e4;" 
d="M17 679q0 21 20 21h216q33 0 44 -24l106 -244q24 11 44 48.5t20 84.5v108q0 11 8 19t19 8h201q11 0 19 -8t8 -19v-109q0 -135 -63.5 -218.5t-170.5 -109.5l142 -324q4 -11 4 -18t-6 -12.5t-14 -5.5h-216q-33 0 -45 25l-332 764q-4 10 -4 14z" />
    <glyph glyph-name="finaltsadihebrew" unicode="&#x5e5;" 
d="M70 215h366q47 0 69.5 21t22.5 69v100q0 95 -92 95h-144q0 -30 10 -40.5t42 -10.5h16q11 0 19 -8t8 -19v-141q0 -11 -8 -19t-19 -8h-16q-159 0 -230 59.5t-71 213.5v146q0 11 8 19t19 8h366q163 0 262.5 -75t99.5 -226v-88q0 -152 -100 -231.5t-262 -79.5h-366
q-11 0 -19 8t-8 19v161q0 11 8 19t19 8z" />
    <glyph glyph-name="tsadihebrew" unicode="&#x5e6;" 
d="M58 205h313l-360 462q-5 7 -5 14t6.5 13t15.5 6h240q24 0 29 -5l13 -13l156 -203q21 40 21 86v108q0 11 8 19t19 8h201q11 0 19 -8t8 -19v-109q0 -190 -125 -279l62 -80q14 -18 14 -39v-139q0 -11 -8 -19t-19 -8h-608q-11 0 -19 8t-8 19v151q0 11 8 19t19 8z" />
    <glyph glyph-name="qofhebrew" unicode="&#x5e7;" 
d="M51 522v151q0 11 8 19t19 8h685q11 0 19 -8t8 -19v-374q0 -164 -96 -236.5t-275 -72.5h-14q-11 0 -19 8t-8 19v151q0 11 8 19t19 8h14q54 0 77.5 24t23.5 81v195h-442q-11 0 -19 8t-8 19zM320 408v-505q0 -11 -8 -19t-19 -8h-216q-11 0 -19 8t-8 19v505q0 11 8 19t19 8
h216q11 0 19 -8t8 -19z" />
    <glyph glyph-name="reshhebrew" unicode="&#x5e8;" 
d="M48 700h297q371 0 371 -314v-359q0 -11 -8 -19t-19 -8h-216q-11 0 -19 8t-8 19v358q0 56 -23.5 78t-77.5 22h-297q-11 0 -19 8t-8 19v161q0 11 8 19t19 8z" />
    <glyph glyph-name="shinhebrew" unicode="&#x5e9;" 
d="M511 -10h-173q-157 0 -249 81t-92 228v374q0 11 8 19t19 8h176q11 0 19 -8t8 -19v-336q25 19 42 50t17 63v222q0 28 29 28h144q13 0 20.5 -8.5t7.5 -20.5v-224q0 -84 -39.5 -152t-122.5 -100h186q111 0 111 105v373q0 11 8 19t19 8h176q11 0 19 -8t8 -19v-374
q0 -147 -92 -228t-249 -81z" />
    <glyph glyph-name="tavhebrew" unicode="&#x5ea;" 
d="M61 200h78v295h-78q-11 0 -19 8t-8 19v151q0 11 8 19t19 8h402q179 0 275 -72.5t96 -236.5v-364q0 -11 -8 -19t-19 -8h-216q-11 0 -19 8t-8 19v363q0 57 -23.5 81t-77.5 24h-53v-468q0 -11 -8 -19t-19 -8h-322q-11 0 -19 8t-8 19v146q0 11 8 19t19 8z" />
    <glyph glyph-name="Wgrave" unicode="&#x1e80;" 
d="M293 0h-140q-19 0 -31.5 11.5t-14.5 26.5l-87 637v3q0 9 6.5 15.5t15.5 6.5h172q20 0 32.5 -12t14.5 -30l32 -306l58 159q3 10 14.5 19.5t29.5 9.5h68q18 0 29.5 -9.5t14.5 -19.5l58 -159l32 306q2 18 14.5 30t32.5 12h172q9 0 15.5 -6.5t6.5 -15.5v-3l-87 -637
q-2 -15 -14.5 -26.5t-31.5 -11.5h-140q-18 0 -29.5 9t-14.5 18l-92 211l-92 -211q-3 -9 -14.5 -18t-29.5 -9zM514 747q0 -16 -16 -16h-133q-19 0 -28 7l-95 80q-5 5 -5 12q0 20 19 20h158q23 -2 37 -19l58 -71q5 -5 5 -13z" />
    <glyph glyph-name="wgrave" unicode="&#x1e81;" 
d="M293 0h-140q-19 0 -31.5 11.5t-14.5 26.5l-87 637v3q0 9 6.5 15.5t15.5 6.5h172q20 0 32.5 -12t14.5 -30l32 -306l58 159q3 10 14.5 19.5t29.5 9.5h68q18 0 29.5 -9.5t14.5 -19.5l58 -159l32 306q2 18 14.5 30t32.5 12h172q9 0 15.5 -6.5t6.5 -15.5v-3l-87 -637
q-2 -15 -14.5 -26.5t-31.5 -11.5h-140q-18 0 -29.5 9t-14.5 18l-92 211l-92 -211q-3 -9 -14.5 -18t-29.5 -9zM514 747q0 -16 -16 -16h-133q-19 0 -28 7l-95 80q-5 5 -5 12q0 20 19 20h158q23 -2 37 -19l58 -71q5 -5 5 -13z" />
    <glyph glyph-name="Wacute" unicode="&#x1e82;" 
d="M293 0h-140q-19 0 -31.5 11.5t-14.5 26.5l-87 637v3q0 9 6.5 15.5t15.5 6.5h172q20 0 32.5 -12t14.5 -30l32 -306l58 159q3 10 14.5 19.5t29.5 9.5h68q18 0 29.5 -9.5t14.5 -19.5l58 -159l32 306q2 18 14.5 30t32.5 12h172q9 0 15.5 -6.5t6.5 -15.5v-3l-87 -637
q-2 -15 -14.5 -26.5t-31.5 -11.5h-140q-18 0 -29.5 9t-14.5 18l-92 211l-92 -211q-3 -9 -14.5 -18t-29.5 -9zM586 850q19 0 19 -20q0 -7 -5 -12l-95 -80q-9 -7 -28 -7h-133q-16 0 -16 16q0 8 5 13l58 71q14 17 37 19h158z" />
    <glyph glyph-name="wacute" unicode="&#x1e83;" 
d="M293 0h-140q-19 0 -31.5 11.5t-14.5 26.5l-87 637v3q0 9 6.5 15.5t15.5 6.5h172q20 0 32.5 -12t14.5 -30l32 -306l58 159q3 10 14.5 19.5t29.5 9.5h68q18 0 29.5 -9.5t14.5 -19.5l58 -159l32 306q2 18 14.5 30t32.5 12h172q9 0 15.5 -6.5t6.5 -15.5v-3l-87 -637
q-2 -15 -14.5 -26.5t-31.5 -11.5h-140q-18 0 -29.5 9t-14.5 18l-92 211l-92 -211q-3 -9 -14.5 -18t-29.5 -9zM586 850q19 0 19 -20q0 -7 -5 -12l-95 -80q-9 -7 -28 -7h-133q-16 0 -16 16q0 8 5 13l58 71q14 17 37 19h158z" />
    <glyph glyph-name="Wdieresis" unicode="&#x1e84;" 
d="M293 0h-140q-19 0 -31.5 11.5t-14.5 26.5l-87 637v3q0 9 6.5 15.5t15.5 6.5h172q20 0 32.5 -12t14.5 -30l32 -306l58 159q3 10 14.5 19.5t29.5 9.5h68q18 0 29.5 -9.5t14.5 -19.5l58 -159l32 306q2 18 14.5 30t32.5 12h172q9 0 15.5 -6.5t6.5 -15.5v-3l-87 -637
q-2 -15 -14.5 -26.5t-31.5 -11.5h-140q-18 0 -29.5 9t-14.5 18l-92 211l-92 -211q-3 -9 -14.5 -18t-29.5 -9zM495 850h116q10 0 16.5 -6.5t6.5 -16.5v-73q0 -10 -6.5 -16.5t-16.5 -6.5h-116q-10 0 -16.5 6.5t-6.5 16.5v73q0 10 6.5 16.5t16.5 6.5zM244 850h116
q10 0 16.5 -6.5t6.5 -16.5v-73q0 -10 -6.5 -16.5t-16.5 -6.5h-116q-10 0 -16.5 6.5t-6.5 16.5v73q0 10 6.5 16.5t16.5 6.5z" />
    <glyph glyph-name="wdieresis" unicode="&#x1e85;" 
d="M293 0h-140q-19 0 -31.5 11.5t-14.5 26.5l-87 637v3q0 9 6.5 15.5t15.5 6.5h172q20 0 32.5 -12t14.5 -30l32 -306l58 159q3 10 14.5 19.5t29.5 9.5h68q18 0 29.5 -9.5t14.5 -19.5l58 -159l32 306q2 18 14.5 30t32.5 12h172q9 0 15.5 -6.5t6.5 -15.5v-3l-87 -637
q-2 -15 -14.5 -26.5t-31.5 -11.5h-140q-18 0 -29.5 9t-14.5 18l-92 211l-92 -211q-3 -9 -14.5 -18t-29.5 -9zM495 850h116q10 0 16.5 -6.5t6.5 -16.5v-73q0 -10 -6.5 -16.5t-16.5 -6.5h-116q-10 0 -16.5 6.5t-6.5 16.5v73q0 10 6.5 16.5t16.5 6.5zM244 850h116
q10 0 16.5 -6.5t6.5 -16.5v-73q0 -10 -6.5 -16.5t-16.5 -6.5h-116q-10 0 -16.5 6.5t-6.5 16.5v73q0 10 6.5 16.5t16.5 6.5z" />
    <glyph glyph-name="Ygrave" unicode="&#x1ef2;" 
d="M582 700h209q9 0 15.5 -6.5t6.5 -13.5t-3 -13l-252 -417v-223q0 -11 -8 -19t-19 -8h-213q-11 0 -19 8t-8 19v223l-251 417q-3 6 -3 13t6.5 13.5t15.5 6.5h211q28 0 41 -23l113 -198l116 196q15 25 42 25zM512 747q0 -16 -16 -16h-133q-19 0 -28 7l-95 80q-5 5 -5 12
q0 20 19 20h158q23 -2 37 -19l58 -71q5 -5 5 -13z" />
    <glyph glyph-name="ygrave" unicode="&#x1ef3;" 
d="M582 700h209q9 0 15.5 -6.5t6.5 -13.5t-3 -13l-252 -417v-223q0 -11 -8 -19t-19 -8h-213q-11 0 -19 8t-8 19v223l-251 417q-3 6 -3 13t6.5 13.5t15.5 6.5h211q28 0 41 -23l113 -198l116 196q15 25 42 25zM512 747q0 -16 -16 -16h-133q-19 0 -28 7l-95 80q-5 5 -5 12
q0 20 19 20h158q23 -2 37 -19l58 -71q5 -5 5 -13z" />
    <glyph glyph-name="endash" unicode="&#x2013;" 
d="M176 427h498q11 0 19 -8t8 -19v-136q0 -11 -8 -19t-19 -8h-498q-11 0 -19 8t-8 19v136q0 11 8 19t19 8z" />
    <glyph glyph-name="emdash" unicode="&#x2014;" 
d="M72 427h705q11 0 19 -8t8 -19v-136q0 -11 -8 -19t-19 -8h-705q-11 0 -19 8t-8 19v136q0 11 8 19t19 8z" />
    <glyph glyph-name="quoteleft" unicode="&#x2018;" 
d="M486 408h-185q-9 0 -15.5 6.5t-6.5 13t1 9.5l95 241q12 32 46 32h128q9 0 15.5 -6.5t6.5 -15.5v-2l-37 -239q-2 -15 -15.5 -27t-32.5 -12z" />
    <glyph glyph-name="quoteright" unicode="&#x2019;" 
d="M364 710h185q9 0 15.5 -6.5t6.5 -13t-1 -9.5l-95 -241q-12 -32 -46 -32h-128q-9 0 -15.5 6.5t-6.5 15.5v2l37 239q2 15 15.5 27t32.5 12z" />
    <glyph glyph-name="quotesinglbase" unicode="&#x201a;" 
d="M364 210h185q9 0 15.5 -6.5t6.5 -13t-1 -9.5l-95 -241q-12 -32 -46 -32h-128q-9 0 -15.5 6.5t-6.5 15.5v2l37 239q2 15 15.5 27t32.5 12z" />
    <glyph glyph-name="quotedblleft" unicode="&#x201c;" 
d="M639 408h-185q-9 0 -15.5 6.5t-6.5 13t1 9.5l95 241q12 32 46 32h128q9 0 15.5 -6.5t6.5 -15.5v-2l-37 -239q-2 -15 -15.5 -27t-32.5 -12zM334 408h-185q-9 0 -15.5 6.5t-6.5 13t1 9.5l95 241q12 32 46 32h128q9 0 15.5 -6.5t6.5 -15.5v-2l-37 -239q-2 -15 -15.5 -27
t-32.5 -12z" />
    <glyph glyph-name="quotedblright" unicode="&#x201d;" 
d="M211 710h185q9 0 15.5 -6.5t6.5 -13t-1 -9.5l-95 -241q-12 -32 -46 -32h-128q-9 0 -15.5 6.5t-6.5 15.5v2l37 239q2 15 15.5 27t32.5 12zM516 710h185q9 0 15.5 -6.5t6.5 -13t-1 -9.5l-95 -241q-12 -32 -46 -32h-128q-9 0 -15.5 6.5t-6.5 15.5v2l37 239q2 15 15.5 27
t32.5 12z" />
    <glyph glyph-name="quotedblbase" unicode="&#x201e;" 
d="M211 210h185q9 0 15.5 -6.5t6.5 -13t-1 -9.5l-95 -241q-12 -32 -46 -32h-128q-9 0 -15.5 6.5t-6.5 15.5v2l37 239q2 15 15.5 27t32.5 12zM516 210h185q9 0 15.5 -6.5t6.5 -13t-1 -9.5l-95 -241q-12 -32 -46 -32h-128q-9 0 -15.5 6.5t-6.5 15.5v2l37 239q2 15 15.5 27
t32.5 12z" />
    <glyph glyph-name="dagger" unicode="&#x2020;" 
d="M184 524h142v149q0 11 8 19t19 8h144q11 0 19 -8t8 -19v-149h143q11 0 19 -8t8 -19v-132q0 -11 -8 -19t-19 -8h-143v-311q0 -11 -8 -19t-19 -8h-144q-11 0 -19 8t-8 19v311h-142q-11 0 -19 8t-8 19v132q0 11 8 19t19 8z" />
    <glyph glyph-name="daggerdbl" unicode="&#x2021;" 
d="M184 312h142v86h-142q-11 0 -19 8t-8 19v132q0 11 8 19t19 8h142v89q0 11 8 19t19 8h144q11 0 19 -8t8 -19v-89h143q11 0 19 -8t8 -19v-132q0 -11 -8 -19t-19 -8h-143v-86h143q11 0 19 -8t8 -19v-132q0 -11 -8 -19t-19 -8h-143v-99q0 -11 -8 -19t-19 -8h-144q-11 0 -19 8
t-8 19v99h-142q-11 0 -19 8t-8 19v132q0 11 8 19t19 8z" />
    <glyph glyph-name="bullet" unicode="&#x2022;" 
d="M271 434q0 64 45 109t109 45t109 -45t45 -109t-45 -109t-109 -45t-109 45t-45 109z" />
    <glyph glyph-name="ellipsis" unicode="&#x2026;" 
d="M77 198h150q11 0 19 -8t8 -19v-144q0 -11 -8 -19t-19 -8h-150q-11 0 -19 8t-8 19v144q0 11 8 19t19 8zM350 198h150q11 0 19 -8t8 -19v-144q0 -11 -8 -19t-19 -8h-150q-11 0 -19 8t-8 19v144q0 11 8 19t19 8zM623 198h150q11 0 19 -8t8 -19v-144q0 -11 -8 -19t-19 -8
h-150q-11 0 -19 8t-8 19v144q0 11 8 19t19 8z" />
    <glyph glyph-name="perthousand" unicode="&#x2030;" 
d="M112 573v-94q0 -34 23 -34t23 34v94q0 33 -23 33t-23 -33zM261 562v-74q0 -71 -32.5 -109.5t-93.5 -38.5t-94 38.5t-33 110.5v72q0 71 34 110t92.5 39t92.5 -39t34 -109zM476 700h54q24 0 24 -20q0 -6 -4 -11l-414 -650q-12 -19 -36 -19h-54q-24 0 -24 20q0 6 4 11
l414 650q12 19 36 19zM422 223v-94q0 -34 23 -34t23 34v94q0 33 -23 33t-23 -33zM571 212v-74q0 -71 -32.5 -109.5t-93.5 -38.5t-94 38.5t-33 110.5v72q0 71 34 110t92.5 39t92.5 -39t34 -109zM692 223v-94q0 -34 23 -34t23 34v94q0 33 -23 33t-23 -33zM841 212v-74
q0 -71 -32.5 -109.5t-93.5 -38.5t-94 38.5t-33 110.5v72q0 71 34 110t92.5 39t92.5 -39t34 -109z" />
    <glyph glyph-name="guilsinglleft" unicode="&#x2039;" 
d="M284 306v46q0 16 14 28l213 202q6 5 14.5 5t14.5 -6t6 -15v-154q0 -9 -3 -13.5t-15 -15.5l-57 -54l57 -54q17 -20 18 -29v-154q0 -9 -6 -15t-14.5 -6t-14.5 5l-213 202q-14 12 -14 28z" />
    <glyph glyph-name="guilsinglright" unicode="&#x203a;" 
d="M566 352v-46q0 -16 -14 -28l-213 -202q-6 -5 -14.5 -5t-14.5 6t-6 15v154q0 9 3 13.5t15 15.5l57 54l-57 54q-17 20 -18 29v154q0 9 6 15t14.5 6t14.5 -5l213 -202q14 -12 14 -28z" />
    <glyph glyph-name="fraction" unicode="&#x2044;" 
d="M643 700h74q24 0 24 -20q0 -6 -4 -11l-494 -650q-14 -19 -36 -19h-74q-24 0 -24 20q0 6 4 11l494 650q14 19 36 19z" />
    <glyph glyph-name="zerosuperior" unicode="&#x2070;" 
d="M392 573v-94q0 -14 9.5 -24t23.5 -10t23.5 10t9.5 24v94q0 14 -9.5 23.5t-23.5 9.5t-23.5 -10t-9.5 -23zM601 572v-94q0 -68 -48 -103t-128 -35t-128.5 35t-48.5 104v92q0 69 49.5 104t127 35t127 -35.5t49.5 -102.5z" />
    <glyph glyph-name="foursuperior" unicode="&#x2074;" 
d="M555 511h44q14 0 14 -14v-81q0 -13 -13 -13h-45v-39q0 -5 -4 -9.5t-10 -4.5h-108q-5 0 -9 4.5t-4 9.5v39h-171q-13 0 -13 13v81q0 9 5 16l145 179q6 8 19 8h136q14 0 14 -13v-176zM423 506v71l-58 -71h58z" />
    <glyph glyph-name="fivesuperior" unicode="&#x2075;" 
d="M422 439q39 0 39 32q0 15 -11 23t-26.5 8t-26 -6t-13.5 -6h-106q-12 0 -12 11v3l20 175q4 21 24 21h253q13 0 13 -14v-72q0 -13 -13 -13h-167l-4 -34q28 18 79 18t91 -32.5t40 -88t-49.5 -90t-130.5 -34.5t-127.5 32t-46.5 82q0 11 11 11h108q13 0 23 -13t32 -13z" />
    <glyph glyph-name="sixsuperior" unicode="&#x2076;" 
d="M475 597q43 0 85 -28.5t42 -91t-49 -100t-126 -37.5t-127.5 35t-50.5 90t51 119l85 106q10 10 20 10h112q12 0 12 -11q0 -3 -2 -7l-63 -85h11zM456.5 448q12.5 9 12.5 24.5t-12 24.5t-30 9t-31 -9t-13 -24.5t12.5 -24.5t30.5 -9t30.5 9z" />
    <glyph glyph-name="sevensuperior" unicode="&#x2077;" 
d="M275 700h300q13 0 13 -13v-75q0 -16 -6 -26l-121 -224q-8 -12 -21 -12h-120q-11 0 -11 12q0 3 1 4l129 225h-164q-13 0 -13 14v82q0 13 13 13z" />
    <glyph glyph-name="eightsuperior" unicode="&#x2078;" 
d="M297.5 678.5q43.5 31.5 126 31.5t126 -31t43.5 -74t-36 -70q49 -26 49 -76t-47.5 -84.5t-135 -34.5t-134 35t-46.5 85t45 75q-34 26 -34 69t43.5 74.5zM465 455q0 14 -12.5 22t-29 8t-28.5 -8.5t-12 -21.5t12 -21t28 -8q42 0 42 29zM450.5 574.5q11.5 7.5 11.5 20
t-11.5 20.5t-27 8t-26.5 -8t-11 -20.5t11 -20t26.5 -7.5t27 7.5z" />
    <glyph glyph-name="ninesuperior" unicode="&#x2079;" 
d="M377 452q-44 0 -86.5 29t-42.5 91.5t49 100t126 37.5t127.5 -35t50.5 -91.5t-50 -116.5l-93 -107q-10 -10 -20 -10h-117q-11 0 -11 11q0 3 2 7l74 84h-9zM454.5 553q12.5 9 12.5 24.5t-12 24.5t-30 9t-31 -9t-13 -24.5t12.5 -24.5t30.5 -9t30.5 9z" />
    <glyph glyph-name="parenleftsuperior" unicode="&#x207d;" 
d="M440 594v-141q0 -31 18 -50t47 -23q10 -2 10 -11v-73q0 -11 -11 -11q-73 0 -121 43.5t-48 124.5v141q0 81 48 124.5t121 43.5q11 0 11 -11v-73q0 -9 -10 -11q-29 -4 -47 -23t-18 -50z" />
    <glyph glyph-name="parenrightsuperior" unicode="&#x207e;" 
d="M410 453v141q0 31 -18 50t-47 23q-10 2 -10 11v73q0 11 11 11q73 0 121 -43.5t48 -124.5v-141q0 -81 -48 -124.5t-121 -43.5q-11 0 -11 11v73q0 9 10 11q29 4 47 23t18 50z" />
    <glyph glyph-name="zeroinferior" unicode="&#x2080;" 
d="M392 82v-94q0 -14 9.5 -24t23.5 -10t23.5 10t9.5 24v94q0 14 -9.5 23.5t-23.5 9.5t-23.5 -10t-9.5 -23zM601 81v-94q0 -68 -48 -103t-128 -35t-128.5 35t-48.5 104v92q0 69 49.5 104t127 35t127 -35.5t49.5 -102.5z" />
    <glyph glyph-name="oneinferior" unicode="&#x2081;" 
d="M503 197v-227h81q14 0 14 -14v-82q0 -5 -4 -9.5t-10 -4.5h-313q-5 0 -9 4.5t-4 9.5v82q0 14 13 14h95v104l-50 -32q-11 -8 -19 4l-44 69q-2 4 -2 9t7 11l113 73q3 2 8 2h110q14 0 14 -13z" />
    <glyph glyph-name="twoinferior" unicode="&#x2082;" 
d="M582 -32q5 0 9.5 -4t4.5 -9v-82q0 -6 -4.5 -10t-9.5 -4h-313q-5 0 -9.5 4t-4.5 10v67q0 20 14 28q15 10 39.5 25t37.5 23.5t31 20t27.5 19t19.5 16.5q18 15 18 27q0 20 -20 20q-17 0 -23 -12q-2 -4 -4 -11.5t-3 -8.5q-2 -6 -14 -6h-109q-12 0 -12 13q0 58 45 91.5
t124 33.5q156 0 156 -114q0 -46 -68 -93q-9 -6 -32.5 -21.5t-33.5 -22.5h134z" />
    <glyph glyph-name="threeinferior" unicode="&#x2083;" 
d="M606 -34q0 -55 -51 -85.5t-135.5 -30.5t-130 33t-45.5 73q0 11 11 11h116q6 0 16 -9t43.5 -9t33.5 23q0 21 -40 21h-67q-14 0 -14 14v41q0 16 11 21l75 37h-148q-14 0 -14 13v77q0 14 14 14h288q14 0 14 -14v-64q0 -12 -11 -21l-63 -42q97 -22 97 -103z" />
    <glyph glyph-name="fourinferior" unicode="&#x2084;" 
d="M556 21h44q14 0 14 -14v-81q0 -13 -13 -13h-45v-39q0 -5 -4 -9.5t-10 -4.5h-108q-5 0 -9 4.5t-4 9.5v39h-171q-13 0 -13 13v81q0 8 5 16l145 179q6 8 19 8h136q14 0 14 -13v-176zM424 16v71l-58 -71h58z" />
    <glyph glyph-name="fiveinferior" unicode="&#x2085;" 
d="M422 -51q39 0 39 32q0 15 -11 23t-26.5 8t-26 -6t-13.5 -6h-106q-12 0 -12 11v3l20 175q4 21 24 21h253q13 0 13 -14v-72q0 -13 -13 -13h-167l-4 -34q28 18 79 18t91 -32.5t40 -88t-49.5 -90t-130.5 -34.5t-127.5 32t-46.5 82q0 11 11 11h108q13 0 23 -13t32 -13z" />
    <glyph glyph-name="sixinferior" unicode="&#x2086;" 
d="M475 106q43 0 85 -28.5t42 -91t-49 -100t-126 -37.5t-127.5 35t-50.5 90t51 119l85 106q10 10 20 10h112q12 0 12 -11q0 -3 -2 -7l-63 -85h11zM456.5 -43q12.5 9 12.5 24.5t-12 24.5t-30 9t-31 -9t-13 -24.5t12.5 -24.5t30.5 -9t30.5 9z" />
    <glyph glyph-name="seveninferior" unicode="&#x2087;" 
d="M275 210h300q13 0 13 -13v-75q0 -16 -6 -26l-121 -224q-8 -12 -21 -12h-120q-11 0 -11 12q0 3 1 4l129 225h-164q-13 0 -13 14v82q0 13 13 13z" />
    <glyph glyph-name="eightinferior" unicode="&#x2088;" 
d="M297.5 188.5q43.5 31.5 126 31.5t126 -31t43.5 -74t-36 -70q49 -26 49 -76t-47.5 -84.5t-135 -34.5t-134 35t-46.5 85t45 75q-34 26 -34 69t43.5 74.5zM465 -35q0 14 -12.5 22t-29 8t-28.5 -8.5t-12 -21.5t12 -21t28 -8q42 0 42 29zM450.5 84.5q11.5 7.5 11.5 20
t-11.5 20.5t-27 8t-26.5 -8t-11 -20.5t11 -20t26.5 -7.5t27 7.5z" />
    <glyph glyph-name="nineinferior" unicode="&#x2089;" 
d="M377 -38q-44 0 -86.5 29t-42.5 91.5t49 100t126 37.5t127.5 -35t50.5 -91.5t-50 -116.5l-93 -107q-10 -10 -20 -10h-117q-11 0 -11 11q0 3 2 7l74 84h-9zM454.5 63q12.5 9 12.5 24.5t-12 24.5t-30 9t-31 -9t-13 -24.5t12.5 -24.5t30.5 -9t30.5 9z" />
    <glyph glyph-name="parenleftinferior" unicode="&#x208d;" 
d="M440 103v-141q0 -31 18 -50t47 -23q10 -2 10 -11v-73q0 -11 -11 -11q-73 0 -121 43.5t-48 124.5v141q0 81 48 124.5t121 43.5q11 0 11 -11v-73q0 -9 -10 -11q-29 -4 -47 -23t-18 -50z" />
    <glyph glyph-name="parenrightinferior" unicode="&#x208e;" 
d="M410 -38v141q0 31 -18 50t-47 23q-10 2 -10 11v73q0 11 11 11q73 0 121 -43.5t48 -124.5v-141q0 -81 -48 -124.5t-121 -43.5q-11 0 -11 11v73q0 9 10 11q29 4 47 23t18 50z" />
    <glyph glyph-name="Euro" unicode="&#x20ac;" 
d="M27 436h41q10 136 112 205t259 69q91 0 164 -23.5t117 -61.5q88 -77 88 -170q0 -9 -6.5 -15.5t-15.5 -6.5h-216q-22 0 -35.5 27t-33.5 41t-63.5 14t-71 -20.5t-29.5 -58.5h95q11 0 19 -8t8 -19v-116q0 -11 -8 -19t-19 -8h-95q1 -39 28.5 -60t71.5 -21t64 14t33.5 41
t35.5 27h216q9 0 15.5 -6.5t6.5 -15.5q0 -93 -88 -170q-44 -38 -117 -61.5t-169.5 -23.5t-176 28t-131.5 91.5t-58 156.5h-41q-11 0 -19 8t-8 19v116q0 11 8 19t19 8z" />
    <glyph glyph-name="afii61352" unicode="&#x2116;" 
d="M332 700h151q11 0 19 -8t8 -19v-646q0 -11 -8 -19t-19 -8h-128q-31 0 -41 23l-109 225v-221q0 -11 -8 -19t-19 -8h-151q-11 0 -19 8t-8 19v646q0 11 8 19t19 8h128q32 0 41 -23l109 -247v243q0 11 8 19t19 8zM823 103q11 0 19 -8t8 -19v-49q0 -11 -8 -19t-19 -8h-259
q-11 0 -19 8t-8 19v49q0 11 8 19t19 8h259zM671 363v-94q0 -34 23 -34t23 34v94q0 33 -23 33t-23 -33zM850 362v-94q0 -138 -156.5 -138t-156.5 139v92q0 139 157 139q75 0 115.5 -34.5t40.5 -103.5z" />
    <glyph glyph-name="trademark" unicode="&#x2122;" 
d="M628 700h70q11 0 11 -10v-246q0 -10 -11 -10h-78q-11 0 -11 10v94l-24 -41q-7 -9 -15 -9h-26q-8 0 -15 9l-24 41v-94q0 -10 -11 -10h-78q-11 0 -11 10v246q0 10 11 10h70q6 0 16 -10l55 -92l55 92q10 10 16 10zM151 700h212q11 0 11 -10v-71q0 -11 -11 -11h-53v-164
q0 -10 -10 -10h-86q-10 0 -10 10v164h-53q-11 0 -11 11v71q0 10 11 10z" />
    <glyph glyph-name="estimated" unicode="&#x212e;" 
d="M720 223h-368v-14q0 -27 23.5 -45t60 -18t51.5 16.5t36 16.5h188q24 0 24 -26q0 -60 -83 -111.5t-225 -51.5t-233.5 74.5t-91.5 210.5v58q0 126 95.5 201.5t238 75.5t228 -81.5t85.5 -216.5v-56q0 -14 -8.5 -23.5t-20.5 -9.5zM477.5 443.5q-22.5 16.5 -50.5 16.5
t-51.5 -19.5t-23.5 -59.5v-3h148v3q0 46 -22.5 62.5z" />
    <glyph glyph-name="onethird" unicode="&#x2153;" 
d="M612 700h74q24 0 24 -20q0 -6 -4 -11l-494 -650q-14 -19 -36 -19h-74q-24 0 -24 20q0 6 4 11l494 650q14 19 36 19zM275 687v-323q0 -5 -4 -9.5t-10 -4.5h-110q-5 0 -9 4.5t-4 9.5v200l-50 -32q-11 -8 -19 4l-44 69q-2 4 -2 9t7 11l113 73q3 2 8 2h110q14 0 14 -13z
M819 106q0 -55 -51 -85.5t-135.5 -30.5t-130 33t-45.5 73q0 11 11 11h116q6 0 16 -9t43.5 -9t33.5 23q0 21 -40 21h-67q-14 0 -14 14v41q0 16 11 21l75 37h-148q-14 0 -14 13v77q0 14 14 14h288q14 0 14 -14v-64q0 -12 -11 -21l-63 -42q97 -22 97 -103z" />
    <glyph glyph-name="twothirds" unicode="&#x2154;" 
d="M644 700h74q24 0 24 -20q0 -6 -4 -11l-494 -650q-14 -19 -36 -19h-74q-24 0 -24 20q0 6 4 11l494 650q14 19 36 19zM850 106q0 -55 -51 -85.5t-135.5 -30.5t-130 33t-45.5 73q0 11 11 11h116q6 0 16 -9t43.5 -9t33.5 23q0 21 -40 21h-67q-14 0 -14 14v41q0 16 11 21
l75 37h-148q-14 0 -14 13v77q0 14 14 14h288q14 0 14 -14v-64q0 -12 -11 -21l-63 -42q97 -22 97 -103zM328 459q5 0 9.5 -4t4.5 -9v-82q0 -6 -4.5 -10t-9.5 -4h-313q-5 0 -9.5 4t-4.5 10v67q0 20 14 28q15 10 39.5 25t37.5 23.5t31 20t27.5 19t19.5 15.5q18 16 18 28
q0 20 -20 20q-17 0 -23 -12q-2 -4 -4 -11.5t-3 -8.5q-2 -6 -14 -6h-109q-12 0 -12 13q0 58 45 91.5t124 33.5q156 0 156 -114q0 -46 -68 -92q-9 -7 -32.5 -22.5t-33.5 -22.5h134z" />
    <glyph glyph-name="oneeighth" unicode="&#x215b;" 
d="M642 700h74q24 0 24 -20q0 -6 -4 -11l-494 -650q-14 -19 -36 -19h-74q-24 0 -24 20q0 6 4 11l494 650q14 19 36 19zM285 687v-323q0 -5 -4 -9.5t-10 -4.5h-110q-5 0 -9 4.5t-4 9.5v200l-50 -32q-11 -8 -19 4l-44 69q-2 4 -2 9t7 11l113 73q3 2 8 2h110q14 0 14 -13z
M523.5 328.5q43.5 31.5 126 31.5t126 -31t43.5 -74t-36 -70q49 -26 49 -76t-47.5 -84.5t-135 -34.5t-134 35t-46.5 85t45 75q-34 26 -34 69t43.5 74.5zM691 105q0 14 -12.5 22t-29 8t-28.5 -8.5t-12 -21.5t12 -21t28 -8q42 0 42 29zM676.5 224.5q11.5 7.5 11.5 20
t-11.5 20.5t-27 8t-26.5 -8t-11 -20.5t11 -20t26.5 -7.5t27 7.5z" />
    <glyph glyph-name="threeeighths" unicode="&#x215c;" 
d="M643 700h74q24 0 24 -20q0 -6 -4 -11l-494 -650q-14 -19 -36 -19h-74q-24 0 -24 20q0 6 4 11l494 650q14 19 36 19zM524.5 328.5q43.5 31.5 126 31.5t126 -31t43.5 -74t-36 -70q49 -26 49 -76t-47.5 -84.5t-135 -34.5t-134 35t-46.5 85t45 75q-34 26 -34 69t43.5 74.5z
M692 105q0 14 -12.5 22t-29 8t-28.5 -8.5t-12 -21.5t12 -21t28 -8q42 0 42 29zM677.5 224.5q11.5 7.5 11.5 20t-11.5 20.5t-27 8t-26.5 -8t-11 -20.5t11 -20t26.5 -7.5t27 7.5zM362 456q0 -55 -51 -85.5t-135.5 -30.5t-130 33t-45.5 73q0 11 11 11h116q6 0 16 -9t43.5 -9
t33.5 23q0 21 -40 21h-67q-14 0 -14 14v41q0 16 11 21l75 37h-148q-14 0 -14 13v77q0 14 14 14h288q14 0 14 -14v-64q0 -12 -11 -21l-63 -42q97 -22 97 -103z" />
    <glyph glyph-name="fiveeighths" unicode="&#x215d;" 
d="M643 700h74q24 0 24 -20q0 -6 -4 -11l-494 -650q-14 -19 -36 -19h-74q-24 0 -24 20q0 6 4 11l494 650q14 19 36 19zM524.5 328.5q43.5 31.5 126 31.5t126 -31t43.5 -74t-36 -70q49 -26 49 -76t-47.5 -84.5t-135 -34.5t-134 35t-46.5 85t45 75q-34 26 -34 69t43.5 74.5z
M692 105q0 14 -12.5 22t-29 8t-28.5 -8.5t-12 -21.5t12 -21t28 -8q42 0 42 29zM677.5 224.5q11.5 7.5 11.5 20t-11.5 20.5t-27 8t-26.5 -8t-11 -20.5t11 -20t26.5 -7.5t27 7.5zM198 439q39 0 39 32q0 15 -11 23t-26.5 8t-26 -6t-13.5 -6h-106q-12 0 -12 11v3l20 175
q4 21 24 21h253q13 0 13 -14v-72q0 -13 -13 -13h-167l-4 -34q28 18 79 18t91 -32.5t40 -88t-49.5 -90t-130.5 -34.5t-127.5 32t-46.5 82q0 11 11 11h108q13 0 23 -13t32 -13z" />
    <glyph glyph-name="seveneighths" unicode="&#x215e;" 
d="M643 700h74q24 0 24 -20q0 -6 -4 -11l-494 -650q-14 -19 -36 -19h-74q-24 0 -24 20q0 6 4 11l494 650q14 19 36 19zM524.5 328.5q43.5 31.5 126 31.5t126 -31t43.5 -74t-36 -70q49 -26 49 -76t-47.5 -84.5t-135 -34.5t-134 35t-46.5 85t45 75q-34 26 -34 69t43.5 74.5z
M692 105q0 14 -12.5 22t-29 8t-28.5 -8.5t-12 -21.5t12 -21t28 -8q42 0 42 29zM677.5 224.5q11.5 7.5 11.5 20t-11.5 20.5t-27 8t-26.5 -8t-11 -20.5t11 -20t26.5 -7.5t27 7.5zM70 700h300q13 0 13 -13v-75q0 -16 -6 -26l-121 -224q-8 -12 -21 -12h-120q-11 0 -11 12
q0 3 1 4l129 225h-164q-13 0 -13 14v82q0 13 13 13z" />
    <glyph glyph-name="partialdiff" unicode="&#x2202;" 
d="M115 226v8q0 112 90 174t220 62h14q-43 100 -174 189q-13 9 -13 18.5t6.5 16t15.5 6.5h208q34 0 53 -13q91 -65 145.5 -168.5t54.5 -230.5v-62q0 -115 -84 -175.5t-226 -60.5t-226 60.5t-84 175.5zM490 223v25q-1 29 -20 43t-46 14t-45.5 -16.5t-18.5 -51.5v-14
q0 -68 65 -68q28 0 46.5 16.5t18.5 51.5z" />
    <glyph glyph-name="uni2206" unicode="&#x2206;" 
d="M766 0h-681q-11 0 -19 8t-8 19v45q0 14 6 30l218 525q14 33 45 33h197q31 0 45 -33l218 -525q6 -16 6 -30v-45q0 -11 -8 -19t-19 -8zM521 188l-96 260l-95 -260h191z" />
    <glyph glyph-name="product" unicode="&#x220f;" 
d="M138 700h574q11 0 19 -8t8 -19v-846q0 -11 -8 -19t-19 -8h-179q-11 0 -19 8t-8 19v621h-162v-621q0 -11 -8 -19t-19 -8h-179q-11 0 -19 7.5t-8 19.5v846q0 11 8 19t19 8z" />
    <glyph glyph-name="summation" unicode="&#x2211;" 
d="M111 499v174q0 11 8 19t19 8h574q11 0 19 -8t8 -19v-198q0 -11 -8 -19t-19 -8h-237l231 -140q33 -25 33 -44v-28q0 -19 -33 -44l-231 -140h237q11 0 19 -8t8 -19v-198q0 -11 -8 -19t-19 -8h-574q-11 0 -19 8t-8 19v174q0 23 15 37q4 5 15 13l280 199l-280 199
q-30 22 -30 50z" />
    <glyph glyph-name="minus" unicode="&#x2212;" 
d="M234 430h383q11 0 19 -8t8 -19v-142q0 -11 -8 -19t-19 -8h-383q-11 0 -19 8t-8 19v142q0 11 8 19t19 8z" />
    <glyph glyph-name="radical" unicode="&#x221a;" 
d="M514 860h283q11 0 19 -8t8 -19v-116q0 -11 -8 -19t-19 -8h-147l-215 -665q-8 -25 -33 -25h-180q-25 0 -33 25l-162 463q-1 3 -1 10t7 14t17 7h149q24 0 33 -24l80 -222l169 563q9 24 33 24z" />
    <glyph glyph-name="infinity" unicode="&#x221e;" 
d="M425 402q83 90 187.5 90t162 -67.5t57.5 -154.5q0 -123 -98 -187q-51 -34 -121 -34q-106 0 -188 91q-82 -91 -188 -91q-70 0 -121 34q-98 64 -98 187q0 87 57.5 154.5t162 67.5t187.5 -90zM567 228q22 -16 42 -16t39 16.5t19 42t-18.5 42t-39 16.5t-41.5 -14.5t-32 -29.5
l-12 -15q5 -6 13 -16t30 -26zM202 228.5q19 -16.5 39.5 -16.5t41 14.5t31.5 29.5l12 14q-16 22 -40 40.5t-45 18.5t-39.5 -16.5t-18.5 -42t19 -42z" />
    <glyph glyph-name="integral" unicode="&#x222b;" 
d="M326 38v454q0 95 66 151.5t166 56.5h51q11 0 19 -8t8 -19v-121q0 -11 -8 -19t-19 -8h-31q-63 0 -63 -63v-454q0 -95 -66 -151.5t-166 -56.5h-51q-11 0 -19 8t-8 19v121q0 11 8 19t19 8h31q63 0 63 63z" />
    <glyph glyph-name="approxequal" unicode="&#x2248;" 
d="M214.5 546.5q34.5 23.5 85 23.5t128 -21t124.5 -21t76 26q10 8 21.5 8.5t16 -8t4.5 -28.5v-98q0 -33 -34.5 -56.5t-85 -23.5t-128 21t-124.5 21t-76 -26q-10 -8 -21.5 -8.5t-16 8t-4.5 28.5v98q0 33 34.5 56.5zM214.5 293.5q34.5 23.5 85 23.5t128 -21t124.5 -21t76 26
q10 8 21.5 8.5t16 -8t4.5 -28.5v-98q0 -33 -34.5 -56.5t-85 -23.5t-128 21t-124.5 21t-76 -26q-10 -8 -21.5 -8.5t-16 8t-4.5 28.5v98q0 33 34.5 56.5z" />
    <glyph glyph-name="notequal" unicode="&#x2260;" 
d="M213 553h218l16 39q13 30 44 30h94q9 0 15.5 -6.5t6.5 -13t-2 -11.5l-16 -38h49q11 0 19 -8t8 -19v-116q0 -11 -8 -19t-19 -8h-120l-34 -80h154q11 0 19 -8t8 -19v-116q0 -11 -8 -19t-19 -8h-225l-17 -40q-12 -30 -44 -30h-91q-9 0 -15.5 6.5t-6.5 13t2 11.5l16 39h-44
q-11 0 -19 8t-8 19v116q0 11 8 19t19 8h114l33 80h-147q-11 0 -19 8t-8 19v116q0 11 8 19t19 8z" />
    <glyph glyph-name="lessequal" unicode="&#x2264;" 
d="M165 409v62q0 29 29 42l420 180q8 3 14 3t12 -6t6 -15v-132q0 -34 -32 -44l-175 -59l175 -60q32 -12 32 -43v-132q0 -9 -6 -15t-12 -6t-14 3l-420 180q-29 13 -29 42zM192 163h427q11 0 19 -8t8 -19v-109q0 -11 -8 -19t-19 -8h-427q-11 0 -19 8t-8 19v109q0 11 8 19t19 8
z" />
    <glyph glyph-name="greaterequal" unicode="&#x2265;" 
d="M685 471v-62q0 -29 -29 -42l-420 -180q-8 -3 -14 -3t-12 6t-6 15v132q0 31 32 43l175 60l-175 59q-32 10 -32 44v132q0 9 6 15t12 6t14 -3l420 -180q29 -13 29 -42zM231 163h427q11 0 19 -8t8 -19v-109q0 -11 -8 -19t-19 -8h-427q-11 0 -19 8t-8 19v109q0 11 8 19t19 8z
" />
    <glyph glyph-name="lozenge" unicode="&#x25ca;" 
d="M372 710h106q30 0 50 -33l188 -300q8 -11 8 -22t-8 -22l-188 -300q-20 -33 -50 -33h-106q-30 0 -50 33l-188 300q-8 11 -8 22t8 22l188 300q20 33 50 33zM336 355l89 -143l89 143l-89 142z" />
    <glyph glyph-name="Caron" unicode="&#xf6ca;" 
d="M522 850h81q16 0 16 -16q0 -9 -8 -14l-83 -70q-27 -19 -47 -19h-112q-20 0 -47 19l-83 70q-8 5 -8 14q0 16 16 16h81q18 0 40 -7l57 -22l57 22q22 7 40 7z" />
    <glyph glyph-name="Macron" unicode="&#xf6d0;" 
d="M242 850h367q10 0 16.5 -6.5t6.5 -16.5v-73q0 -10 -6.5 -16.5t-16.5 -6.5h-367q-10 0 -16.5 6.5t-6.5 16.5v73q0 10 6.5 16.5t16.5 6.5z" />
    <glyph glyph-name="shinshindothebrew" unicode="&#xfb2a;" 
d="M778 805v-36q0 -11 -8 -19t-19 -8h-35q-11 0 -19 8t-8 19v36q0 11 8 19t19 8h35q11 0 19 -8t8 -19zM511 -10h-173q-157 0 -249 81t-92 228v374q0 11 8 19t19 8h176q11 0 19 -8t8 -19v-336q25 19 42 50t17 63v222q0 28 29 28h144q13 0 20.5 -8.5t7.5 -20.5v-224
q0 -84 -39.5 -152t-122.5 -100h186q111 0 111 105v373q0 11 8 19t19 8h176q11 0 19 -8t8 -19v-374q0 -147 -92 -228t-249 -81z" />
    <glyph glyph-name="shinsindothebrew" unicode="&#xfb2b;" 
d="M157 805v-36q0 -11 -8 -19t-19 -8h-35q-11 0 -19 8t-8 19v36q0 11 8 19t19 8h35q11 0 19 -8t8 -19zM511 -10h-173q-157 0 -249 81t-92 228v374q0 11 8 19t19 8h176q11 0 19 -8t8 -19v-336q25 19 42 50t17 63v222q0 28 29 28h144q13 0 20.5 -8.5t7.5 -20.5v-224
q0 -84 -39.5 -152t-122.5 -100h186q111 0 111 105v373q0 11 8 19t19 8h176q11 0 19 -8t8 -19v-374q0 -147 -92 -228t-249 -81z" />
    <glyph glyph-name="shindageshshindothebrew" unicode="&#xfb2c;" 
d="M593 373v-36q0 -11 -8 -19t-19 -8h-35q-11 0 -19 8t-8 19v36q0 11 8 19t19 8h35q11 0 19 -8t8 -19zM778 805v-36q0 -11 -8 -19t-19 -8h-35q-11 0 -19 8t-8 19v36q0 11 8 19t19 8h35q11 0 19 -8t8 -19zM511 -10h-173q-157 0 -249 81t-92 228v374q0 11 8 19t19 8h176
q11 0 19 -8t8 -19v-336q25 19 42 50t17 63v222q0 28 29 28h144q13 0 20.5 -8.5t7.5 -20.5v-224q0 -84 -39.5 -152t-122.5 -100h186q111 0 111 105v373q0 11 8 19t19 8h176q11 0 19 -8t8 -19v-374q0 -147 -92 -228t-249 -81z" />
    <glyph glyph-name="shindageshsindothebrew" unicode="&#xfb2d;" 
d="M593 373v-36q0 -11 -8 -19t-19 -8h-35q-11 0 -19 8t-8 19v36q0 11 8 19t19 8h35q11 0 19 -8t8 -19zM157 805v-36q0 -11 -8 -19t-19 -8h-35q-11 0 -19 8t-8 19v36q0 11 8 19t19 8h35q11 0 19 -8t8 -19zM511 -10h-173q-157 0 -249 81t-92 228v374q0 11 8 19t19 8h176
q11 0 19 -8t8 -19v-336q25 19 42 50t17 63v222q0 28 29 28h144q13 0 20.5 -8.5t7.5 -20.5v-224q0 -84 -39.5 -152t-122.5 -100h186q111 0 111 105v373q0 11 8 19t19 8h176q11 0 19 -8t8 -19v-374q0 -147 -92 -228t-249 -81z" />
    <glyph glyph-name="betdageshhebrew" unicode="&#xfb31;" 
d="M289 373v-36q0 -11 -8 -19t-19 -8h-35q-11 0 -19 8t-8 19v36q0 11 8 19t19 8h35q11 0 19 -8t8 -19zM102 700h218q179 0 275 -72.5t96 -236.5v-191h79q11 0 19 -8t8 -19v-146q0 -11 -8 -19t-19 -8h-668q-11 0 -19 8t-8 19v146q0 11 8 19t19 8h319v190q0 57 -23.5 81
t-77.5 24h-218q-11 0 -19 8t-8 19v151q0 11 8 19t19 8z" />
    <glyph glyph-name="gimeldageshhebrew" unicode="&#xfb32;" 
d="M261 413v-36q0 -11 -8 -19t-19 -8h-35q-11 0 -19 8t-8 19v36q0 11 8 19t19 8h35q11 0 19 -8t8 -19zM418 337v63q0 57 -23.5 81t-77.5 24h-118q-11 0 -19 8t-8 19v151q0 11 8 19t19 8h118q179 0 275 -72.5t96 -236.5v-75l140 -299q2 -5 2 -10t-3.5 -11t-14.5 -6h-221
q-19 0 -29 19l-55 115h-58q-48 0 -77.5 -24.5t-29.5 -72.5v-10q0 -11 -8 -19t-19 -8h-201q-11 0 -19 8t-8 19v11q0 82 29 142.5t78 93.5q95 63 224 63z" />
    <glyph glyph-name="daletdageshhebrew" unicode="&#xfb33;" 
d="M254 373v-36q0 -11 -8 -19t-19 -8h-35q-11 0 -19 8t-8 19v36q0 11 8 19t19 8h35q11 0 19 -8t8 -19zM684 485h-79v-458q0 -11 -8 -19t-19 -8h-216q-11 0 -19 8t-8 19v458h-229q-11 0 -19 8t-8 19v161q0 11 8 19t19 8h578q11 0 19 -8t8 -19v-161q0 -11 -8 -19t-19 -8z" />
    <glyph glyph-name="hedageshhebrew" unicode="&#xfb34;" 
d="M463 373v-36q0 -11 -8 -19t-19 -8h-35q-11 0 -19 8t-8 19v36q0 11 8 19t19 8h35q11 0 19 -8t8 -19zM322 408v-381q0 -11 -8 -19t-19 -8h-196q-11 0 -19 8t-8 19l-1 381q0 11 8 19t19 8h197q11 0 19 -8t8 -19zM98 700h327q371 0 371 -319v-354q0 -11 -8 -19t-19 -8h-216
q-11 0 -19 8t-8 19v353q0 57 -23.5 81t-77.5 24h-327q-11 0 -19 8t-8 19v161q0 11 8 19t19 8z" />
    <glyph glyph-name="vavdagesh65" unicode="&#xfb35;" 
d="M269 373v-36q0 -11 -8 -19t-19 -8h-35q-11 0 -19 8t-8 19v36q0 11 8 19t19 8h35q11 0 19 -8t8 -19zM610 673v-646q0 -11 -8 -19t-19 -8h-216q-11 0 -19 8t-8 19v458h-133q-11 0 -19 8t-8 19v161q0 11 8 19t19 8h376q11 0 19 -8t8 -19z" />
    <glyph glyph-name="zayindageshhebrew" unicode="&#xfb36;" 
d="M259 373v-36q0 -11 -8 -19t-19 -8h-35q-11 0 -19 8t-8 19v36q0 11 8 19t19 8h35q11 0 19 -8t8 -19zM660 485h-8q-38 0 -51.5 -24t-13.5 -96v-338q0 -11 -8 -19t-19 -8h-216q-11 0 -19 8t-8 19v338q0 74 28 120h-193q-11 0 -19 8t-8 19v161q0 11 8 19t19 8h508q11 0 19 -8
t8 -19v-161q0 -11 -8 -19t-19 -8z" />
    <glyph glyph-name="tetdageshhebrew" unicode="&#xfb38;" 
d="M479 373v-36q0 -11 -8 -19t-19 -8h-35q-11 0 -19 8t-8 19v36q0 11 8 19t19 8h35q11 0 19 -8t8 -19zM433 710h3q172 0 270 -84.5t98 -226.5v-108q0 -142 -98 -221.5t-272.5 -79.5t-267.5 79.5t-93 225.5v372q0 14 9.5 23.5t23.5 9.5h194q14 0 23.5 -9.5t9.5 -23.5v-375
q0 -51 25.5 -79.5t76 -28.5t76.5 28t26 79v112q0 109 -102 109h-2q-14 0 -23.5 9.5t-9.5 23.5v132q0 14 9.5 23.5t23.5 9.5z" />
    <glyph glyph-name="yoddageshhebrew" unicode="&#xfb39;" 
d="M279 373v-36q0 -11 -8 -19t-19 -8h-35q-11 0 -19 8t-8 19v36q0 11 8 19t19 8h35q11 0 19 -8t8 -19zM620 673v-408q0 -11 -8 -19t-19 -8h-216q-11 0 -19 8t-8 19v220h-133q-11 0 -19 8t-8 19v161q0 11 8 19t19 8h376q11 0 19 -8t8 -19z" />
    <glyph glyph-name="finalkafdageshhebrew" unicode="&#xfb3a;" 
d="M259 373v-36q0 -11 -8 -19t-19 -8h-35q-11 0 -19 8t-8 19v36q0 11 8 19t19 8h35q11 0 19 -8t8 -19zM690 485h-79v-582q0 -11 -8 -19t-19 -8h-216q-11 0 -19 8t-8 19v582h-229q-11 0 -19 8t-8 19v161q0 11 8 19t19 8h578q11 0 19 -8t8 -19v-161q0 -11 -8 -19t-19 -8z" />
    <glyph glyph-name="kafdageshhebrew" unicode="&#xfb3b;" 
d="M329 373v-36q0 -11 -8 -19t-19 -8h-35q-11 0 -19 8t-8 19v36q0 11 8 19t19 8h35q11 0 19 -8t8 -19zM100 215h292q52 0 77 26.5t25 73.5v70q0 47 -25 73.5t-77 26.5h-292q-11 0 -19 8t-8 19v161q0 11 8 19t19 8h302q172 0 267 -82.5t95 -238.5v-58q0 -156 -95 -238.5
t-267 -82.5h-302q-11 0 -19 8t-8 19v161q0 11 8 19t19 8z" />
    <glyph glyph-name="lameddageshhebrew" unicode="&#xfb3c;" 
d="M309 373v-36q0 -11 -8 -19t-19 -8h-35q-11 0 -19 8t-8 19v36q0 11 8 19t19 8h35q11 0 19 -8t8 -19zM86 512v311q0 11 8 19t19 8h176q11 0 19 -8t8 -19v-123h352q11 0 19 -8t8 -19v-369q0 -164 -95.5 -234t-275.5 -70h-24q-11 0 -19 8t-8 19v146q0 11 8 19t19 8h24
q54 0 77.5 24t23.5 81v180h-312q-11 0 -19 8t-8 19z" />
    <glyph glyph-name="memdageshhebrew" unicode="&#xfb3e;" 
d="M501 373v-36q0 -11 -8 -19t-19 -8h-35q-11 0 -19 8t-8 19v36q0 11 8 19t19 8h35q11 0 19 -8t8 -19zM458 215h82v165q0 57 -23.5 81t-77.5 24h-33l-120 -458q0 -11 -8 -19t-19 -8h-216q-11 0 -19 8t-8 19l119 458h-92q-11 0 -19 8t-8 19v161q0 11 8 19t19 8h396
q371 0 371 -319v-354q0 -11 -8 -19t-19 -8h-325q-11 0 -19 8t-8 19v161q0 11 8 19t19 8z" />
    <glyph glyph-name="nundageshhebrew" unicode="&#xfb40;" 
d="M329 373v-36q0 -11 -8 -19t-19 -8h-35q-11 0 -19 8t-8 19v36q0 11 8 19t19 8h35q11 0 19 -8t8 -19zM212 710h78q176 0 273.5 -81t97.5 -248v-354q0 -11 -8 -19t-19 -8h-422q-11 0 -19 8t-8 19v161q0 11 8 19t19 8h179v165q0 57 -23.5 81t-77.5 24h-78q-11 0 -19 8t-8 19
v171q0 11 8 19t19 8z" />
    <glyph glyph-name="samekhdageshhebrew" unicode="&#xfb41;" 
d="M481 373v-36q0 -11 -8 -19t-19 -8h-35q-11 0 -19 8t-8 19v36q0 11 8 19t19 8h35q11 0 19 -8t8 -19zM127 710h310q170 0 264 -85t94 -228v-96q0 -144 -94.5 -227.5t-266 -83.5t-256 83t-84.5 232v372q0 14 9.5 23.5t23.5 9.5zM436 512h-92v-220q0 -108 92 -108t92 107v110
q0 53 -18.5 82t-73.5 29z" />
    <glyph glyph-name="pedageshhebrew" unicode="&#xfb44;" 
d="M522 373v-36q0 -11 -8 -19t-19 -8h-35q-11 0 -19 8t-8 19v36q0 11 8 19t19 8h35q11 0 19 -8t8 -19zM90 215h366q47 0 69.5 21t22.5 69v100q0 95 -92 95h-144q0 -30 10 -40.5t42 -10.5h16q11 0 19 -8t8 -19v-141q0 -11 -8 -19t-19 -8h-16q-159 0 -230 59.5t-71 213.5v146
q0 11 8 19t19 8h366q163 0 262.5 -75t99.5 -226v-88q0 -152 -100 -231.5t-262 -79.5h-366q-11 0 -19 8t-8 19v161q0 11 8 19t19 8z" />
    <glyph glyph-name="tsadidageshhebrew" unicode="&#xfb46;" 
d="M229 373v-36q0 -11 -8 -19t-19 -8h-35q-11 0 -19 8t-8 19v36q0 11 8 19t19 8h35q11 0 19 -8t8 -19zM108 205h313l-360 462q-5 7 -5 14t6.5 13t15.5 6h240q24 0 29 -5l13 -13l156 -203q21 40 21 86v108q0 11 8 19t19 8h201q11 0 19 -8t8 -19v-109q0 -190 -125 -279l62 -80
q14 -18 14 -39v-139q0 -11 -8 -19t-19 -8h-608q-11 0 -19 8t-8 19v151q0 11 8 19t19 8z" />
    <glyph glyph-name="qofdageshhebrew" unicode="&#xfb47;" 
d="M475 373v-36q0 -11 -8 -19t-19 -8h-35q-11 0 -19 8t-8 19v36q0 11 8 19t19 8h35q11 0 19 -8t8 -19zM61 522v151q0 11 8 19t19 8h685q11 0 19 -8t8 -19v-374q0 -164 -96 -236.5t-275 -72.5h-14q-11 0 -19 8t-8 19v151q0 11 8 19t19 8h14q54 0 77.5 24t23.5 81v195h-442
q-11 0 -19 8t-8 19zM330 408v-505q0 -11 -8 -19t-19 -8h-216q-11 0 -19 8t-8 19v505q0 11 8 19t19 8h216q11 0 19 -8t8 -19z" />
    <glyph glyph-name="shindageshhebrew" unicode="&#xfb49;" 
d="M593 373v-36q0 -11 -8 -19t-19 -8h-35q-11 0 -19 8t-8 19v36q0 11 8 19t19 8h35q11 0 19 -8t8 -19zM511 -10h-173q-157 0 -249 81t-92 228v374q0 11 8 19t19 8h176q11 0 19 -8t8 -19v-336q25 19 42 50t17 63v222q0 28 29 28h144q13 0 20.5 -8.5t7.5 -20.5v-224
q0 -84 -39.5 -152t-122.5 -100h186q111 0 111 105v373q0 11 8 19t19 8h176q11 0 19 -8t8 -19v-374q0 -147 -92 -228t-249 -81z" />
    <glyph glyph-name="tavdageshhebrew" unicode="&#xfb4a;" 
d="M521 373v-36q0 -11 -8 -19t-19 -8h-35q-11 0 -19 8t-8 19v36q0 11 8 19t19 8h35q11 0 19 -8t8 -19zM51 200h78v295h-78q-11 0 -19 8t-8 19v151q0 11 8 19t19 8h402q179 0 275 -72.5t96 -236.5v-364q0 -11 -8 -19t-19 -8h-216q-11 0 -19 8t-8 19v363q0 57 -23.5 81
t-77.5 24h-53v-468q0 -11 -8 -19t-19 -8h-322q-11 0 -19 8t-8 19v146q0 11 8 19t19 8z" />
    <glyph glyph-name="nbsp" unicode="&#xa0;" 
 />
  </font>
</defs>
</svg>
